<svg xmlns="http://www.w3.org/2000/svg" width="40" height="40" viewBox="0 0 40 40"><path fill-rule="evenodd" clip-rule="evenodd" fill="#fff" d="M12.088 19.326c-.037-.1-.058-.202-.062-.307-.002-.024-.013-.044-.013-.068 0-.017.01-.032.01-.05.005-.06.02-.118.036-.178.043-.18.12-.345.246-.47.007-.007.008-.017.016-.024l5.965-5.94c.39-.39 1.024-.39 1.414 0 .39.39.39 1.024 0 1.414L15.42 17.97h12.64c.543 0 .983.44.983.983 0 .545-.44.985-.983.985H15.4l4.35 4.324c.39.39.39 1.023 0 1.414-.39.39-1.025.39-1.415 0l-6.03-5.994c-.1-.1-.163-.218-.21-.34l-.007-.016z"/></svg>