<svg xmlns="http://www.w3.org/2000/svg" width="40" height="40" viewBox="0 0 40 40"><path fill-rule="evenodd" clip-rule="evenodd" fill="#67757d" d="M28.965 18.637c.038.1.058.202.062.307.002.023.014.043.014.067 0 .018-.008.033-.01.05-.004.06-.02.12-.035.18-.044.178-.12.344-.247.47-.007.006-.008.016-.015.023l-5.965 5.94c-.39.39-1.024.39-1.414 0-.39-.39-.39-1.024 0-1.414l4.283-4.266h-12.64c-.544 0-.984-.44-.984-.984s.44-.985.984-.985h12.656l-4.35-4.324c-.39-.39-.39-1.022 0-1.413.39-.39 1.025-.39 1.415 0l6.03 5.995c.1.1.163.218.21.34.005.007.005.01.007.015z"/></svg>