<svg xmlns="http://www.w3.org/2000/svg" viewBox="0 249.9 595.3 348"><path fill="#41C7F2" d="M297.6 315.3L173.4 472.7l-40.6-14.3L1.1 589.5l-1.1.6 125.4-168.3 41.2 13.2 131.6-184.3 297.1 339.4"/><path opacity=".6" fill="#3D98B5" d="M551.2 591.2l-257-238.1c-.6-.6 36.1 54.4 36.1 54.4l-13.7 13.2 36.6 40.6-15.5 14.3 33.2 40.1-17.7 13.7 36.1 43.5-67.5 18.9 229.4-.6z"/><path fill-rule="evenodd" clip-rule="evenodd" fill="#41C7F2" d="M52 11.3L30.3 38.8l-7.1-2.5-23 22.9-.2.1 21.9-29.4 7.2 2.3L52.1 0 104 59.3"/><path fill-rule="evenodd" clip-rule="evenodd" fill="#3D98B5" d="M96.3 59.5L51.4 17.9c-.1-.1 6.3 9.5 6.3 9.5l-2.4 2.3 6.4 7.1-2.7 2.5 5.8 7-3.1 2.4 6.3 7.6-11.8 3.3 40.1-.1z"/></svg>