<svg xmlns="http://www.w3.org/2000/svg" style="width:0; height:0; visibility:hidden;">
    <symbol id="icon-accepted" viewBox="0 0 27.036 27.013">
      <path fill-rule="evenodd" clip-rule="evenodd" d="M25.782 3.734L11.976 23.415a1.038 1.038 0 0 1-.23.369l-.007.007c-.1.1-.217.169-.341.216a.963.963 0 0 1-1.058-.202l-.007-.007c-.06-.061-.098-.137-.141-.21l-8.936-9.853a.964.964 0 0 1 0-1.363l.007-.007c.376-.376 1.04-.43 1.416-.054l8.269 9.117 13.41-19.117c.376-.376 1.04-.323 1.416.054l.007.007a.962.962 0 0 1 .001 1.362z"/>
    </symbol>
    <symbol id="icon-add-people" viewBox="0 0 40 40">
      <path fill-rule="evenodd" clip-rule="evenodd" d="M28.836 26.197c-.763 1.002-5.664 1.796-8.906 1.796s-7.938-.794-8.702-1.796c-.205-.269-.25-1.08-.124-1.382.744-1.775 1.919-2.155 3.188-2.542.819-.25 1.382-.391 1.758-.575.006-.068.008-.384.008-.722.316.303 1.655.845 1.936 1.013-.005.219-.01 1.103-.01 1.103l-.552.193c-.397.195-.944.296-1.763.563-.564.183-2.143.584-2.396 1.374.022.023 1.887.809 6.674.809 4.787 0 6.905-.928 6.931-.952-.257-.757-2.021-1.094-2.589-1.262-.796-.237-1.474-.371-1.865-.566l-.394-.196s-.003-.822-.007-1.019c.281-.158 1.623-.441 1.941-.731.002.163.003.354.003.616.373.186.957.17 1.756.481 1.078.419 2.492.639 3.237 2.415.126.3.081 1.111-.124 1.38zm-8.84-5.266c-2.132 0-3.985-2.726-3.985-4.99 0-2.756 1.415-4.99 3.985-4.99 2.571 0 4.017 2.234 4.017 4.99 0 2.253-1.885 4.99-4.017 4.99zm.01-7.972c-1.217 0-2.123 1.335-2.123 2.982 0 1.353 1.113 2.982 2.123 2.982 1.01 0 2.091-1.636 2.091-2.982 0-1.647-.874-2.982-2.091-2.982zm-8 6.999h-1.969v-1.982H8.053v-1.969h1.984v-2.049h1.969v2.049h2.047v1.969h-2.047v1.982z"/>
    </symbol>
    <symbol id="icon-arrow_down" viewBox="0 0 40 40">
      <path fill-rule="evenodd" clip-rule="evenodd" d="M28.748 16.645l-6.969 7.024a.98.98 0 0 1-.349.223.998.998 0 0 1-1.088-.217l-7.039-7.014a.999.999 0 1 1 1.414-1.414l6.336 6.314 6.281-6.329a.999.999 0 1 1 1.414 1.413z"/>
    </symbol>
    <symbol id="icon-arrow_left-small" viewBox="0 0 16 16">
      <path fill-rule="evenodd" clip-rule="evenodd" d="M4.266 7.221l6.037-5.904a.999.999 0 1 1 1.414 1.414l-5.338 5.22 5.347 5.318a1 1 0 0 1-1.415 1.414L4.314 8.718a.992.992 0 0 1-.223-.346.99.99 0 0 1 .175-1.151z"/>
    </symbol>
    <symbol id="icon-arrow_left" viewBox="0 0 39.991 40">
      <path fill-rule="evenodd" clip-rule="evenodd" d="M21.396 26.785l-7.024-6.969a.98.98 0 0 1-.223-.349.998.998 0 0 1 .217-1.088l7.014-7.039a.999.999 0 1 1 1.414 1.414L16.48 19.09l6.329 6.281a.999.999 0 1 1-1.413 1.414z"/>
    </symbol>
    <symbol id="icon-arrow_right-small" viewBox="0 0 16 16">
      <path fill-rule="evenodd" clip-rule="evenodd" d="M11.909 8.372a.992.992 0 0 1-.223.346l-5.998 5.965a1 1 0 1 1-1.415-1.414L9.62 7.951l-5.338-5.22a.999.999 0 1 1 1.414-1.414l6.037 5.904a.988.988 0 0 1 .176 1.151z"/>
    </symbol>
    <symbol id="icon-arrow_right" viewBox="0 0 40 40">
      <path d="M18.2 11.7l7 7c.1.1.2.2.2.3.1.4.1.8-.2 1.1l-7 7c-.4.4-1 .4-1.4 0-.4-.4-.4-1 0-1.4l6.3-6.3-6.3-6.3c-.4-.4-.4-1 0-1.4.4-.4 1-.4 1.4 0z"/>
    </symbol>
    <symbol id="icon-arrow_swipe_left" viewBox="0 0 40 40">
      <path fill-rule="evenodd" clip-rule="evenodd" fill="#67757d" d="M12.088 19.326a.987.987 0 0 1-.062-.307c-.002-.023-.013-.043-.013-.067 0-.017.009-.032.01-.049.005-.061.02-.119.036-.179a.971.971 0 0 1 .247-.47c.007-.007.008-.017.016-.024l5.965-5.94a.999.999 0 1 1 1.414 1.414l-4.283 4.265h12.639a.983.983 0 1 1 0 1.969H15.4l4.349 4.324a.999.999 0 1 1-1.414 1.414l-6.029-5.994a.965.965 0 0 1-.212-.341l-.006-.015z"/>
    </symbol>
    <symbol id="icon-arrow_swipe_right" viewBox="0 0 40 40">
      <path fill-rule="evenodd" clip-rule="evenodd" fill="#67757d" d="M28.965 18.637a.96.96 0 0 1 .062.307c.002.023.014.043.014.067 0 .017-.009.032-.01.049-.005.061-.02.119-.036.179a.971.971 0 0 1-.247.47c-.007.007-.008.017-.015.024l-5.965 5.94a.999.999 0 1 1-1.414-1.414l4.283-4.265h-12.64a.983.983 0 1 1 0-1.969h12.656l-4.349-4.324a.999.999 0 1 1 1.414-1.414l6.029 5.995c.1.1.164.218.212.341.004.006.004.01.006.014z"/>
    </symbol>
    <symbol id="icon-attendees-event" viewBox="0 0 24 24">
      <path fill-rule="evenodd" clip-rule="evenodd" d="M23.559 22.294C22.468 23.727 16.565 24 11.929 24S1.428 23.727.336 22.294a1.27 1.27 0 0 1-.177-1.285c1.064-2.539 2.864-3.133 4.314-3.367 1.209-.196 1.965-.605 2.502-.868.009-.098-.003-.549-.002-1.032.452.433 1.529.816 2.045 1.124-.01.402-.038.896-.038.896l-.652.498a11.5 11.5 0 0 1-3.066.948c-1.019.158-2.014.498-2.681 1.829.038.04 1.029 1.048 9.355 1.048 8.325 0 9.449-1.008 9.494-1.05-.676-1.393-1.611-1.669-2.629-1.827-1.218-.19-2.563-.583-3.244-.923l-.591-.504s0-.47-.007-.831c.516-.29 1.531-.645 1.986-1.06.003.234.014.507.014.881.534.266 1.423.584 2.633.781 1.45.235 3.219.918 4.283 3.458.179.432-.023.9-.316 1.284zM11.95 16.088c-3.17 0-5.928-4.085-5.928-7.507 0-4.165 2.108-7.48 5.928-7.48 3.822 0 6.016 3.315 6.016 7.48 0 3.406-2.846 7.507-6.016 7.507zm.01-13.069c-2.571 0-4.01 2.589-4.01 5.553 0 2.435 1.877 5.562 4.01 5.562 2.134 0 4.104-3.077 4.104-5.5-.001-2.963-1.532-5.615-4.104-5.615z"/>
    </symbol>
    <symbol id="icon-block" viewBox="0 0 40 40">
      <path d="M20 1C9.5 1 1 9.5 1 20s8.5 19 19 19 19-8.5 19-19S30.5 1 20 1zM3.9 20c0-8.9 7.2-16 16-16 4.2 0 8 1.6 10.8 4.2L8.1 30.8C5.5 28 3.9 24.2 3.9 20zM20 36.1c-3.6 0-7-1.2-9.7-3.3l22.5-22.5c2 2.7 3.3 6 3.3 9.7-.1 8.9-7.3 16.1-16.1 16.1z"/>
    </symbol>
    <symbol id="icon-checker" viewBox="0 0 13 13">
      <path fill-rule="evenodd" clip-rule="evenodd" d="M10.726 3.698l-4.904 7.037a.991.991 0 0 1-1.151.175.996.996 0 0 1-.347-.223L1.36 7.689a.999.999 0 1 1 1.414-1.414l2.204 2.228 4.334-6.219a1 1 0 0 1 1.414 1.414z"/>
    </symbol>
    <symbol id="icon-clock" viewBox="0 0 39.991 40">
      <path fill-rule="evenodd" clip-rule="evenodd" d="M19.995 30.037c-5.543 0-10.037-4.494-10.037-10.037 0-5.543 4.494-10.037 10.037-10.037S30.032 14.457 30.032 20c0 5.543-4.494 10.037-10.037 10.037zm-.001-18.046a8.005 8.005 0 1 0 0 16.01 8.005 8.005 0 0 0 0-16.01zm3.269 9.025h-3.631c-.369 0-.668-.451-.668-1.008v-.015c0-.041.012-.077.016-.117v-4.868c0-.557.451-1.008 1.008-1.008h.015c.557 0 1.008.451 1.008 1.008v3.976h2.252c.369 0 .668.451.668 1.008v.015c.001.557-.299 1.009-.668 1.009z"/>
    </symbol>
    <symbol id="icon-close-small" viewBox="0 0 11.045 11.048">
      <path fill-rule="evenodd" clip-rule="evenodd" d="M6.962 5.546L9.765 8.34a1 1 0 1 1-1.414 1.414L5.549 6.962 2.775 9.74a.999.999 0 1 1-1.414-1.414l2.757-2.761-2.764-2.786a.999.999 0 1 1 1.414-1.414l2.763 2.784 2.806-2.811a.999.999 0 1 1 1.414 1.414L6.962 5.546z"/>
    </symbol>
    <symbol id="icon-close" viewBox="0 0 40 40">
      <path fill-rule="evenodd" clip-rule="evenodd" d="M22.142 18.249a.992.992 0 0 1-.292.194l5.882 5.895a1 1 0 0 1-1.414 1.414l-5.832-5.845-5.738 5.783a1 1 0 0 1-1.414-1.414l5.739-5.785-5.77-5.782a1 1 0 0 1 1.414-1.414l5.818 5.83a.967.967 0 0 1 .193-.29L26.31 11.3a.999.999 0 1 1 1.414 1.414l-5.582 5.535z"/>
    </symbol>
    <symbol id="icon-confirm-large" viewBox="0 0 102 102">
      <path fill-rule="evenodd" clip-rule="evenodd" d="M53.477 66.059c-.826.826-1.404.959-2.486.939-1.097.04-1.951.05-2.788-.788L29.334 50.895c-1.598-1.598-3.534-2.418-2.217-4.438 1.235-1.893 4.062.185 5.66 1.783l17.979 14.492 40.086-46.121c1.611-1.611 2.969-2.974 4.581-1.363 0 0 .521 1.527-1.968 4.016L53.477 66.059zm-2.72-61.02c-25.436 0-46.056 20.62-46.056 46.056s20.62 46.057 46.056 46.057c25.436 0 46.056-20.62 46.056-46.057 0-4.816-1.382-11.495-2.753-15.859l3.113-3.578a49.795 49.795 0 0 1 3.892 19.349c0 27.619-22.414 50.008-50.064 50.008S.936 78.627.936 51.008C.936 23.389 23.35 1 51 1c11.086 0 21.295 3.643 29.591 9.735l-2.597 3.06c-7.517-5.334-17.318-8.756-27.237-8.756z"/>
    </symbol>
    <symbol id="icon-delete" viewBox="0 0 17.032 17.017">
      <path fill-rule="evenodd" clip-rule="evenodd" d="M8.563 16.002c-4.151 0-7.516-3.359-7.516-7.502S4.412.998 8.563.998s7.516 3.359 7.516 7.502c0 4.144-3.365 7.502-7.516 7.502zM11.778 5.3a.999.999 0 0 0-1.414 0L8.561 7.11 6.754 5.291A.999.999 0 1 0 5.34 6.705l1.802 1.814-1.776 1.755a1 1 0 0 0 1.414 1.414l1.771-1.75 1.753 1.765a.999.999 0 1 0 1.414-1.414L9.97 8.528l1.808-1.814a.999.999 0 0 0 0-1.414z"/>
    </symbol>
    <symbol id="icon-discussion" viewBox="0 0 40 40">
      <path fill-rule="evenodd" clip-rule="evenodd" d="M31.021 28.002h-1.99l.005 1.621c0 .986-1.002 1.863-2.389 1.117l-3.064-2.738H20.08l1.94-2h2.572l2.019 1.879c.321.376.398.238.398-.473h.016l.5-1.413h2.494c1.105 0 2-.898 2-2.006v-5.977a2.003 2.003 0 0 0-2-2.006h-1.02v-.997A2.99 2.99 0 0 0 28.813 14h2.206c1.657 0 3 1.347 3 3.009v7.983a3.002 3.002 0 0 1-2.998 3.01zm-7.355-3.983h-4.05l-4.189 3.688c-1.542.83-2.406-.145-2.406-1.242l.005-2.446h-2.463c-1.842 0-3.555-1.498-3.555-3.346v-8.346a3.341 3.341 0 0 1 3.336-3.346h13.321a3.341 3.341 0 0 1 3.336 3.346v8.346a3.34 3.34 0 0 1-3.335 3.346zm1.331-10.796a2.228 2.228 0 0 0-2.224-2.231H11.238a2.228 2.228 0 0 0-2.224 2.231v6.553c0 1.232 1.214 2.231 2.443 2.231h3.016l.531 2.082h.018c0 1.031.075.941.432.523l3.045-2.604h4.273a2.228 2.228 0 0 0 2.224-2.231v-6.554z"/>
    </symbol>
    <symbol id="icon-doc" viewBox="0 0 40 40">
      <path d="M10.1 12.5H21c.6 0 1-.4 1-1v-1c0-.6-.4-1-1-1H10.1c-.6 0-1 .4-1 1v1c0 .5.4 1 1 1zm19.9 9H10.1c-.6 0-1 .4-1 1v1c0 .6.4 1 1 1H30c.6 0 1-.4 1-1v-1c0-.6-.4-1-1-1zm0-6H10.1c-.6 0-1 .4-1 1v1c0 .6.4 1 1 1H30c.6 0 1-.4 1-1v-1c0-.6-.4-1-1-1zm2-12H8c-2.2 0-4 1.8-4 4v25c0 2.2 1.9 4 4.1 4H32c2.2 0 4-1.8 4-4v-25c0-2.2-1.8-4-4-4zm1.1 29c0 .6-.4 1-1 1H8c-.6 0-1-.4-1-1v-25c0-.6.4-1 1-1h24c.6 0 1 .4 1 1v25zm-3.1-5H10.1c-.6 0-1 .4-1 1v1c0 .6.4 1 1 1H30c.6 0 1-.4 1-1v-1c0-.6-.4-1-1-1z"/>
    </symbol>
    <symbol id="icon-down-small" viewBox="0 0 12 12">
      <path fill-rule="evenodd" clip-rule="evenodd" d="M9.74 5.678L6.837 8.715a.994.994 0 0 1-1.128.191.967.967 0 0 1-.425-.239L2.319 5.669a.999.999 0 1 1 1.414-1.414l2.34 2.366 2.253-2.357A.999.999 0 1 1 9.74 5.678z"/>
    </symbol>
    <symbol id="icon-drop-checker" viewBox="0 0 13 13">
      <path fill="#6DCBE8" d="M10.7 3.7l-4.9 7c-.3.3-.8.4-1.1.2-.1 0-.2-.1-.3-.2l-3-3c-.4-.4-.4-1 0-1.4.4-.4 1-.4 1.4 0L5 8.5l4.3-6.2c.4-.4 1-.4 1.4 0 .4.4.4 1 0 1.4z"/>
    </symbol>
    <symbol id="icon-edit_info" viewBox="0 0 17 17">
      <path fill-rule="evenodd" clip-rule="evenodd" d="M14.728 4.774l-7.374 7.793-2.86-2.836 7.77-7.376a1 1 0 0 1 1.414 0l1.049 1.005a1 1 0 0 1 .001 1.414zM3.204 10.955l2.927 2.904-.172.182s-4.203 1.23-4.214 1.22c.031.031 1.282-4.138 1.282-4.138l.177-.168z"/>
    </symbol>
    <symbol id="icon-edit_photo" viewBox="0 0 54.01 54.01">
      <path fill-rule="evenodd" clip-rule="evenodd" fill="#FFF" d="M49.135 51.031H5.104a4 4 0 0 1-4-4V13.012a4 4 0 0 1 4-4h44.031a4 4 0 0 1 4 4v34.019a4 4 0 0 1-4 4zm1.021-38.989H4.125v36h46.031v-36zm-39.531 3.906a2.53 2.53 0 1 1 0 5.062 2.53 2.53 0 0 1 0-5.062zm21.5 1c7.197 0 13.031 5.834 13.031 13.031 0 7.197-5.834 13.031-13.031 13.031-7.197 0-13.031-5.834-13.031-13.031 0-7.197 5.834-13.031 13.031-13.031zm.042 23.102c5.538 0 10.027-4.489 10.027-10.027 0-5.538-4.489-10.027-10.027-10.027S22.14 24.486 22.14 30.024c0 5.537 4.49 10.026 10.027 10.026zm6.958-34.039h-14a.997.997 0 0 0-.994.969h-3.006v-1a3 3 0 0 1 3-3h16a3 3 0 0 1 3 3v1h-3.006a.997.997 0 0 0-.994-.969z"/>
    </symbol>
    <symbol id="icon-facebook-share" viewBox="0 0 30.026 30">
      <path fill-rule="evenodd" clip-rule="evenodd" d="M17.007 26.004H12.99V15.963h-2.987v-4h2.991l.016-4c0-2.05 1.094-3.967 3.74-3.967h3.272l-.071 3.946h-1.775c-1.155 0-1.17.013-1.17.99l.014 3.031h2.889l-.416 4h-2.486v10.041z"/>
    </symbol>
    <symbol id="icon-facebook" viewBox="139.9 193.8 32 32">
      <circle fill="#FFF" cx="155.9" cy="209.8" r="12"/><path fill="#3B5998" d="M155.9 225.6c-8.7 0-15.9-7.1-15.9-15.9s7.1-15.9 15.9-15.9 15.9 7.1 15.9 15.9-7.2 15.9-15.9 15.9zm1.3-19.1c0-.7 0-.7.8-.7h1.6v-2.6h-2.4c-1.6 0-2.5 1.2-2.5 2.5v2.8h-1.3v2.6h1.3v6.6h2.6v-6.6h2l.3-2.6h-2.4v-2z"/>
    </symbol>
    <symbol id="icon-facebook_middle" viewBox="0 0 46 46.001">
      <path fill-rule="evenodd" clip-rule="evenodd" fill="#3B5998" d="M23.042 45h-.012c-12.15 0-22-9.85-22-22 0-12.151 9.85-22 22-22h.012c12.15 0 22 9.85 22 22 0 12.151-9.85 22-22 22zm.98-27.044c0-.839.02-.959 1.013-.959h1.991v-3.988h-3.018c-2.274 0-3.954 1.647-3.954 3.41v3.56h-2.003v4.01h1.98v9.006h3.981v-9.006h2.782l.42-4.01h-3.198l.006-2.023z"/>
    </symbol>
    <symbol id="icon-failure" viewBox="0 0 19 19">
      <path fill-rule="evenodd" clip-rule="evenodd" fill="#FFF" d="M15.706 4.695l-4.82 4.806 4.811 4.804a.999.999 0 1 1-1.414 1.414L9.47 10.913 4.708 15.66a.999.999 0 1 1-1.414-1.414L8.06 9.495 3.309 4.721a.999.999 0 1 1 1.414-1.414l4.753 4.775 4.816-4.801a1 1 0 1 1 1.414 1.414z"/>
    </symbol>
    <symbol id="icon-hamburger" viewBox="0 0 24 24">
      <path fill-rule="evenodd" clip-rule="evenodd" d="M21.146 5.012H2.916c-1.061 0-1.922-.007-1.922-1.068s.861-.954 1.922-.954h18.23c1.061 0 1.922-.108 1.922.954s-.86 1.068-1.922 1.068zM2.853 10.989h13.232c1.061 0 1.922-.055 1.922 1.006s-.861 1.034-1.922 1.034H2.853c-1.061 0-1.922.028-1.922-1.034s.861-1.006 1.922-1.006zm.033 8.031h16.168c1.061 0 2.021-.056 2.021 1.006s-.959.986-2.021.986H2.886c-1.061 0-1.922.076-1.922-.986 0-1.061.861-1.006 1.922-1.006z"/>
    </symbol>
    <symbol id="icon-instagram_middle" viewBox="0 0 46 46.001">
      <path fill-rule="evenodd" clip-rule="evenodd" fill="#125688" d="M22.964 44.964h-.012c-12.15 0-22-9.85-22-22 0-12.151 9.85-22 22-22h.012c12.15 0 22 9.85 22 22s-9.849 22-22 22zm11-30a3 3 0 0 0-3-3h-16a3 3 0 0 0-3 3v16a3 3 0 0 0 3 3h16a3 3 0 0 0 3-3v-16zm-4.611 17.012h-12.83c-1.657 0-2.57-1.126-2.57-2.783V20.99h2.279c-.185.63-.315 1.284-.315 1.974a7.048 7.048 0 0 0 14.096 0c0-.69-.13-1.344-.315-1.974h2.279v8.308c0 1.657-.967 2.678-2.624 2.678zm1.611-14.028H28.98a1 1 0 0 1-1-1v-1.984a1 1 0 0 1 1-1h1.984a1 1 0 0 1 1 1v1.984a1 1 0 0 1-1 1zm-8 10.01a4.994 4.994 0 1 1 0-9.988 4.994 4.994 0 0 1 0 9.988z"/>
    </symbol>
    <symbol id="icon-linkedin-2" viewBox="-948.3 -311.4 498 498">
      <circle fill="#007BB6" cx="-699.3" cy="-62.3" r="249"/><g fill="#FFF"><path d="M-631.9-105.4c-8.9-8.9-16.7-13.4-27.9-13.4s-23.4 3.3-32.4 13.4v-12.3h-30.1V.6h30.1V-63c0-8.9 3.3-14.5 7.8-19s10-7.8 17.9-7.8c13.4 0 19 7.8 19 25.7V1.8h30.1l-2.2-72.6c0-14.5-4.5-25.7-12.3-34.6zM-769.2-116.6h30.1V1.7h-30.1zM-752.4-162.3c-4.5 0-8.9 1.1-12.3 4.5-3.3 3.3-4.5 5.6-4.5 10 0 4.5 1.1 7.8 4.5 10 3.3 3.3 7.8 4.5 12.3 4.5s5.6-1.1 8.9-4.5c3.3-3.3 4.5-5.6 4.5-10 0-3.3-1.1-6.7-4.5-10-3.4-3.4-4.5-4.5-8.9-4.5z"/></g>
    </symbol>
    <symbol id="icon-linkedin-share" viewBox="0 0 30.026 30">
      <path fill-rule="evenodd" clip-rule="evenodd" d="M20.174 25.056v-7.744c0-2.182-.748-3.265-2.349-3.265-.792 0-1.162.286-1.752.858-.59.572-.884 1.348-.884 2.456v7.695h-4.05V11.039h4.05v1.553c1.197-1.214 2.222-1.59 3.719-1.59 1.496 0 2.733.465 3.745 1.521 1.012 1.056 1.518 2.028 1.518 3.788v8.746h-3.997zM7.342 9.078c-.632 0-1.165-.2-1.6-.599a1.915 1.915 0 0 1-.654-1.469c0-.579.218-1.069.653-1.468.435-.399.969-.599 1.6-.599s.783.2 1.219.599c.436.4.653.889.653 1.468 0 .58-.218 1.069-.653 1.468-.435.4-.587.6-1.218.6zm1.803 15.978H5.151V11.039h3.994v14.017z"/>
    </symbol>
    <symbol id="icon-linkedin" viewBox="139.9 193.8 32 32">
      <circle fill="#FFF" cx="155.9" cy="209.7" r="12.5"/><path fill="#007BB6" d="M155.9 225.7c-8.8 0-16-7.2-16-16s7.2-16 16-16 16 7.2 16 16-7.3 16-16 16zm-5.4-9.3h2.7v-10.6h-2.7v10.6zm2.3-14.3c-.3-.3-.4-.4-.8-.4s-.8.1-1.1.4c-.3.3-.4.5-.4.9s.1.7.4.9c.3.3.7.4 1.1.4s.5-.1.8-.4.4-.5.4-.9c0-.3-.1-.6-.4-.9zm11.1 7.8c0-1.3-.4-2.3-1.1-3.1-.8-.8-1.5-1.2-2.5-1.2s-2.1.3-2.9 1.2v-1.1h-2.7v10.6h2.7v-5.7c0-.8.3-1.3.7-1.7.4-.4.9-.7 1.6-.7 1.2 0 1.7.7 1.7 2.3v5.9h2.7l-.2-6.5z"/>
    </symbol>
    <symbol id="icon-linkedin_middle" viewBox="0 0 46 46.001">
      <path fill-rule="evenodd" clip-rule="evenodd" fill="#007BB6" d="M23.006 45h-.012c-12.15 0-22-9.85-22-22 0-12.151 9.85-22 22-22h.012c12.15 0 22 9.85 22 22 0 12.151-9.85 22-22 22zm-9.015-11.987h3.994V18.995h-3.994v14.018zM17.4 13.499c-.435-.399-.587-.599-1.219-.599-.632 0-1.165.2-1.6.599a1.917 1.917 0 0 0-.653 1.468c0 .58.218 1.069.653 1.468.435.399.969.599 1.6.599.632 0 .783-.2 1.219-.599.435-.399.653-.889.653-1.468s-.218-1.069-.653-1.468zm15.61 10.768c0-1.76-.506-2.732-1.518-3.788-1.012-1.056-2.249-1.521-3.745-1.521s-2.522.376-3.719 1.59v-1.553h-4.05v14.017h4.05v-7.695c0-1.109.295-1.884.884-2.457.59-.572.96-.858 1.752-.858 1.601 0 2.349 1.083 2.349 3.265v7.744h3.997v-8.744z"/>
    </symbol>
    <symbol id="icon-location" viewBox="0 0 24 24">
      <path fill-rule="evenodd" clip-rule="evenodd" d="M11.983 6.965a3.002 3.002 0 1 0 .001 6.003 3.002 3.002 0 0 0-.001-6.003zm0 4.08a1.079 1.079 0 1 1 0-2.158 1.079 1.079 0 0 1 0 2.158zm.066-10.031c-4.947 0-9.055 4.01-9.055 8.958 0 5.906 9.055 12.69 9.055 12.69s8.958-6.89 8.958-12.69a8.958 8.958 0 0 0-8.958-8.958zm-.032 19.183s-7.043-5.389-7.043-10.045c0-3.938 3.153-7.131 7.043-7.131s7.043 3.193 7.043 7.131c0 4.608-7.043 10.045-7.043 10.045z"/>
    </symbol>
    <symbol id="icon-lock" viewBox="0 0 39.991 40">
      <path fill-rule="evenodd" clip-rule="evenodd" d="M23.933 25h-7.875c-.552 0-1.062-.51-1.062-1.062v-4.875c0-.531.473-1.011 1-1.049v-2.061a2.984 2.984 0 0 1 2.984-2.984h2.031a2.984 2.984 0 0 1 2.984 2.984v2.061c.527.038 1 .518 1 1.049v4.875c0 .552-.51 1.062-1.062 1.062zm-4.611-3.123c.2.336.437 1.124.658 1.124.275 0 .557-.857.744-1.219.129-.249.334-.464.334-.767a1.047 1.047 0 0 0-2.094 0c0 .358.188.577.358.862zm2.661-5.968c0-.553-.848-.939-1.972-.939s-2.035.386-2.035.939V18h4.007v-2.091z"/>
    </symbol>
    <symbol id="icon-lock_slim" viewBox="0 0 12.01 12">
      <path fill-rule="evenodd" clip-rule="evenodd" fill="#B1B8BB" d="M10.036 10.932H2.972c-.503 0-.967-.464-.967-.967V5.53c0-.483.533-.563 1.012-.597V3.701c0-1.5 1.029-2.758 2.529-2.758h1.848c1.5 0 2.596 1.258 2.596 2.758v1.232c.479.034 1.012.114 1.012.597v4.436c.001.502-.464.966-.966.966zm-4.204-3.21c.182.305.397 1.023.598 1.023.25 0 .507-.78.677-1.109.117-.227.304-.422.304-.698a.952.952 0 1 0-1.905 0c0 .325.171.524.326.784zM9.01 3.708c0-1.602-1.408-1.816-2.43-1.816-1.022 0-2.611.213-2.611 1.816V4.92H9.01V3.708z"/>
    </symbol>
    <symbol id="icon-map" viewBox="0 0 40 40">
      <path fill-rule="evenodd" clip-rule="evenodd" d="M20 34S8 24.912 8 17c0-6.627 5.372-12 12-12 6.627 0 12 5.373 12 12 0 7.77-12 17-12 17zm0-27c-5.523 0-10 4.534-10 10.125 0 6.61 10 14.263 10 14.263s10-7.719 10-14.263C30 11.534 25.523 7 20 7zm0 14a4 4 0 1 1 0-8 4 4 0 0 1 0 8zm0-6a2 2 0 1 0 0 4 2 2 0 0 0 0-4z"/>
    </symbol>
    <symbol id="icon-menu-connections" viewBox="0 0 40 40">
      <path fill-rule="evenodd" clip-rule="evenodd" d="M32.022 29.987a3 3 0 1 1 0-6 3 3 0 0 1 0 6zm.001-4.039a1.046 1.046 0 1 0 0 2.092 1.046 1.046 0 0 0 0-2.092zm-.999-3.901c.033-.345.053-.693.053-1.047 0-4.624-2.852-8.577-6.893-10.216a4.914 4.914 0 0 0 .672-1.886c4.818 1.916 8.227 6.607 8.227 12.102 0 .347-.025.688-.052 1.028a4.988 4.988 0 0 0-2.007.019zM19.973 11.035a3 3 0 1 1 0-6 3 3 0 0 1 0 6zm.001-4.051a1.046 1.046 0 1 0 0 2.092 1.046 1.046 0 0 0 0-2.092zM8.995 21c0 .401.024.796.066 1.187a4.95 4.95 0 0 0-2.016-.089A12.85 12.85 0 0 1 6.989 21c0-5.432 3.33-10.084 8.061-12.04.106.656.338 1.293.707 1.872-3.973 1.67-6.762 5.594-6.762 10.168zm1.983 5.994a3 3 0 1 1-6 0 3 3 0 0 1 6 0zm-4.045-.004a1.046 1.046 0 1 0 2.092 0 1.046 1.046 0 0 0-2.092 0zm5.494 1.989a11.001 11.001 0 0 0 7.608 3.05 11 11 0 0 0 7.556-3.002c.237.499.543.973.956 1.386.081.081.176.139.261.214a12.992 12.992 0 0 1-8.773 3.406 12.992 12.992 0 0 1-8.771-3.404c.04-.038.087-.064.127-.104a4.869 4.869 0 0 0 1.036-1.546z"/>
    </symbol>
    <symbol id="icon-menu-crowd" viewBox="0 0 39.991 40">
      <path fill-rule="evenodd" clip-rule="evenodd" d="M28 19.026a3 3 0 1 1 0-6 3 3 0 0 1 0 6zm-.004-4.045a1.046 1.046 0 1 0 0 2.091 1.046 1.046 0 0 0 0-2.091zm-8.027-1.955a3 3 0 1 1 0-6 3 3 0 0 1 0 6zm-.008-4.045a1.046 1.046 0 1 0 0 2.091 1.046 1.046 0 0 0 0-2.091zM12 19.026a3 3 0 1 1 0-6 3 3 0 0 1 0 6zm-.004-4.045a1.046 1.046 0 1 0 0 2.091 1.046 1.046 0 0 0 0-2.091zm-.043 6.045c1.061 0 1.068.861 1.068 1.922v2.187c0 1.062-.007 1.922-1.068 1.922-1.061 0-.954-.86-.954-1.922v-2.187c0-1.061-.107-1.922.954-1.922zm8.035-6c1.062 0 1.034.861 1.034 1.922v8.187c0 1.062.028 1.922-1.034 1.922-1.061 0-1.006-.86-1.006-1.922v-8.187c0-1.061-.056-1.922 1.006-1.922zm7.965 6c1.061 0 1.068.861 1.068 1.922v2.187c0 1.062-.007 1.922-1.068 1.922-1.061 0-.954-.86-.954-1.922v-2.187c0-1.061-.107-1.922.954-1.922z"/>
    </symbol>
    <symbol id="icon-menu-events" viewBox="0 0 40 40">
      <path fill-rule="evenodd" clip-rule="evenodd" d="M27.998 10.985V8.968h5.025v2.017h-5.025zM24.01 6.981h1.974v6.013H24.01V6.981zm-6.012 1.987h4v2.017h-4V8.968zM14.01 6.981h1.974v6.013H14.01V6.981zM6.977 8.968h5.021v2.017H6.977V8.968zm11.021 10.029v-1.985h3.027v8.998h-2v-7.013h-1.027zm-9.006 8.904c0 1.936.135 2.101 2.092 2.101H28.02c1.957 0 2.985-.165 2.985-2.101V13.014l1.993.001v15.922c0 2.209-.848 3.057-3.057 3.057H9.963c-2.209 0-2.965-.848-2.965-3.057V12.996l1.993.001v14.904z"/>
    </symbol>
    <symbol id="icon-menu-logout" viewBox="0 0 40 40">
      <path fill-rule="evenodd" clip-rule="evenodd" d="M20 34.047c-7.197 0-13.031-5.834-13.031-13.031 0-6.157 4.275-11.304 10.016-12.666v2.047c-4.629 1.298-8.028 5.539-8.028 10.583 0 6.076 4.925 11.001 11.001 11.001s11.001-4.925 11.001-11.001c0-5.047-3.403-9.29-8.037-10.585v-2.07c5.788 1.328 10.109 6.5 10.109 12.69 0 7.198-5.834 13.032-13.031 13.032zM19.969 20a.984.984 0 0 1-.984-.984V5.985a.984.984 0 1 1 1.968-.001v13.031a.985.985 0 0 1-.984.985z"/>
    </symbol>
    <symbol id="icon-menu-messages" viewBox="0 0 40 40">
      <path fill-rule="evenodd" clip-rule="evenodd" d="M29.952 29.995H9.974c-2.209 0-2.965-.849-2.965-3.057V15.836l1.993 1.873V25.9c0 1.937.135 2.102 2.093 2.102h16.936c1.957 0 2.985-.165 2.985-2.102v-7.913l1.993-1.862v10.812c0 2.209-.848 3.058-3.057 3.058zm-4.786-12.059S20.973 21 20.004 21c-1.199 0-4.627-2.332-4.627-2.332-.06.031-2.421-1.496-5.574-4.084-.903-.742-2.563-2.079-2.813-2.809 0-1.482.538-2.769 2.942-2.769 6.771 0 14.655-.031 20.057-.031 2.065 0 2.984 1.383 2.984 2.617-.022 1.417-6.451 5.326-7.807 6.344zm4.863-6.931H10.043s-1.358-.416.343 1.184c.984.926 4.685 3.852 4.685 3.852s4.118 2.952 4.944 2.952c.612 0 4.548-3.068 4.548-3.068s3.849-2.73 5.109-3.663c1.84-1.363.357-1.257.357-1.257z"/>
    </symbol>
    <symbol id="icon-menu-profile" viewBox="0 0 40 40">
      <path fill-rule="evenodd" clip-rule="evenodd" d="M32.706 30.149c-1.199 1.573-7.713 1.903-12.804 1.903s-11.41-.33-12.609-1.903a1.393 1.393 0 0 1-.194-1.41c1.168-2.788 3.145-3.44 4.737-3.697 1.327-.215 2.622-.664 3.211-.954.01-.107.013-.602.013-1.133a8.993 8.993 0 0 0 1.594 1.235c-.011.442.252 1.08.252 1.08l-.728.358c-.735.361-1.985.875-3.266 1.074-1.085.168-2.623.41-3.439 2.278.04.042 1.569 1.094 10.438 1.094s10.605-1.051 10.652-1.096c-.823-1.865-2.393-2.139-3.477-2.307-1.297-.202-2.73-.687-3.456-1.049l-.729-.364s.25-.578.243-.975a8.715 8.715 0 0 0 1.605-1.164c.003.256.005.556.005.967.586.292 2.08.74 3.408.956 1.592.257 3.569.91 4.737 3.698.199.473.129.987-.193 1.409zm-12.701-7.115c-3.348 0-6.063-4.374-6.063-8.007 0-4.422 2.028-8.007 6.063-8.007 4.037 0 6.063 3.585 6.063 8.007 0 3.615-2.714 8.007-6.063 8.007zm.017-14.002c-2.652 0-3.986 2.684-3.986 5.994 0 2.72 1.784 5.994 3.986 5.994 2.201 0 3.986-3.288 3.986-5.994-.001-3.31-1.332-5.994-3.986-5.994z"/>
    </symbol>
    <symbol id="icon-menu-settings" viewBox="0 0 40 40">
      <path fill-rule="evenodd" clip-rule="evenodd" d="M32.023 24.906a2.009 2.009 0 0 0-3.41.094 2.008 2.008 0 0 0 .746 2.74c.275.159.57.228.867.249a12.984 12.984 0 0 1-8.467 4.871 2.008 2.008 0 0 0-1.803-2.874 2.008 2.008 0 0 0-1.811 2.86 12.985 12.985 0 0 1-8.371-4.858 2.007 2.007 0 0 0 1.535-2.994 2.007 2.007 0 0 0-2.746-.724 2.037 2.037 0 0 0-.62.559 12.915 12.915 0 0 1-.001-9.656 2.009 2.009 0 0 0 3.367-.163 2.008 2.008 0 0 0-1.538-2.994 12.99 12.99 0 0 1 8.369-4.861 2.008 2.008 0 0 0 1.816 2.85 2.008 2.008 0 0 0 1.808-2.865 12.985 12.985 0 0 1 8.465 4.874 1.984 1.984 0 0 0-.87.249 2.008 2.008 0 0 0-.746 2.74 2.007 2.007 0 0 0 3.411.092 12.92 12.92 0 0 1 .969 4.904c0 1.739-.35 3.393-.97 4.907zm-1.269-6.877c-1.522.131-3.05-.587-3.859-1.989-.807-1.397-.667-3.073.2-4.324-.999-.854-2.135-1.553-3.397-2.006-.643 1.396-2.036 2.37-3.663 2.37-1.635 0-3.036-.982-3.674-2.389-1.266.447-2.406 1.142-3.41 1.992.893 1.255 1.043 2.951.229 4.361-.82 1.421-2.381 2.142-3.926 1.981-.118.643-.194 1.299-.194 1.976s.077 1.334.194 1.976c1.545-.16 3.106.561 3.926 1.981.814 1.41.664 3.106-.229 4.361 1.005.85 2.145 1.545 3.412 1.993.637-1.411 2.037-2.396 3.672-2.396 1.627 0 3.02.977 3.661 2.377 1.263-.453 2.399-1.153 3.399-2.007-.867-1.251-1.006-2.927-.2-4.324.809-1.402 2.337-2.12 3.859-1.989a10.95 10.95 0 0 0 .194-1.972c0-.675-.077-1.33-.194-1.972zm-10.72 6.953a4.98 4.98 0 1 1 0-9.96 4.98 4.98 0 0 1 0 9.96zm.01-8.036a3.056 3.056 0 1 0 0 6.111 3.056 3.056 0 0 0 0-6.111z"/>
    </symbol>
    <symbol id="icon-menu-stream" viewBox="0 0 40 40">
      <path fill-rule="evenodd" clip-rule="evenodd" d="M30.357 20.859s-2.681 1.095-5.31 1.095c-4.066 0-6.141-1.973-8.946-1.973-3.301 0-4.857.935-4.857.935a.99.99 0 0 1-.602-1.886s2.547-1.044 5.369-1.044c2.783 0 6.279 1.94 8.981 1.94 2.763 0 4.75-.948 4.75-.948a.99.99 0 0 1 .615 1.881zm0-7s-2.681 1.095-5.31 1.095c-4.066 0-6.141-1.973-8.946-1.973-3.301 0-4.857.935-4.857.935a.99.99 0 1 1-.602-1.886s2.547-1.044 5.369-1.044c2.783 0 6.279 1.941 8.981 1.941 2.763 0 4.75-.948 4.75-.948a.99.99 0 0 1 .615 1.88zM10.642 26.09s2.547-1.044 5.369-1.044c2.783 0 6.279 1.94 8.981 1.94 2.763 0 4.75-.948 4.75-.948a.99.99 0 0 1 .615 1.882s-2.681 1.095-5.31 1.095c-4.066 0-6.141-1.974-8.946-1.974-3.301 0-4.857.935-4.857.935a.99.99 0 0 1-.602-1.886z"/>
    </symbol>
    <symbol id="icon-mob-similar" viewBox="0 0 11.01 11.01">
      <path fill-rule="evenodd" clip-rule="evenodd" d="M5.505 10.998a5.493 5.493 0 1 1 0-10.985 5.493 5.493 0 0 1 0 10.985zm2.363-8.98l-4.97 3.967 1.61.021-1.554 2.969 5.005-3.982-1.597-.006 1.506-2.969z"/>
    </symbol>
    <symbol id="icon-mobile_back" viewBox="0 0 24.042 24.042">
      <path fill-rule="evenodd" clip-rule="evenodd" fill="#FFF" d="M15.748 6.724l-5.375 5.345 5.366 5.248a1 1 0 0 1-1.414 1.414l-6.037-5.904a.992.992 0 0 1-.191-1.127.984.984 0 0 1 .238-.426l5.998-5.965a.999.999 0 0 1 1.414 0 1 1 0 0 1 .001 1.415z"/>
    </symbol>
    <symbol id="icon-mobile_edit" viewBox="0 0 24.042 24.042">
      <path fill-rule="evenodd" clip-rule="evenodd" d="M11.35 20.01l1.61-1.945h8.118v1.945H11.35zm-2.69.026H4.052v-4.56l9.475-10.248c.147-.148.34-.22.533-.22s.386.072.533.219l3.254 3.28c.148.148.22.34.22.534a.75.75 0 0 1-.22.534L8.66 20.036zm5.435-12.593l-7.956 8.896-.068 1.677 1.723.033 7.911-9.034-1.61-1.572z"/>
    </symbol>
    <symbol id="icon-mobile_menu" viewBox="0 0 24.042 24.042">
      <path fill-rule="evenodd" clip-rule="evenodd" d="M19.005 14.036a2.03 2.03 0 1 1 0-4.061 2.03 2.03 0 0 1 0 4.061zm-7 0a2.03 2.03 0 1 1 0-4.061 2.03 2.03 0 0 1 0 4.061zm-6.984.032a2.017 2.017 0 1 1 .001-4.033 2.017 2.017 0 0 1-.001 4.033z"/>
    </symbol>
    <symbol id="icon-more" viewBox="0 0 39.991 40">
      <path fill-rule="evenodd" clip-rule="evenodd" d="M30.604 21.99a2.53 2.53 0 1 1 0-5.062 2.53 2.53 0 0 1 0 5.062zm-10 0a2.53 2.53 0 1 1 0-5.062 2.53 2.53 0 0 1 0 5.062zm-10-.009a2.524 2.524 0 1 1 .001-5.047 2.524 2.524 0 0 1-.001 5.047z"/>
    </symbol>
    <symbol id="icon-new-message" viewBox="0 0 40 40">
      <path fill-rule="evenodd" clip-rule="evenodd" d="M16.924 26.992h-4.896l.011-4.916 9.873-10.865a.747.747 0 0 1 .533-.22.75.75 0 0 1 .533.219l3.781 3.49c.148.148.22.34.22.534a.75.75 0 0 1-.22.534l-9.835 11.224zm5.556-13.565l-8.447 9.512-.006 2.064 2.032.002 8.558-9.797-2.137-1.781zm-2.472 11.602h6.031a.97.97 0 0 1 0 1.938h-6.031a.97.97 0 0 1 0-1.938z"/>
    </symbol>
    <symbol id="icon-new_features" viewBox="0 0 40 40">
      <path fill-rule="evenodd" clip-rule="evenodd" fill="#F3D0FC" d="M27.549 26.012s-.92-.948-2.117-1.182c-.616-.12-1.357-.026-1.821.06-.483.487-.996.885-1.53 1.119-.979.019-2.941.014-4.053.004-.599-.217-1.164-.618-1.685-1.132-.465-.083-1.179-.169-1.776-.052-1.197.233-2.117 1.182-2.117 1.182l-.989-8.045 2.066-.693c.187-3.907 2.759-7.26 6.534-9.244 3.653 1.986 6.25 5.45 6.44 9.254l2.036.683-.988 8.046zm-3.084-7.426c.041-.324.064-.641.064-.944 0-2.875-1.931-5.656-4.477-7.342-2.48 1.727-4.602 4.182-4.592 7.342.001.25.024.514.052.779l-2.022.753.677 4.114s.439-.323 1.427-.372c.336-.017 1.182.1 1.744.185.358.419.751.739 1.17.9.788-.001 2.381.01 3.069-.003.376-.176.733-.494 1.065-.894.562-.086 1.424-.205 1.765-.188.988.049 1.427.372 1.427.372l.676-4.114-2.045-.588zm-4.434-.467c-.846 0-1.531-.706-1.531-1.578 0-.872.686-1.578 1.531-1.578.846 0 1.531.707 1.531 1.578 0 .871-.685 1.578-1.531 1.578zM16.5 26.963c.57 0 1.031.469 1.031 1.047a1.04 1.04 0 0 1-1.031 1.047 1.04 1.04 0 0 1-1.031-1.047c0-.579.462-1.047 1.031-1.047zm3.516 1c.854 0 1.547.469 1.547 1.047s-.693 1.047-1.547 1.047-1.547-.469-1.547-1.047c0-.579.692-1.047 1.547-1.047zm3.484-1a1.04 1.04 0 0 1 1.031 1.047c0 .578-.462 1.047-1.031 1.047s-1.031-.469-1.031-1.047c0-.579.462-1.047 1.031-1.047z"/>
    </symbol>
    <symbol id="icon-pass" viewBox="0 0 26.036 26.013">
      <path fill-rule="evenodd" clip-rule="evenodd" d="M14.44 12.998l9.338 9.338c.376.376.323 1.04-.054 1.416l-.007.007a.964.964 0 0 1-1.363 0l-9.337-9.337-9.336 9.351a.964.964 0 0 1-1.363 0l-.007-.007c-.376-.376-.43-1.04-.054-1.416l9.336-9.351-9.295-9.296a.964.964 0 0 1 0-1.363l.007-.007c.376-.376 1.04-.43 1.416-.054l9.295 9.295 9.298-9.312c.376-.376 1.04-.323 1.416.054l.007.007a.964.964 0 0 1 0 1.363l-9.297 9.312z"/>
    </symbol>
    <symbol id="icon-persice-match-percent-blue" viewBox="0 0 39.991 40">
      <path fill-rule="evenodd" clip-rule="evenodd" fill="#FFF" d="M19.565 6.031c5.982 0 11.64 3.871 13.446 9.245.456 1.358-1.936-.272-1.936 5.302 0 6.356-5.153 11.509-11.509 11.509S8.057 26.934 8.057 20.578c.29-5.414-2.562-3.977-2.095-5.349C7.78 9.88 13.6 6.031 19.565 6.031z"/><path fill-rule="evenodd" clip-rule="evenodd" fill="#39c9f5" d="M19.489 33.083c-6.895 0-12.484-5.589-12.484-12.484S12.594 8.115 19.489 8.115s12.484 5.589 12.484 12.484-5.589 12.484-12.484 12.484zm.058-23.016c-5.817 0-10.532 4.715-10.532 10.532s4.715 10.532 10.532 10.532c5.816 0 10.532-4.715 10.532-10.532s-4.716-10.532-10.532-10.532z"/><path fill-rule="evenodd" clip-rule="evenodd" fill="#39c9f5" d="M23.003 14.091l-8.031 7.44 2.982.571-3.055 6.028 9.141-7.533-3.016-.543 1.979-5.963z"/>
    </symbol>
    <symbol id="icon-persice-match-percent" viewBox="0 0 39.991 40">
      <path fill-rule="evenodd" clip-rule="evenodd" fill="#FFF" d="M19.565 6.031c5.982 0 11.64 3.871 13.446 9.245.456 1.358-1.936-.272-1.936 5.302 0 6.356-5.153 11.509-11.509 11.509S8.057 26.934 8.057 20.578c.29-5.414-2.562-3.977-2.095-5.349C7.78 9.88 13.6 6.031 19.565 6.031z"/><path fill-rule="evenodd" clip-rule="evenodd" fill="#8498A3" d="M19.489 33.083c-6.895 0-12.484-5.589-12.484-12.484S12.594 8.115 19.489 8.115s12.484 5.589 12.484 12.484-5.589 12.484-12.484 12.484zm.058-23.016c-5.817 0-10.532 4.715-10.532 10.532s4.715 10.532 10.532 10.532c5.816 0 10.532-4.715 10.532-10.532s-4.716-10.532-10.532-10.532z"/><path fill-rule="evenodd" clip-rule="evenodd" fill="#8498A3" d="M23.003 14.091l-8.031 7.44 2.982.571-3.055 6.028 9.141-7.533-3.016-.543 1.979-5.963z"/>
    </symbol>
    <symbol id="icon-persice" viewBox="0 0 24.021 24.018">
      <path fill-rule="evenodd" clip-rule="evenodd" fill="#FFF" d="M12.004.018c6.627 0 12 5.373 12 12s-5.373 12-12 12-12-5.373-12-12 5.372-12 12-12z"/><path fill-rule="evenodd" clip-rule="evenodd" fill="#1AC1FB" d="M12.004 24.018c-6.627 0-12-5.373-12-12s5.373-12 12-12 12 5.373 12 12-5.373 12-12 12zm-.001-22.984c-6.066 0-10.984 4.918-10.984 10.984s4.918 10.984 10.984 10.984 10.984-4.918 10.984-10.984S18.07 1.034 12.003 1.034zm8.046 14.97l-8.899.001 2.605-.707-.865-1.09 1.257-.31-1.523-1.047.982-.586-1.351-1.169.667-.445s-.47-.861-.666-1.802l-2.527 4.259-1.475-.624-2.555 3.484-.432-.023-.04.021 2.564-5.035 1.226.664 3.183-5.63 7.779 9.955-.063-.058.133.142z"/>
    </symbol>
    <symbol id="icon-picture" viewBox="0 0 40 40">
      <path d="M15.06 17.977a4 4 0 1 0 0-8 4 4 0 0 0 0 8zm0-5.984a1.984 1.984 0 1 1 0 3.969 1.984 1.984 0 0 1 0-3.969zM32.083 5h-23a3 3 0 0 0-3 3.001v23a3 3 0 0 0 3 2.999h23a3 3 0 0 0 3-2.999v-23a3 3 0 0 0-3-3.001zm1 25a2 2 0 0 1-2 2h-21a2 2 0 0 1-2-2V9a2 2 0 0 1 2-2h21a2 2 0 0 1 2 2v21zm-14.105-3.363a.955.955 0 0 0 0-1.351l-2.789-2.788a.952.952 0 0 0-1.285-.507.94.94 0 0 0-.355.217c-.038.038-.054.086-.084.128l-4.126 4.024a.96.96 0 0 0 1.356 1.356l3.556-3.454 2.376 2.376a.956.956 0 0 0 1.351-.001zm8.983-5.017a.951.951 0 0 0-1.286-.504.938.938 0 0 0-.354.218c-.037.037-.053.084-.083.125l-6.9 6.9a.958.958 0 1 0 1.356 1.356l6.327-6.327 2.454 2.454a.957.957 0 0 0 1.352-1.352l-2.866-2.87z"/>
    </symbol>
    <symbol id="icon-plus-big" viewBox="0 0 39.991 40">
      <path fill-rule="evenodd" clip-rule="evenodd" d="M28.029 20.026l-7.021.005-.01 6.974a1 1 0 0 1-2 0l.01-6.98-7.047-.016a1 1 0 0 1 0-2l7.05.016.01-7.051a1 1 0 0 1 2 0l-.01 7.057 7.018-.005a1 1 0 0 1 0 2z"/>
    </symbol>
    <symbol id="icon-plus" viewBox="0 0 39.991 40">
      <path fill-rule="evenodd" clip-rule="evenodd" d="M24.935 21.005l-3.955.006.003 3.926a1 1 0 0 1-2 0l-.003-3.902-3.924-.015a1 1 0 0 1 0-2l3.923.015-.003-3.972a1 1 0 0 1 2 0l.003 3.947 3.957-.006a1 1 0 1 1-.001 2.001z"/>
    </symbol>
    <symbol id="icon-recommended" viewBox="0 0 40 40">
      <path fill-rule="evenodd" clip-rule="evenodd" fill="#BBEDFC" d="M26.421 28.993s-.669-.082-1.795-1.103c-.684-.62-1.461-1.374-1.973-1.87-1.405-1.361-2.198-2.011-2.648-2.011-.428 0-1.444.849-2.732 2.125a50.021 50.021 0 0 1-2.085 1.941c-1.036.909-1.609.918-1.609.918-1.104 0-1.576-.895-1.576-2V11.998a2 2 0 0 1 2-2h11.994a2 2 0 0 1 2 2v14.994c0 1.105-.471 2.001-1.576 2.001zm-.402-17.022H14.001v14.628s.47-.526 2.847-2.787c1.404-1.336 1.956-1.859 3.128-1.859 1.214 0 1.61.362 3.257 1.908 1.714 1.609 2.748 2.722 2.788 2.77v-14.66zm-3.447 9.036l-2.59-1.916-2.615 1.882 1.021-3.056-2.598-1.937 3.222-.004 1.01-2.997.97 3.01 3.222.015-2.622 1.934.98 3.069z"/>
    </symbol>
    <symbol id="icon-reminder" viewBox="0 0 40 40">
      <path fill-rule="evenodd" clip-rule="evenodd" fill="#F9D6CF" d="M21.077 26.011h-2.086c-4.871 0-6.988-.152-6.988-3.459l2.999-4.344c0-3.133-.01-6.802 4.032-7.179v-.94a.993.993 0 1 1 1.986 0v.945c4.014.421 4.101 4.063 4.101 7.174l2.944 4.344c0 3.307-2.07 3.459-6.988 3.459zm1.916-7.293c0-2.639.429-5.681-2.96-5.681-3.481 0-2.982 3.067-2.982 5.706l-3.023 4.256c0 .864 1.89 1.039 6.005 1.039 4.337 0 6.004-.233 6.004-.962l-3.044-4.358zm-1.2 8.43a1.845 1.845 0 1 1-3.69 0c1.282-.15 2.409-.15 3.69 0z"/>
    </symbol>
    <symbol id="icon-search-mobile" viewBox="0 0 24 24">
      <path fill-rule="evenodd" clip-rule="evenodd" d="M20.982 19.57l-1.414 1.414-4.464-4.464c-1.268.968-2.833 1.566-4.551 1.566a7.536 7.536 0 0 1 0-15.071 7.535 7.535 0 0 1 7.535 7.536c0 1.72-.599 3.287-1.57 4.556l4.464 4.463zM10.552 5.016a5.534 5.534 0 1 0 0 11.068 5.534 5.534 0 0 0 0-11.068z"/>
    </symbol>
    <symbol id="icon-search" viewBox="0 0 40 40">
      <path fill-rule="evenodd" clip-rule="evenodd" d="M30.045 28.684l-1.536 1.28-5.955-6.722a8.439 8.439 0 0 1-5.074 1.695 8.49 8.49 0 1 1 6.53-3.067l6.035 6.814zM17.478 9.96c-3.582 0-6.486 2.904-6.486 6.487a6.486 6.486 0 1 0 6.486-6.487z"/>
    </symbol>
    <symbol id="icon-searching_cards" viewBox="0 0 44 44.01">
      <path fill-rule="evenodd" clip-rule="evenodd" fill="#39C9F5" d="M43.799 41.692l-2.099 2.1-9.361-9.361a18.9 18.9 0 0 1-12.327 4.561C9.523 38.991 1.021 30.489 1.021 20c0-10.488 8.503-18.992 18.991-18.992S39.003 9.512 39.003 20a18.9 18.9 0 0 1-4.565 12.331l9.361 9.361zM19.997 4.024c-8.857 0-16.037 7.181-16.037 16.038s7.18 16.037 16.037 16.037 16.037-7.18 16.037-16.037-7.18-16.038-16.037-16.038z"/>
    </symbol>
    <symbol id="icon-similarity-event" viewBox="0 0 24 24">
      <path fill-rule="evenodd" clip-rule="evenodd" d="M12 22.037C6.457 22.037 1.963 17.543 1.963 12S6.457 1.963 12 1.963 22.037 6.457 22.037 12 17.543 22.037 12 22.037zm-.002-18.046a8.005 8.005 0 1 0 0 16.01 8.005 8.005 0 0 0 0-16.01zm-3.96 13.916l3.128-4.935-2.565-.429 7.346-6.493-2.14 4.941 2.625.467-8.394 6.449z"/>
    </symbol>
    <symbol id="icon-small-fb" viewBox="0 0 17 17">
      <path fill-rule="evenodd" clip-rule="evenodd" fill="#A7AFB3" d="M8.5 15.937c-4.116 0-7.453-3.33-7.453-7.437S4.384 1.063 8.5 1.063s7.453 3.329 7.453 7.437-3.337 7.437-7.453 7.437zm2.095-11.961H8.963c-1.14 0-2.022.826-2.022 1.709v1.313h-.94v2.05h.927v3.975h2.077V9.047h1.224l.211-2.05H9.007l.003-.542c0-.421.26-.399.758-.399h.827v-2.08z"/>
    </symbol>
    <symbol id="icon-small-in" viewBox="0 0 17 17">
      <path fill-rule="evenodd" clip-rule="evenodd" fill="#A7AFB3" d="M8.483 15.948c-4.121 0-7.462-3.334-7.462-7.446s3.341-7.446 7.462-7.446 7.462 3.334 7.462 7.446c.001 4.112-3.34 7.446-7.462 7.446zm-4.541-3.886h2.023V6.036H3.942v6.026zM5.7 3.277c-.219-.2-.295-.301-.613-.301s-.586.1-.804.301a.963.963 0 0 0-.328.738c0 .291.109.537.328.738.219.201.487.301.804.301s.394-.1.612-.301a.963.963 0 0 0 .328-.738.962.962 0 0 0-.327-.738zm7.238 4.865c0-.703-.358-1.091-.762-1.513-.404-.422-1.17-.608-1.768-.608-.598 0-1.007.15-1.485.635v-.62H6.955v6.027h1.967V8.561c0-.443.118-.753.353-.981.236-.228.383-.343.7-.343.64 0 .938.432.938 1.304v3.521h2.024v-3.92z"/>
    </symbol>
    <symbol id="icon-success-2" viewBox="0 0 19 19">
      <path fill-rule="evenodd" clip-rule="evenodd" fill="#FFF" d="M16.763 3.665L7.958 16.346a1.067 1.067 0 0 1-.23.369l-.008.007c-.1.1-.217.169-.341.216a.963.963 0 0 1-1.058-.202l-.007-.007c-.061-.06-.098-.137-.141-.21l-4.936-5.853a.964.964 0 0 1 0-1.363l.007-.007c.376-.376 1.04-.43 1.416-.054l4.269 5.117 8.41-12.117c.376-.376 1.04-.323 1.416.054l.007.007a.96.96 0 0 1 .001 1.362z"/>
    </symbol>
    <symbol id="icon-success" viewBox="0 0 39.991 40">
      <path fill-rule="evenodd" clip-rule="evenodd" d="M20.832 24.684c-.232.231-.536.34-.84.335a1.136 1.136 0 0 1-.853-.328l-5.876-4.737a1.147 1.147 0 1 1 1.623-1.622l5.041 4.063L31.165 9.464c.452-.452 1.079-.62 1.53-.168l.018.018c.452.452.358 1.184-.094 1.636L20.832 24.684zm-.867-16.649c-6.622 0-11.99 5.368-11.99 11.99s5.368 11.99 11.99 11.99 11.99-5.368 11.99-11.99a11.98 11.98 0 0 0-.551-3.598l1.536-1.851a13.957 13.957 0 0 1 1.091 5.425c0 7.743-6.284 14.02-14.036 14.02S5.959 27.744 5.959 20.001c0-7.743 6.284-14.02 14.036-14.02 3.108 0 5.97 1.021 8.296 2.729l-1.401 1.539a11.913 11.913 0 0 0-6.925-2.214z"/>
    </symbol>
    <symbol id="icon-switch-calendar" viewBox="0 0 39.991 40">
      <path fill-rule="evenodd" clip-rule="evenodd" d="M27.958 28.031H13.98c-2.209 0-2.965-.849-2.965-3.057v-8.973l1.993.002v7.934c0 1.937.135 2.102 2.092 2.102h10.936c1.957 0 1.987-.165 1.987-2.102v-7.92l1.993.002v8.955c.001 2.209.151 3.057-2.058 3.057zm-7.963-4.984v-4.014h-.978v-1.985h2.978v5.998h-2zm-8.948-13.042h2.969v2.062h4v-2.062h4.969v2.062h4.032l-.003-2.062h2.972v4H11.047v-4zm12.982-.988h1.974v2.013h-1.974V9.017zm-9 0h1.974v2.013h-1.974V9.017z"/>
    </symbol>
    <symbol id="icon-switch-cards" viewBox="0 0 40 40">
      <path fill-rule="evenodd" clip-rule="evenodd" d="M27.984 28.031h-1.969a1 1 0 0 1-1-1v-1.969a1 1 0 0 1 1-1h1.969a1 1 0 0 1 1 1v1.969a1 1 0 0 1-1 1zm0-7h-1.969a1 1 0 0 1-1-1v-1.969a1 1 0 0 1 1-1h1.969a1 1 0 0 1 1 1v1.969a1 1 0 0 1-1 1zm0-7h-1.969a1 1 0 0 1-1-1v-1.969a1 1 0 0 1 1-1h1.969a1 1 0 0 1 1 1v1.969a1 1 0 0 1-1 1zm-7 14h-1.969a1 1 0 0 1-1-1v-1.969a1 1 0 0 1 1-1h1.969a1 1 0 0 1 1 1v1.969a1 1 0 0 1-1 1zm0-7h-1.969a1 1 0 0 1-1-1v-1.969a1 1 0 0 1 1-1h1.969a1 1 0 0 1 1 1v1.969a1 1 0 0 1-1 1zm0-7h-1.969a1 1 0 0 1-1-1v-1.969a1 1 0 0 1 1-1h1.969a1 1 0 0 1 1 1v1.969a1 1 0 0 1-1 1zm-7 14h-1.969a1 1 0 0 1-1-1v-1.969a1 1 0 0 1 1-1h1.969a1 1 0 0 1 1 1v1.969a1 1 0 0 1-1 1zm0-7h-1.969a1 1 0 0 1-1-1v-1.969a1 1 0 0 1 1-1h1.969a1 1 0 0 1 1 1v1.969a1 1 0 0 1-1 1zm0-7h-1.969a1 1 0 0 1-1-1v-1.969a1 1 0 0 1 1-1h1.969a1 1 0 0 1 1 1v1.969a1 1 0 0 1-1 1z"/>
    </symbol>
    <symbol id="icon-switch-map" viewBox="0 0 39.991 40">
      <path fill-rule="evenodd" clip-rule="evenodd" d="M20.517 28.018s-7.495-6.685-7.495-11.493a7.496 7.496 0 1 1 14.99 0c.001 4.809-7.495 11.493-7.495 11.493zm.036-17.045c-3.044 0-5.512 2.624-5.512 5.862 0 3.164 5.512 8.44 5.512 8.44s5.512-5.272 5.512-8.44c0-3.237-2.468-5.862-5.512-5.862zm.052 7.128a1.516 1.516 0 1 1 0-3.033 1.516 1.516 0 0 1 0 3.033z"/>
    </symbol>
    <symbol id="icon-thunder" viewBox="0 0 11.8 17.6">
      <path d="M0 17.6L3.8 10 .5 9.4 10.7 0 8.3 7.3l3.5.6L0 17.6zm2.7-8.8l2.7.5-2.3 4.5 6.5-5.3L7 8l1.5-4.7-5.8 5.5z"/>
    </symbol>
    <symbol id="icon-time-event" viewBox="0 0 24 24">
      <path fill-rule="evenodd" clip-rule="evenodd" d="M12 22.037C6.457 22.037 1.963 17.543 1.963 12 1.963 6.457 6.457 1.963 12 1.963S22.037 6.457 22.037 12c0 5.543-4.494 10.037-10.037 10.037zm-.002-18.046a8.005 8.005 0 1 0 0 16.01 8.005 8.005 0 0 0 0-16.01zm3.27 9.025h-3.631c-.369 0-.668-.451-.668-1.008v-.015c0-.041.012-.077.016-.117V7.008A1.007 1.007 0 0 1 11.992 6h.015c.557 0 1.008.451 1.008 1.008v3.976h2.252c.369 0 .668.451.668 1.008v.015c.001.557-.298 1.009-.667 1.009z"/>
    </symbol>
    <symbol id="icon-tips_tricks" viewBox="0 0 40 40">
      <path fill-rule="evenodd" clip-rule="evenodd" fill="#E1F5CD" d="M30.034 18.093a1.063 1.063 0 0 1-1.071-1.054c0-.582.479-1.054 1.071-1.054.591 0 1.071.472 1.071 1.054 0 .582-.48 1.054-1.071 1.054zm-1.271 7.656a1.064 1.064 0 0 1-1.503.012 1.063 1.063 0 0 1 .012-1.503 1.063 1.063 0 0 1 1.503-.012 1.063 1.063 0 0 1-.012 1.503zm-2.482-14.978a1.062 1.062 0 0 1 .012-1.503 1.063 1.063 0 0 1 1.503-.012 1.063 1.063 0 0 1-.012 1.503 1.063 1.063 0 0 1-1.503.012zm-2.193 12.964v2.281a1 1 0 0 1-1 1h-6.031a1 1 0 0 1-1-1v-2.203a7.039 7.039 0 0 1-3.063-5.812c0-3.892 3.148-7.047 7.031-7.047 3.883 0 7.031 3.155 7.031 7.047.001 2.37-1.177 4.457-2.968 5.734zm-4.091-10.751a4.98 4.98 0 0 0-4.973 4.986c0 2.743 2.21 5.215 4.941 5.483l-1.908-.5v2.063h4v-2.063l-2.028.5c2.449-.266 4.941-2.74 4.941-5.483a4.98 4.98 0 0 0-4.973-4.986zm.052-3.906c-.582 0-1.054-.48-1.054-1.071 0-.592.472-1.071 1.054-1.071.582 0 1.054.479 1.054 1.071s-.472 1.071-1.054 1.071zm-7.761 1.671a1.064 1.064 0 0 1-.012-1.503 1.062 1.062 0 0 1 1.503.012c.418.418.423 1.091.012 1.503a1.064 1.064 0 0 1-1.503-.012zm.487 13.498a1.063 1.063 0 0 1-.012 1.503 1.064 1.064 0 0 1-1.503.012 1.062 1.062 0 0 1 .012-1.503 1.062 1.062 0 0 1 1.503-.012zm-2.741-6.154a1.062 1.062 0 0 1-1.071-1.054c0-.582.479-1.054 1.071-1.054.591 0 1.071.472 1.071 1.054 0 .582-.48 1.054-1.071 1.054zm6.539 9.923h7.156c.267 0 .484.217.484.485v.031a.484.484 0 0 1-.484.484h-1.61l.001.005v.084a.911.911 0 0 1-.911.911h-2.271a.911.911 0 0 1-.911-.911v-.085l.001-.005h-1.454a.484.484 0 0 1-.484-.484V28.5a.481.481 0 0 1 .483-.484z"/>
    </symbol>
    <symbol id="icon-total-similarity" viewBox="0 0 40 40">
      <path fill-rule="evenodd" clip-rule="evenodd" fill="#BCC7CD" d="M20 33.977c-7.728 0-13.994-6.258-13.994-13.977S12.271 6.024 20 6.024 33.994 12.281 33.994 20c0 7.719-6.266 13.977-13.994 13.977zm.013-26.08c-6.671 0-12.08 5.402-12.08 12.065 0 6.663 5.408 12.065 12.08 12.065 6.671 0 12.08-5.402 12.08-12.065-.001-6.663-5.409-12.065-12.08-12.065zm-5.786 20.18l3.513-6.93-3.428-.656 9.233-8.553-2.275 6.855 3.467.624-10.51 8.66z"/>
    </symbol>
    <symbol id="icon-twitter-2" viewBox="-948.3 -188 595.3 595.3">
      <circle fill="#4099FF" cx="-650.7" cy="109.7" r="297.6"/><path fill="#FFF" d="M-540.4 42.8c-4.7 5.9-27.2 9.5-27.2 9.5-18.9-22.5-47.3-9.5-47.3-9.5-37.9 13.1-24.8 48.5-24.8 48.5-56.8-1.2-88.7-50.9-88.7-50.9-17.7 36.7 10.7 61.5 10.7 61.5-5.9 0-17.7-4.7-17.7-4.7 0 33.1 33.1 43.7 33.1 43.7H-720c8.3 27.2 36.7 32 36.7 32-32 23.6-61.5 18.9-61.5 18.9 29.6 23.6 61.5 22.5 81.6 18.9 50.9-8.3 80.4-46.1 80.4-46.1 36.7-46.1 22.5-85.2 28.4-86.4 5.9-3.6 18.9-20.1 18.9-20.1-9.5 4.7-23.6 4.7-23.6 4.7 16.3-5.8 18.7-20 18.7-20z"/>
    </symbol>
    <symbol id="icon-twitter-share" viewBox="0 0 30.026 30">
      <path fill-rule="evenodd" clip-rule="evenodd" d="M5.669 5.278s3.283 5.272 9.333 5.366c0 0-1.348-3.882 2.59-5.154 0 0 2.955-1.271 4.924 1.027 0 0 2.298-.375 2.814-1.079 0 0-.141 1.412-1.735 2.441 0 0 1.454-.002 2.485-.565 0 0-1.451 1.815-2.079 2.098l-.031.013c-.61.234.813 4.315-2.986 9.145 0 0-3.035 4.048-8.41 4.799-2.186.306-5.393.407-8.629-2.032 0 0 3.283.37 6.565-2.069 0 0-3.012-.437-3.809-3.251 0 0 1.548 0 1.876-.047 0 0-3.611-1.272-3.564-4.719 0 0 1.219.539 1.899.469 0 .001-3.048-2.69-1.243-6.442z"/>
    </symbol>
    <symbol id="icon-twitter" viewBox="139.9 193.8 32 32">
      <circle fill="#FFF" cx="155.9" cy="206.7" r="12.9"/><path fill="#4099FF" d="M155.9 225.8c-8.8 0-16-7.2-16-16s7.2-16 16-16 16 7.2 16 16-7.2 16-16 16zm8.3-22.5c-.4.5-2.3.8-2.3.8-1.6-1.9-4-.8-4-.8-3.2 1.1-2.1 4.1-2.1 4.1-4.8-.1-7.5-4.3-7.5-4.3-1.5 3.1.9 5.2.9 5.2-.5 0-1.5-.4-1.5-.4 0 2.8 2.8 3.7 2.8 3.7H149c.7 2.3 3.1 2.7 3.1 2.7-2.7 2-5.2 1.6-5.2 1.6 2.5 2 5.2 1.9 6.9 1.6 4.3-.7 6.8-3.9 6.8-3.9 3.1-3.9 1.9-7.2 2.4-7.3.5-.3 1.6-1.7 1.6-1.7-.8.4-2 .4-2 .4 1.4-.5 1.6-1.7 1.6-1.7z"/>
    </symbol>
    <symbol id="icon-twitter_middle" viewBox="0 0 46 46.001">
      <path fill-rule="evenodd" clip-rule="evenodd" fill="#4099FF" d="M23.006 1h-.012c-12.15 0-22 9.85-22 22s9.85 22 22 22h.012c12.15 0 22-9.85 22-22s-9.85-22-22-22zm9.036 18.125l-.031.013c-.61.234.813 4.315-2.986 9.145 0 0-3.035 4.048-8.41 4.799-2.186.306-5.393.407-8.629-2.032 0 0 3.282.37 6.565-2.069 0 0-3.012-.438-3.809-3.251 0 0 1.547 0 1.876-.047 0 0-3.611-1.272-3.564-4.719 0 0 1.219.539 1.899.469 0 0-3.049-2.691-1.243-6.443 0 0 3.283 5.272 9.333 5.366 0 0-1.348-3.882 2.59-5.154 0 0 2.954-1.271 4.924 1.026 0 0 2.298-.375 2.814-1.079 0 0-.141 1.412-1.735 2.441 0 0 1.454-.002 2.485-.565 0 .003-1.451 1.817-2.079 2.1z"/>
    </symbol>
    <symbol id="icon-user" viewBox="0 0 40 40">
      <path fill-rule="evenodd" clip-rule="evenodd" d="M33.667 31.836c-1.384 1.816-8.904 2.197-14.78 2.197-5.876 0-13.17-.381-14.555-2.197-.371-.487-.453-1.08-.224-1.628 1.348-3.218 3.63-3.971 5.468-4.268 1.532-.248 3.026-.766 3.707-1.101.011-.124.015-.695.015-1.308a10.33 10.33 0 0 0 1.84 1.425l-.024.967-.914.449c-.923.453-2.493 1.06-4.103 1.31-1.363.211-2.903.632-3.928 2.98.05.053 1.578 1.374 12.722 1.374 11.143 0 12.892-1.32 12.951-1.377-1.035-2.343-2.574-2.765-3.937-2.977-1.63-.254-3.431-.863-4.342-1.317l-.916-.457-.016-.844a10.075 10.075 0 0 0 1.853-1.344c.003.296.006.642.006 1.117.677.337 2.401.854 3.934 1.103 1.838.297 4.119 1.049 5.469 4.269a1.61 1.61 0 0 1-.226 1.627zm-14.661-8.791c-3.865 0-6.998-4.94-6.998-9.045 0-4.994 2.341-9.044 6.998-9.044 4.66 0 6.998 4.049 6.998 9.044.001 4.085-3.133 9.045-6.998 9.045zm.02-16.037c-3.35 0-5.034 3.131-5.034 6.992 0 3.174 2.254 6.993 5.034 6.993S24.06 17.157 24.06 14c0-3.862-1.682-6.992-5.034-6.992z"/>
    </symbol>
    <symbol id="linkedin_big" viewBox="0 0 75.982 76">
      <path fill-rule="evenodd" clip-rule="evenodd" fill="#007BB6" d="M37.991 2c19.882 0 36 16.118 36 36s-16.118 36-36 36-36-16.118-36-36 16.118-36 36-36z"/><path fill-rule="evenodd" clip-rule="evenodd" fill="#FFF" d="M44.196 48.027v-8.605c0-2.425-.953-3.45-2.732-3.45-.88 0-1.648.318-2.303.953-.655.636-.954 1.319-.954 2.551v8.55h-3.994v-16.03h3.965v1.885c1.33-1.349 2.826-1.868 4.488-1.868 1.662 0 2.712.618 3.836 1.791 1.124 1.174 1.687 2.551 1.687 4.506v9.717h-3.993zM30.4 30.089c-.633 0-1.167-.2-1.603-.6-.436-.4-.654-.89-.654-1.471 0-.58.218-1.071.654-1.471.436-.4.97-.6 1.603-.6s.785.2 1.221.6c.436.4.654.891.654 1.471 0 .581-.218 1.071-.654 1.471-.437.4-.589.6-1.221.6zm1.808 17.938h-3.994V31.996h3.994v16.031z"/>
    </symbol>
    <symbol id="no-goals" viewBox="0 0 92 92">
      <path fill-rule="evenodd" clip-rule="evenodd" fill="#39C9F5" d="M2.132 82.989l-.197.102 18.597-25.498 5.661 2.8 19.925-28.14L90.19 83.081l-88.058-.092z"/><path fill-rule="evenodd" clip-rule="evenodd" fill="#32B2D9" d="M46.038 32.845L90.19 83.091l-44.541-.037 5.089-6.654-4.668-12.333 3.883-3.888-3.907-6.89-.008-20.444zM19.88 79.706l3.334-2.652-2.129-5.099V58.114l20.968 24.915-20.403-.015-1.77-3.308z"/><path fill-rule="evenodd" clip-rule="evenodd" fill="#C2E8F4" d="M49.618 42.336l-3.528 7.6V34.057l12.762 14.522-9.234-6.243zm-28.525 28.62V59.06l9.561 10.88-6.918-4.677-2.643 5.693z"/><path fill-rule="evenodd" clip-rule="evenodd" fill="#F16861" d="M61.055 16.959H47.983V9.003h13.072l-5.133 3.936 5.133 4.02zM46 29.973a.994.994 0 0 1-.995-.995V8.988a.994.994 0 1 1 1.99 0v19.99a.995.995 0 0 1-.995.995z"/>
    </symbol>
    <symbol id="no-offers" viewBox="0 0 92 92">
      <path fill-rule="evenodd" clip-rule="evenodd" fill="#5D696E" d="M72.387 21.287c-3.473 3.152-8.281 2.725-8.281 2.725h-7.32v-3.313s7.629 1.16 11.38-1.656c2.685-2.015 2.885-5.076 2.885-5.076h4.862c.001 0-.053 4.167-3.526 7.32zm-53.785 0c-3.473-3.152-3.526-7.32-3.526-7.32h4.862s.2 3.06 2.885 5.076c3.752 2.816 11.38 1.656 11.38 1.656v3.313h-7.32c.001 0-4.808.427-8.281-2.725z"/><path fill-rule="evenodd" clip-rule="evenodd" fill="#6B7A80" d="M62.69 21.447c-4.376 4.487-14.758 3.321-17.551 2.911-2.723.409-12.85 1.576-17.226-2.911-4.234-4.342-4.284-11.088.058-15.322s11.293-4.146 15.527.195c.677.695 1.21 1.535 1.631 2.462.422-.927.954-1.767 1.631-2.462 4.234-4.342 11.392-4.429 15.734-.195s4.43 10.98.196 15.322zM39.936 9.77a5.992 5.992 0 0 0-8.473-.107c-2.369 2.31-2.348 6.035-.038 8.404 2.771 2.842 10.168 1.915 10.168 1.915s1.063-7.423-1.657-10.212zm19.066-.107a5.908 5.908 0 0 0-8.404.107c-2.72 2.789-1.657 10.213-1.657 10.213s7.396.927 10.168-1.915a5.91 5.91 0 0 0-.107-8.405z"/><path fill-rule="evenodd" clip-rule="evenodd" fill="#A6E16C" d="M83.061 41.972v45.046a3 3 0 0 1-3 3H11.04a3 3 0 0 1-3-3V41.974a2.998 2.998 0 0 1-2.967-2.997V27.031a3 3 0 0 1 3-3H83.01a3 3 0 0 1 3 3v11.947a2.996 2.996 0 0 1-2.949 2.994z"/><path fill-rule="evenodd" clip-rule="evenodd" fill="#76868C" d="M51.967 24.031v17.961H38.974V24.031h12.993z"/><path fill-rule="evenodd" clip-rule="evenodd" fill="#6B7A80" d="M51.967 41.992v47.961H38.974V41.992h12.993z"/><path opacity=".2" fill-rule="evenodd" clip-rule="evenodd" fill="#4B5E38" d="M8.068 41.992l-.009 5.853s26.46-2.262 44.044-.909c9.778.752 30.913 3.152 30.913 3.152l.007-8.083-74.955-.013z"/>
    </symbol>
    <symbol id="start_conversation" viewBox="0 0 94 94">
      <path fill-rule="evenodd" clip-rule="evenodd" fill="#EDD77F" d="M49.572 7.913l40.501 26.199c.846.845.805.79.911 2.475l.024 1.189s-.142 2.166-2.286 2.166c-11.252 0-70.164.027-82.174.027-2.181 0-2.435-2.316-2.435-2.316v-.924c-.033-1.596.262-1.772 1.108-2.617l41.29-26.199a2.163 2.163 0 0 1 3.061 0z"/><path fill-rule="evenodd" clip-rule="evenodd" fill="#E2A130" d="M6.497 34.875h82.112c.772 0 1.397.625 1.397 1.397v2.3c0 .771-.626 1.397-1.397 1.397H6.497A1.396 1.396 0 0 1 5.1 38.572v-2.3c0-.771.626-1.397 1.397-1.397z"/><path fill-rule="evenodd" clip-rule="evenodd" fill="#DBDBDB" d="M11.017 2.029h73.072v69.248H11.017V2.029z"/><path fill-rule="evenodd" clip-rule="evenodd" fill="#FFF" d="M12.184 3.029h70.962v69.248H12.184V3.029z"/><path fill-rule="evenodd" clip-rule="evenodd" fill="#E4E6E9" d="M18.01 63.99v-2h59v2h-59zm0-12h59v2h-59v-2zm0-10h59v2h-59v-2zm0-10h59v2h-59v-2zm0-10h59v2h-59v-2zm0-10h42v2h-42v-2z"/><path fill-rule="evenodd" clip-rule="evenodd" fill="#F4E29A" d="M5.388 35.427l40.779 28.81h3.704l39.85-28.81c1.105 0 1.297 1.432 1.297 2.536v51a2 2 0 0 1-2 2H6.088a2 2 0 0 1-2-2v-51c0-1.104.195-2.536 1.3-2.536z"/><path fill-rule="evenodd" clip-rule="evenodd" fill="#F0CC5D" d="M49.684 53.908l40.501 31.199c.845.845.845.845.833 2.575v.859s.216 2.395-2.184 2.395c-11.252 0-70.309.027-82.319.027-2.572 0-2.427-2.181-2.427-2.181v-.856c-.033-1.596.399-1.975 1.244-2.82l41.289-31.199a2.166 2.166 0 0 1 3.063.001z"/>
    </symbol>
    <symbol id="twitter_big" viewBox="0 0 75.982 76">
      <path fill-rule="evenodd" clip-rule="evenodd" fill="#4099FF" d="M37.991 1.939c19.882 0 36 16.118 36 36s-16.118 36-36 36-36-16.118-36-36c0-19.883 16.118-36 36-36z"/><path fill-rule="evenodd" clip-rule="evenodd" fill="#FFF" d="M26.807 27.001s3.943 6.333 11.21 6.445c0 0-1.619-4.663 3.111-6.19 0 0 3.549-1.527 5.915 1.233 0 0 2.76-.451 3.38-1.295 0 0-.169 1.696-2.084 2.932 0 0 1.746-.003 2.985-.679 0 0-1.743 2.18-2.497 2.519l-.037.016c-.733.281.976 5.183-3.587 10.984 0 0-3.645 4.862-10.102 5.764-2.626.367-6.478.489-10.364-2.44 0 0 3.943.444 7.886-2.485 0 0-3.618-.526-4.576-3.905 0 0 1.859 0 2.253-.056 0 0-4.337-1.528-4.281-5.668 0 0 1.465.648 2.281.563 0 0-3.662-3.233-1.493-7.738z"/>
    </symbol></svg>