<svg xmlns="http://www.w3.org/2000/svg" width="40" height="40" viewBox="0 0 40 40"><path fill-rule="evenodd" clip-rule="evenodd" fill="#fff" d="M12.088 19.326a.987.987 0 0 1-.062-.307c-.002-.023-.013-.043-.013-.067 0-.017.009-.032.01-.049.005-.061.02-.119.036-.179a.971.971 0 0 1 .247-.47c.007-.007.008-.017.016-.024l5.965-5.94a.999.999 0 1 1 1.414 1.414l-4.283 4.265h12.639a.983.983 0 1 1 0 1.969H15.4l4.349 4.324a.999.999 0 1 1-1.414 1.414l-6.029-5.994a.965.965 0 0 1-.212-.341l-.006-.015z"/></svg>