<svg xmlns="http://www.w3.org/2000/svg" width="40" height="40" viewBox="0 0 40 40"><path fill-rule="evenodd" clip-rule="evenodd" fill="#fff" d="M28.965 18.637a.96.96 0 0 1 .062.307c.002.023.014.043.014.067 0 .017-.009.032-.01.049-.005.061-.02.119-.036.179a.971.971 0 0 1-.247.47c-.007.007-.008.017-.015.024l-5.965 5.94a.999.999 0 1 1-1.414-1.414l4.283-4.265h-12.64a.983.983 0 1 1 0-1.969h12.656l-4.349-4.324a.999.999 0 1 1 1.414-1.414l6.029 5.995c.1.1.164.218.212.341.004.006.004.01.006.014z"/></svg>