<svg xmlns="http://www.w3.org/2000/svg" style="width:0; height:0; visibility:hidden;">
    <symbol id="icon-accepted" viewBox="0 0 27.036 27.013">
      <path fill-rule="evenodd" clip-rule="evenodd" fill="#FFF" d="M25.782 3.734l-13.806 19.68a1.038 1.038 0 0 1-.23.37l-.007.007c-.1.1-.218.17-.342.217a.963.963 0 0 1-1.058-.202l-.007-.007c-.06-.06-.098-.137-.14-.21l-8.937-9.853a.964.964 0 0 1 0-1.363l.007-.007c.376-.376 1.04-.43 1.416-.054l8.268 9.118L24.358 2.31c.376-.375 1.04-.322 1.416.055l.007.007a.962.962 0 0 1 .002 1.362z"/>
    </symbol>
    <symbol id="icon-arrow_down" viewBox="0 0 40 40">
      <path fill-rule="evenodd" clip-rule="evenodd" d="M28.748 16.645l-6.97 7.024a.98.98 0 0 1-.348.222.998.998 0 0 1-1.088-.217l-7.04-7.014a1 1 0 1 1 1.415-1.413l6.336 6.314 6.28-6.328a1 1 0 1 1 1.415 1.413z"/>
    </symbol>
    <symbol id="icon-arrow_left" viewBox="0 0 39.991 40">
      <path fill-rule="evenodd" clip-rule="evenodd" d="M21.396 26.785l-7.024-6.97a.98.98 0 0 1-.223-.348.998.998 0 0 1 .216-1.088l7.014-7.04a1 1 0 1 1 1.414 1.414L16.48 19.09l6.33 6.28a1 1 0 1 1-1.414 1.415z"/>
    </symbol>
    <symbol id="icon-arrow_right" viewBox="0 0 40 40">
      <path d="M18.2 11.7l7 7c.1.1.2.2.2.3.1.4.1.8-.2 1.1l-7 7c-.4.4-1 .4-1.4 0-.4-.4-.4-1 0-1.4l6.3-6.3-6.3-6.3c-.4-.4-.4-1 0-1.4.4-.4 1-.4 1.4 0z"/>
    </symbol>
    <symbol id="icon-arrow_swipe_left" viewBox="0 0 40 40">
      <path fill-rule="evenodd" clip-rule="evenodd" fill="#67757d" d="M12.088 19.326a.987.987 0 0 1-.062-.307c-.002-.024-.013-.044-.013-.068 0-.017.01-.032.01-.05.005-.06.02-.118.036-.178a.97.97 0 0 1 .246-.47c.007-.007.008-.017.016-.024l5.965-5.94a1 1 0 1 1 1.414 1.414L15.42 17.97h12.64a.983.983 0 0 1 0 1.968H15.4l4.35 4.324a1 1 0 1 1-1.415 1.414l-6.03-5.994a.965.965 0 0 1-.21-.34l-.007-.016z"/>
    </symbol>
    <symbol id="icon-arrow_swipe_right" viewBox="0 0 40 40">
      <path fill-rule="evenodd" clip-rule="evenodd" fill="#67757d" d="M28.965 18.637a.96.96 0 0 1 .062.307c.002.023.014.043.014.067 0 .018-.008.033-.01.05-.004.06-.02.12-.035.18a.97.97 0 0 1-.247.47c-.007.006-.008.016-.015.023l-5.965 5.94a1 1 0 1 1-1.414-1.414l4.283-4.266h-12.64a.983.983 0 0 1 0-1.97h12.656l-4.35-4.323a1 1 0 1 1 1.415-1.413l6.03 5.995c.1.1.163.218.21.34.005.007.005.01.007.015z"/>
    </symbol>
    <symbol id="icon-checker" viewBox="0 0 13 13">
      <path fill-rule="evenodd" clip-rule="evenodd" d="M10.726 3.698l-4.904 7.037a.99.99 0 0 1-1.15.175.996.996 0 0 1-.348-.223L1.36 7.69a1 1 0 0 1 1.414-1.415l2.204 2.228 4.334-6.22A1 1 0 1 1 10.726 3.7z"/>
    </symbol>
    <symbol id="icon-clock" viewBox="0 0 39.991 40">
      <path fill-rule="evenodd" clip-rule="evenodd" d="M19.995 30.037c-5.543 0-10.037-4.494-10.037-10.037 0-5.543 4.494-10.037 10.037-10.037S30.032 14.457 30.032 20c0 5.543-4.494 10.037-10.037 10.037zm0-18.046a8.005 8.005 0 1 0 0 16.01 8.005 8.005 0 0 0 0-16.01zm3.268 9.026h-3.63c-.37 0-.67-.45-.67-1.008v-.015c0-.04.013-.077.017-.117v-4.868c0-.557.45-1.008 1.008-1.008h.015c.557 0 1.008.45 1.008 1.008v3.976h2.253c.37 0 .668.45.668 1.008v.015c.002.557-.298 1.01-.667 1.01z"/>
    </symbol>
    <symbol id="icon-close-small" viewBox="0 0 11.045 11.048">
      <path fill-rule="evenodd" clip-rule="evenodd" d="M6.962 5.546L9.765 8.34A1 1 0 1 1 8.35 9.754l-2.8-2.792L2.774 9.74A1 1 0 1 1 1.36 8.326l2.758-2.76-2.764-2.787a1 1 0 1 1 1.414-1.415L5.53 4.15l2.807-2.812A1 1 0 1 1 9.75 2.752L6.963 5.546z"/>
    </symbol>
    <symbol id="icon-close" viewBox="0 0 40 40">
      <path fill-rule="evenodd" clip-rule="evenodd" d="M22.142 18.25a.992.992 0 0 1-.292.193l5.882 5.895a1 1 0 1 1-1.414 1.414l-5.832-5.845-5.738 5.783a1 1 0 1 1-1.414-1.414l5.74-5.785-5.77-5.78a1 1 0 0 1 1.413-1.415l5.818 5.83a.967.967 0 0 1 .193-.29L26.31 11.3a1 1 0 1 1 1.414 1.414l-5.582 5.535z"/>
    </symbol>
    <symbol id="icon-delete" viewBox="0 0 17.032 17.017">
      <path fill-rule="evenodd" clip-rule="evenodd" d="M8.563 16.002c-4.15 0-7.516-3.36-7.516-7.502 0-4.143 3.365-7.502 7.516-7.502S16.08 4.358 16.08 8.5c0 4.144-3.366 7.502-7.517 7.502zM11.778 5.3a1 1 0 0 0-1.414 0L8.56 7.11 6.755 5.29A1 1 0 1 0 5.34 6.706L7.142 8.52l-1.776 1.754a1 1 0 1 0 1.414 1.414l1.77-1.75 1.754 1.765a1 1 0 1 0 1.414-1.414L9.97 8.527l1.808-1.814a1 1 0 0 0 0-1.414z"/>
    </symbol>
    <symbol id="icon-edit_info" viewBox="0 0 17 17">
      <path fill-rule="evenodd" clip-rule="evenodd" d="M14.728 4.774l-7.374 7.793-2.86-2.836 7.77-7.375a1 1 0 0 1 1.414 0l1.05 1.005a1 1 0 0 1 0 1.414zm-11.524 6.18L6.13 13.86l-.17.18s-4.204 1.23-4.215 1.22c.03.032 1.282-4.137 1.282-4.137l.177-.168z"/>
    </symbol>
    <symbol id="icon-edit_photo" viewBox="0 0 54.01 54.01">
      <path fill-rule="evenodd" clip-rule="evenodd" fill="#FFF" d="M49.135 51.03H5.105a4 4 0 0 1-4-4V13.013a4 4 0 0 1 4-4h44.03a4 4 0 0 1 4 4v34.02a4 4 0 0 1-4 4zm1.02-38.988H4.126v36h46.03v-36zm-39.53 3.906a2.53 2.53 0 1 1 0 5.062 2.53 2.53 0 0 1 0-5.062zm21.5 1c7.197 0 13.03 5.834 13.03 13.03 0 7.198-5.833 13.032-13.03 13.032-7.197 0-13.03-5.834-13.03-13.03 0-7.198 5.833-13.032 13.03-13.032zm.042 23.102c5.538 0 10.027-4.49 10.027-10.027 0-5.538-4.49-10.027-10.027-10.027S22.14 24.486 22.14 30.024c0 5.537 4.49 10.026 10.027 10.026zm6.958-34.04h-14a.997.997 0 0 0-.994.97h-3.005v-1a3 3 0 0 1 3-3h16a3 3 0 0 1 3 3v1H40.12a.997.997 0 0 0-.995-.97z"/>
    </symbol>
    <symbol id="icon-facebook-share" viewBox="0 0 30.026 30">
      <path fill-rule="evenodd" clip-rule="evenodd" d="M17.007 26.004H12.99v-10.04h-2.987v-4h2.99l.017-4c0-2.05 1.094-3.968 3.74-3.968h3.272l-.07 3.946h-1.776c-1.155 0-1.17.013-1.17.99l.014 3.03h2.89l-.417 4h-2.486v10.042z"/>
    </symbol>
    <symbol id="icon-facebook" viewBox="139.9 193.8 32 32">
      <circle fill="#FFF" cx="155.9" cy="209.8" r="12"/><path fill="#3B5998" d="M155.9 225.6c-8.7 0-15.9-7.1-15.9-15.9s7.1-15.9 15.9-15.9 15.9 7.1 15.9 15.9-7.2 15.9-15.9 15.9zm1.3-19.1c0-.7 0-.7.8-.7h1.6v-2.6h-2.4c-1.6 0-2.5 1.2-2.5 2.5v2.8h-1.3v2.6h1.3v6.6h2.6v-6.6h2l.3-2.6h-2.4v-2z"/>
    </symbol>
    <symbol id="icon-facebook_middle" viewBox="0 0 46 46.001">
      <path fill-rule="evenodd" clip-rule="evenodd" fill="#3B5998" d="M23.042 45h-.012c-12.15 0-22-9.85-22-22s9.85-22 22-22h.012c12.15 0 22 9.85 22 22s-9.85 22-22 22zm.98-27.044c0-.84.02-.96 1.013-.96h1.99V13.01H24.01c-2.274 0-3.954 1.646-3.954 3.41v3.56H18.05v4.01h1.98v9.005h3.982V23.99h2.782l.42-4.01h-3.198l.006-2.024z"/>
    </symbol>
    <symbol id="icon-failure" viewBox="0 0 19 19">
      <path fill-rule="evenodd" clip-rule="evenodd" fill="#FFF" d="M15.706 4.695L10.886 9.5l4.81 4.805a1 1 0 1 1-1.413 1.414L9.47 10.912 4.708 15.66a1 1 0 1 1-1.414-1.414l4.766-4.75L3.31 4.72a1 1 0 1 1 1.413-1.413l4.753 4.775 4.816-4.8a1 1 0 1 1 1.414 1.413z"/>
    </symbol>
    <symbol id="icon-hamburger" viewBox="0 0 24 24">
      <path fill-rule="evenodd" clip-rule="evenodd" d="M21.146 5.012H2.916c-1.06 0-1.922-.007-1.922-1.068s.86-.954 1.922-.954h18.23c1.06 0 1.922-.108 1.922.954s-.86 1.068-1.922 1.068zM2.853 10.99h13.232c1.06 0 1.922-.056 1.922 1.005s-.86 1.034-1.922 1.034H2.853c-1.06 0-1.922.027-1.922-1.035s.862-1.006 1.923-1.006zm.033 8.03h16.168c1.06 0 2.02-.056 2.02 1.006s-.958.986-2.02.986H2.886c-1.06 0-1.922.076-1.922-.986 0-1.06.86-1.006 1.922-1.006z"/>
    </symbol>
    <symbol id="icon-instagram_middle" viewBox="0 0 46 46.001">
      <path fill-rule="evenodd" clip-rule="evenodd" fill="#125688" d="M22.964 44.964h-.012c-12.15 0-22-9.85-22-22s9.85-22 22-22h.012c12.15 0 22 9.85 22 22s-9.85 22-22 22zm11-30a3 3 0 0 0-3-3h-16a3 3 0 0 0-3 3v16a3 3 0 0 0 3 3h16a3 3 0 0 0 3-3v-16zm-4.61 17.012h-12.83c-1.658 0-2.57-1.126-2.57-2.783V20.99h2.278c-.185.63-.315 1.284-.315 1.974a7.048 7.048 0 0 0 14.096 0c0-.69-.13-1.344-.315-1.974h2.28v8.308c0 1.657-.968 2.678-2.625 2.678zm1.61-14.028H28.98a1 1 0 0 1-1-1v-1.984a1 1 0 0 1 1-1h1.984a1 1 0 0 1 1 1v1.984a1 1 0 0 1-1 1zm-8 10.01a4.994 4.994 0 1 1 0-9.988 4.994 4.994 0 0 1 0 9.988z"/>
    </symbol>
    <symbol id="icon-linkedin-2" viewBox="-948.3 -311.4 498 498">
      <circle fill="#007BB6" cx="-699.3" cy="-62.3" r="249"/><g fill="#FFF"><path d="M-631.9-105.4c-8.9-8.9-16.7-13.4-27.9-13.4s-23.4 3.3-32.4 13.4v-12.3h-30.1V.6h30.1V-63c0-8.9 3.3-14.5 7.8-19s10-7.8 17.9-7.8c13.4 0 19 7.8 19 25.7V1.8h30.1l-2.2-72.6c0-14.5-4.5-25.7-12.3-34.6zM-769.2-116.6h30.1V1.7h-30.1zM-752.4-162.3c-4.5 0-8.9 1.1-12.3 4.5-3.3 3.3-4.5 5.6-4.5 10 0 4.5 1.1 7.8 4.5 10 3.3 3.3 7.8 4.5 12.3 4.5s5.6-1.1 8.9-4.5c3.3-3.3 4.5-5.6 4.5-10 0-3.3-1.1-6.7-4.5-10-3.4-3.4-4.5-4.5-8.9-4.5z"/></g>
    </symbol>
    <symbol id="icon-linkedin-share" viewBox="0 0 30.026 30">
      <path fill-rule="evenodd" clip-rule="evenodd" d="M20.174 25.056v-7.744c0-2.182-.748-3.265-2.35-3.265-.79 0-1.16.286-1.75.858-.59.572-.885 1.348-.885 2.456v7.696h-4.05V11.04h4.05v1.552c1.196-1.214 2.22-1.59 3.718-1.59 1.496 0 2.733.465 3.745 1.52 1.012 1.057 1.518 2.03 1.518 3.79v8.745h-3.996zM7.342 9.078c-.632 0-1.165-.2-1.6-.6-.436-.398-.654-.888-.654-1.468s.218-1.07.653-1.468c.436-.4.97-.6 1.6-.6s.784.2 1.22.6c.436.4.653.89.653 1.468 0 .58-.218 1.07-.653 1.468-.435.4-.587.6-1.218.6zm1.803 15.978H5.15V11.04h3.995v14.016z"/>
    </symbol>
    <symbol id="icon-linkedin" viewBox="139.9 193.8 32 32">
      <circle fill="#FFF" cx="155.9" cy="209.7" r="12.5"/><path fill="#007BB6" d="M155.9 225.7c-8.8 0-16-7.2-16-16s7.2-16 16-16 16 7.2 16 16-7.3 16-16 16zm-5.4-9.3h2.7v-10.6h-2.7v10.6zm2.3-14.3c-.3-.3-.4-.4-.8-.4s-.8.1-1.1.4c-.3.3-.4.5-.4.9s.1.7.4.9c.3.3.7.4 1.1.4s.5-.1.8-.4.4-.5.4-.9c0-.3-.1-.6-.4-.9zm11.1 7.8c0-1.3-.4-2.3-1.1-3.1-.8-.8-1.5-1.2-2.5-1.2s-2.1.3-2.9 1.2v-1.1h-2.7v10.6h2.7v-5.7c0-.8.3-1.3.7-1.7.4-.4.9-.7 1.6-.7 1.2 0 1.7.7 1.7 2.3v5.9h2.7l-.2-6.5z"/>
    </symbol>
    <symbol id="icon-linkedin_middle" viewBox="0 0 46 46.001">
      <path fill-rule="evenodd" clip-rule="evenodd" fill="#007BB6" d="M23.006 45h-.012c-12.15 0-22-9.85-22-22s9.85-22 22-22h.012c12.15 0 22 9.85 22 22s-9.85 22-22 22zM13.99 33.013h3.995V18.995H13.99v14.018zM17.4 13.5c-.435-.4-.587-.6-1.22-.6-.63 0-1.164.2-1.6.6-.434.398-.652.888-.652 1.467 0 .58.218 1.07.653 1.468.436.4.97.6 1.6.6.633 0 .784-.2 1.22-.6.435-.4.653-.89.653-1.468 0-.58-.218-1.07-.653-1.468zm15.61 10.767c0-1.76-.506-2.732-1.518-3.788-1.012-1.057-2.25-1.522-3.745-1.522-1.496 0-2.522.376-3.72 1.59v-1.553h-4.05v14.017h4.05v-7.695c0-1.11.296-1.884.885-2.457.59-.572.96-.858 1.752-.858 1.6 0 2.35 1.083 2.35 3.265v7.744h3.996v-8.743z"/>
    </symbol>
    <symbol id="icon-lock" viewBox="0 0 39.991 40">
      <path fill-rule="evenodd" clip-rule="evenodd" d="M23.933 25h-7.875c-.552 0-1.062-.51-1.062-1.062v-4.875c0-.53.473-1.01 1-1.05v-2.06a2.984 2.984 0 0 1 2.984-2.984h2.03a2.984 2.984 0 0 1 2.985 2.983v2.06c.527.04 1 .52 1 1.05v4.875c0 .552-.51 1.062-1.062 1.062zm-4.61-3.123c.2.336.436 1.124.657 1.124.275 0 .557-.856.744-1.218.13-.25.334-.464.334-.767a1.047 1.047 0 0 0-2.094 0c0 .358.188.577.358.862zm2.66-5.968c0-.554-.848-.94-1.972-.94-1.123 0-2.034.386-2.034.94V18h4.007v-2.09z"/>
    </symbol>
    <symbol id="icon-lock_slim" viewBox="0 0 12.01 12">
      <path fill-rule="evenodd" clip-rule="evenodd" fill="#B1B8BB" d="M10.036 10.932H2.972c-.503 0-.967-.464-.967-.967V5.53c0-.483.533-.563 1.012-.597V3.7c0-1.5 1.03-2.757 2.53-2.757h1.847C8.894.943 9.99 2.2 9.99 3.7v1.233c.48.034 1.012.114 1.012.597v4.436c0 .502-.464.966-.966.966zm-4.204-3.21c.182.305.397 1.023.598 1.023.25 0 .507-.78.677-1.11.117-.226.304-.42.304-.697a.952.952 0 0 0-1.904 0c0 .325.17.524.326.784zM9.01 3.708c0-1.602-1.408-1.816-2.43-1.816-1.022 0-2.61.213-2.61 1.816V4.92h5.04V3.708z"/>
    </symbol>
    <symbol id="icon-map" viewBox="0 0 40 40">
      <path fill-rule="evenodd" clip-rule="evenodd" d="M20 34S8 24.912 8 17c0-6.627 5.372-12 12-12 6.627 0 12 5.373 12 12 0 7.77-12 17-12 17zm0-27c-5.523 0-10 4.534-10 10.125 0 6.61 10 14.263 10 14.263s10-7.72 10-14.263C30 11.535 25.523 7 20 7zm0 14a4 4 0 0 1 0-8 4 4 0 0 1 0 8zm0-6a2 2 0 1 0 0 4 2 2 0 0 0 0-4z"/>
    </symbol>
    <symbol id="icon-menu-connections" viewBox="0 0 40 40">
      <path fill-rule="evenodd" clip-rule="evenodd" d="M32.022 29.987a3 3 0 1 1 0-6 3 3 0 0 1 0 6zm0-4.04a1.046 1.046 0 1 0 0 2.093 1.046 1.046 0 0 0 0-2.092zm-.998-3.9c.033-.345.053-.693.053-1.047 0-4.624-2.852-8.577-6.893-10.216.358-.585.58-1.226.672-1.886 4.818 1.916 8.227 6.607 8.227 12.102 0 .347-.025.688-.052 1.028a4.988 4.988 0 0 0-2.006.02zm-11.05-11.012a3 3 0 1 1 0-6 3 3 0 0 1 0 6zm0-4.05a1.046 1.046 0 1 0 0 2.09 1.046 1.046 0 0 0 0-2.09zM8.994 21c0 .4.025.796.067 1.187a4.95 4.95 0 0 0-2.015-.09A12.85 12.85 0 0 1 6.99 21c0-5.432 3.33-10.084 8.06-12.04.106.656.338 1.293.707 1.872-3.973 1.67-6.762 5.594-6.762 10.168zm1.984 5.994a3 3 0 1 1-6 0 3 3 0 0 1 6 0zm-4.045-.004a1.046 1.046 0 1 0 1.046-1.046c-.58 0-1.047.468-1.047 1.046zm5.494 1.99a11 11 0 0 0 7.608 3.05 11 11 0 0 0 7.556-3.003c.238.5.544.973.957 1.386.08.08.176.14.26.214a12.992 12.992 0 0 1-8.772 3.406 12.992 12.992 0 0 1-8.77-3.404c.04-.04.086-.065.126-.105a4.87 4.87 0 0 0 1.037-1.546z"/>
    </symbol>
    <symbol id="icon-menu-crowd" viewBox="0 0 39.991 40">
      <path fill-rule="evenodd" clip-rule="evenodd" d="M28 19.026a3 3 0 1 1 0-6 3 3 0 0 1 0 6zm-.004-4.045a1.046 1.046 0 1 0 0 2.092 1.046 1.046 0 0 0 0-2.09zm-8.027-1.954a3 3 0 1 1 0-6 3 3 0 0 1 0 6zm-.01-4.045a1.046 1.046 0 1 0 0 2.092 1.046 1.046 0 0 0 0-2.09zM12 19.027a3 3 0 1 1 0-6 3 3 0 0 1 0 6zm-.004-4.045a1.046 1.046 0 1 0 0 2.092 1.046 1.046 0 0 0 0-2.09zm-.043 6.046c1.06 0 1.068.86 1.068 1.922v2.187c0 1.062-.006 1.922-1.067 1.922-1.06 0-.954-.86-.954-1.922v-2.187c0-1.06-.108-1.922.953-1.922zm8.035-6c1.062 0 1.034.86 1.034 1.922v8.187c0 1.062.028 1.922-1.034 1.922-1.06 0-1.006-.86-1.006-1.922v-8.187c0-1.06-.056-1.922 1.006-1.922zm7.965 6c1.06 0 1.068.86 1.068 1.922v2.187c0 1.062-.006 1.922-1.067 1.922-1.06 0-.954-.86-.954-1.922v-2.187c0-1.06-.108-1.922.953-1.922z"/>
    </symbol>
    <symbol id="icon-menu-events" viewBox="0 0 40 40">
      <path fill-rule="evenodd" clip-rule="evenodd" d="M27.998 10.985V8.968h5.025v2.017h-5.025zM24.01 6.98h1.974v6.014H24.01V6.98zM17.998 8.97h4v2.017h-4V8.968zM14.01 6.98h1.974v6.014H14.01V6.98zM6.977 8.97h5.02v2.017h-5.02V8.968zm11.02 10.03V17.01h3.028v8.998h-2v-7.013h-1.027zM8.993 27.9c0 1.937.135 2.102 2.092 2.102H28.02c1.957 0 2.985-.165 2.985-2.1V13.013h1.993v15.923c0 2.21-.848 3.057-3.057 3.057H9.964c-2.21 0-2.965-.848-2.965-3.057v-15.94H8.99V27.9z"/>
    </symbol>
    <symbol id="icon-menu-logout" viewBox="0 0 40 40">
      <path fill-rule="evenodd" clip-rule="evenodd" d="M20 34.047c-7.197 0-13.03-5.834-13.03-13.03 0-6.158 4.274-11.305 10.015-12.667v2.047c-4.63 1.298-8.028 5.54-8.028 10.583 0 6.076 4.925 11 11 11s11.002-4.924 11.002-11c0-5.047-3.404-9.29-8.038-10.585v-2.07c5.788 1.328 10.11 6.5 10.11 12.69 0 7.198-5.835 13.032-13.032 13.032zM19.97 20a.984.984 0 0 1-.985-.984V5.986a.984.984 0 1 1 1.968-.002v13.03c0 .545-.44.986-.984.986z"/>
    </symbol>
    <symbol id="icon-menu-messages" viewBox="0 0 40 40">
      <path fill-rule="evenodd" clip-rule="evenodd" d="M29.952 29.995H9.974c-2.21 0-2.965-.85-2.965-3.057V15.836L9 17.71v8.19c0 1.937.135 2.102 2.093 2.102H28.03c1.958 0 2.986-.165 2.986-2.102v-7.913l1.993-1.862v10.812c0 2.21-.85 3.058-3.058 3.058zm-4.786-12.06S20.973 21 20.004 21c-1.2 0-4.627-2.332-4.627-2.332-.06.03-2.42-1.496-5.574-4.084-.903-.742-2.563-2.08-2.813-2.81 0-1.48.538-2.768 2.942-2.768 6.77 0 14.655-.03 20.057-.03 2.064 0 2.983 1.382 2.983 2.616-.022 1.417-6.45 5.326-7.807 6.344zm4.863-6.93H10.042s-1.358-.416.343 1.184c.984.925 4.685 3.85 4.685 3.85s4.12 2.953 4.945 2.953c.612 0 4.548-3.068 4.548-3.068s3.85-2.73 5.11-3.663c1.84-1.363.356-1.257.356-1.257z"/>
    </symbol>
    <symbol id="icon-menu-profile" viewBox="0 0 40 40">
      <path fill-rule="evenodd" clip-rule="evenodd" d="M32.706 30.15c-1.2 1.572-7.713 1.902-12.804 1.902s-11.41-.33-12.61-1.903a1.393 1.393 0 0 1-.193-1.41c1.167-2.79 3.144-3.44 4.736-3.698 1.327-.215 2.622-.664 3.21-.954.01-.107.014-.602.014-1.133a8.993 8.993 0 0 0 1.594 1.235c-.01.442.252 1.08.252 1.08l-.728.358c-.735.36-1.985.875-3.266 1.074-1.085.168-2.623.41-3.44 2.278.04.042 1.57 1.094 10.44 1.094 8.868 0 10.604-1.05 10.65-1.096-.822-1.865-2.392-2.14-3.476-2.307-1.297-.2-2.73-.686-3.456-1.048l-.73-.364s.25-.578.244-.975a8.715 8.715 0 0 0 1.605-1.164c.002.255.004.555.004.966.586.292 2.08.74 3.408.956 1.592.257 3.57.91 4.737 3.698.198.473.128.987-.194 1.41zm-12.7-7.116c-3.35 0-6.064-4.374-6.064-8.007 0-4.422 2.028-8.007 6.063-8.007 4.037 0 6.063 3.585 6.063 8.007 0 3.615-2.714 8.007-6.063 8.007zm.016-14.002c-2.652 0-3.986 2.684-3.986 5.994 0 2.72 1.784 5.994 3.986 5.994 2.2 0 3.986-3.288 3.986-5.994 0-3.31-1.332-5.994-3.986-5.994z"/>
    </symbol>
    <symbol id="icon-menu-settings" viewBox="0 0 40 40">
      <path fill-rule="evenodd" clip-rule="evenodd" d="M32.023 24.906a2.01 2.01 0 0 0-3.41.094 2.008 2.008 0 0 0 .745 2.74c.274.16.57.228.866.25a12.984 12.984 0 0 1-8.467 4.87 2.008 2.008 0 0 0-1.803-2.874 2.008 2.008 0 0 0-1.812 2.86 12.985 12.985 0 0 1-8.37-4.858 2.007 2.007 0 0 0 1.535-2.994 2.007 2.007 0 0 0-2.747-.724c-.252.146-.458.34-.62.56a12.915 12.915 0 0 1 0-9.657 2.01 2.01 0 0 0 3.367-.163 2.008 2.008 0 0 0-1.54-2.994 12.99 12.99 0 0 1 8.37-4.86 2.008 2.008 0 0 0 1.816 2.85 2.008 2.008 0 0 0 1.808-2.867 12.985 12.985 0 0 1 8.465 4.874c-.298.02-.595.09-.87.25a2.008 2.008 0 0 0-.747 2.74 2.007 2.007 0 0 0 3.41.09c.62 1.515.97 3.167.97 4.905 0 1.738-.35 3.392-.97 4.906zm-1.27-6.877c-1.52.13-3.05-.588-3.858-1.99-.807-1.397-.667-3.073.2-4.324-1-.854-2.135-1.553-3.397-2.006-.643 1.396-2.036 2.37-3.663 2.37-1.635 0-3.036-.982-3.674-2.39-1.265.448-2.405 1.143-3.41 1.993.894 1.255 1.044 2.95.23 4.36-.82 1.422-2.38 2.143-3.926 1.982-.118.643-.194 1.3-.194 1.976s.077 1.335.194 1.977c1.545-.16 3.106.56 3.926 1.98.814 1.41.664 3.107-.23 4.362 1.006.85 2.146 1.544 3.413 1.992.637-1.41 2.037-2.396 3.672-2.396 1.627 0 3.02.977 3.66 2.377 1.264-.453 2.4-1.153 3.4-2.007-.867-1.25-1.006-2.927-.2-4.324.81-1.402 2.337-2.12 3.86-1.99.116-.64.193-1.296.193-1.97 0-.676-.077-1.33-.194-1.973zm-10.72 6.952a4.98 4.98 0 1 1 0-9.96 4.98 4.98 0 0 1 0 9.96zm.01-8.036a3.056 3.056 0 1 0 0 6.11 3.056 3.056 0 0 0 0-6.11z"/>
    </symbol>
    <symbol id="icon-more" viewBox="0 0 39.991 40">
      <path fill-rule="evenodd" clip-rule="evenodd" d="M30.604 21.99a2.53 2.53 0 1 1 0-5.062 2.53 2.53 0 0 1 0 5.062zm-10 0a2.53 2.53 0 1 1 0-5.062 2.53 2.53 0 0 1 0 5.062zm-10-.01a2.524 2.524 0 1 1 0-5.046 2.524 2.524 0 0 1 0 5.047z"/>
    </symbol>
    <symbol id="icon-new-message" viewBox="0 0 40 40">
      <path fill-rule="evenodd" clip-rule="evenodd" d="M16.924 26.992h-4.896l.01-4.916 9.874-10.865a.747.747 0 0 1 .533-.22.75.75 0 0 1 .533.22l3.78 3.49a.75.75 0 0 1 .22.534.75.75 0 0 1-.22.534l-9.834 11.224zm5.556-13.565l-8.447 9.512-.006 2.063 2.032.002 8.557-9.797-2.137-1.78zM20.008 25.03h6.03a.97.97 0 0 1 0 1.937h-6.03a.97.97 0 0 1 0-1.938z"/>
    </symbol>
    <symbol id="icon-pass" viewBox="0 0 26.036 26.013">
      <path fill-rule="evenodd" clip-rule="evenodd" fill="#FFF" d="M14.44 12.998l9.338 9.338c.376.376.323 1.04-.054 1.416l-.007.007a.964.964 0 0 1-1.363 0l-9.337-9.338-9.336 9.35a.964.964 0 0 1-1.362 0l-.007-.006c-.375-.376-.43-1.04-.053-1.416L11.593 13 2.298 3.702a.964.964 0 0 1 0-1.363l.007-.007c.376-.376 1.04-.43 1.416-.054l9.296 9.294 9.298-9.312c.376-.376 1.04-.323 1.416.054l.007.007a.964.964 0 0 1 0 1.363l-9.297 9.312z"/>
    </symbol>
    <symbol id="icon-persice-match-percent" viewBox="0 0 39.991 40">
      <path fill-rule="evenodd" clip-rule="evenodd" fill="#FFF" d="M19.565 6.03c5.982 0 11.64 3.872 13.446 9.246.457 1.358-1.935-.272-1.935 5.302 0 6.356-5.153 11.51-11.51 11.51S8.058 26.933 8.058 20.577c.29-5.414-2.562-3.977-2.095-5.35C7.78 9.88 13.6 6.032 19.565 6.032z"/><path fill-rule="evenodd" clip-rule="evenodd" fill="#8498A3" d="M19.49 33.083c-6.896 0-12.485-5.59-12.485-12.484 0-6.896 5.59-12.485 12.484-12.485s12.483 5.59 12.483 12.484-5.59 12.483-12.484 12.483zm.057-23.016c-5.817 0-10.532 4.715-10.532 10.532 0 5.816 4.715 10.53 10.532 10.53 5.816 0 10.532-4.714 10.532-10.53 0-5.818-4.717-10.533-10.533-10.533z"/><path fill-rule="evenodd" clip-rule="evenodd" fill="#8498A3" d="M23.003 14.09l-8.03 7.44 2.98.572L14.9 28.13l9.14-7.533-3.016-.543 1.98-5.963z"/>
    </symbol>
    <symbol id="icon-persice" viewBox="0 0 24.021 24.018">
      <path fill-rule="evenodd" clip-rule="evenodd" fill="#FFF" d="M12.004.018c6.627 0 12 5.373 12 12s-5.373 12-12 12-12-5.373-12-12 5.372-12 12-12z"/><path fill-rule="evenodd" clip-rule="evenodd" fill="#1AC1FB" d="M12.004 24.018c-6.627 0-12-5.373-12-12s5.373-12 12-12 12 5.373 12 12-5.373 12-12 12zm0-22.984c-6.067 0-10.985 4.918-10.985 10.984s4.917 10.984 10.983 10.984 10.984-4.918 10.984-10.984S18.07 1.034 12.003 1.034zm8.045 14.97h-8.9l2.605-.706-.865-1.09 1.257-.31-1.523-1.047.982-.585-1.35-1.17.666-.444s-.47-.86-.666-1.8L9.73 13.107l-1.476-.624L5.7 15.968l-.433-.023-.04.02 2.564-5.034 1.227.665 3.183-5.63 7.78 9.955-.064-.058.133.142z"/>
    </symbol>
    <symbol id="icon-picture" viewBox="0 0 40 40">
      <path d="M15.06 17.977a4 4 0 1 0 0-8 4 4 0 0 0 0 8zm0-5.984a1.984 1.984 0 1 1 0 3.97 1.984 1.984 0 0 1 0-3.97zM32.083 5h-23a3 3 0 0 0-3 3v23a3 3 0 0 0 3 3h23a3 3 0 0 0 3-3V8a3 3 0 0 0-3-3zm1 25a2 2 0 0 1-2 2h-21a2 2 0 0 1-2-2V9a2 2 0 0 1 2-2h21a2 2 0 0 1 2 2v21zm-14.105-3.363a.955.955 0 0 0 0-1.35l-2.79-2.79a.952.952 0 0 0-1.285-.507.94.94 0 0 0-.354.218c-.04.038-.055.086-.085.128L10.34 26.36a.96.96 0 0 0 1.355 1.356l3.556-3.454 2.377 2.376a.956.956 0 0 0 1.35 0zm8.983-5.017a.95.95 0 0 0-1.285-.504.938.938 0 0 0-.354.218c-.036.037-.052.084-.082.125l-6.9 6.9a.958.958 0 0 0 1.356 1.355l6.327-6.327 2.455 2.454a.957.957 0 0 0 1.352-1.352l-2.866-2.87z"/>
    </symbol>
    <symbol id="icon-plus-big" viewBox="0 0 39.991 40">
      <path fill-rule="evenodd" clip-rule="evenodd" d="M28.03 20.026l-7.022.005-.01 6.975a1 1 0 0 1-2 0l.01-6.98-7.047-.016a1 1 0 0 1 0-2l7.05.015.01-7.05a1 1 0 0 1 2 0l-.01 7.056 7.02-.004a1 1 0 0 1 0 2z"/>
    </symbol>
    <symbol id="icon-plus" viewBox="0 0 39.991 40">
      <path fill-rule="evenodd" clip-rule="evenodd" d="M24.935 21.005l-3.955.006.003 3.927a1 1 0 0 1-2 0l-.003-3.902-3.924-.015a1 1 0 0 1 0-2l3.923.015-.004-3.972a1 1 0 0 1 2 0l.003 3.947 3.956-.006a1 1 0 0 1 0 2z"/>
    </symbol>
    <symbol id="icon-search-mobile" viewBox="0 0 24 24">
      <path fill-rule="evenodd" clip-rule="evenodd" d="M20.982 19.57l-1.414 1.414-4.464-4.464c-1.268.968-2.833 1.566-4.55 1.566a7.536 7.536 0 0 1 0-15.07 7.535 7.535 0 0 1 7.534 7.536c0 1.72-.6 3.288-1.57 4.557l4.464 4.463zM10.552 5.016a5.534 5.534 0 1 0 0 11.068 5.534 5.534 0 0 0 0-11.068z"/>
    </symbol>
    <symbol id="icon-search" viewBox="0 0 40 40">
      <path fill-rule="evenodd" clip-rule="evenodd" d="M30.045 28.684l-1.536 1.28-5.956-6.722a8.44 8.44 0 0 1-5.074 1.695 8.49 8.49 0 1 1 6.53-3.067l6.035 6.814zM17.478 9.96c-3.582 0-6.486 2.904-6.486 6.487a6.486 6.486 0 1 0 6.486-6.487z"/>
    </symbol>
    <symbol id="icon-searching_cards" viewBox="0 0 44 44.01">
      <path fill-rule="evenodd" clip-rule="evenodd" fill="#39C9F5" d="M43.8 41.692l-2.1 2.1-9.36-9.36a18.9 18.9 0 0 1-12.328 4.56c-10.49 0-18.99-8.503-18.99-18.992 0-10.488 8.502-18.992 18.99-18.992 10.488 0 18.99 8.504 18.99 18.992a18.9 18.9 0 0 1-4.564 12.33l9.36 9.362zM19.996 4.024c-8.857 0-16.037 7.18-16.037 16.038 0 8.857 7.18 16.037 16.037 16.037s16.037-7.18 16.037-16.038c0-8.857-7.18-16.038-16.037-16.038z"/>
    </symbol>
    <symbol id="icon-success-2" viewBox="0 0 19 19">
      <path fill-rule="evenodd" clip-rule="evenodd" fill="#FFF" d="M16.763 3.665l-8.805 12.68a1.067 1.067 0 0 1-.23.37l-.008.007c-.1.1-.217.17-.34.216a.963.963 0 0 1-1.06-.202l-.006-.007c-.06-.06-.098-.138-.14-.21l-4.937-5.854a.964.964 0 0 1 0-1.363l.007-.007c.376-.376 1.04-.43 1.416-.054l4.27 5.117L15.34 2.24c.375-.376 1.04-.323 1.415.054l.007.007a.96.96 0 0 1 0 1.362z"/>
    </symbol>
    <symbol id="icon-success" viewBox="0 0 39.991 40">
      <path fill-rule="evenodd" clip-rule="evenodd" d="M20.832 24.684c-.232.23-.536.34-.84.335a1.136 1.136 0 0 1-.853-.33l-5.877-4.736a1.147 1.147 0 0 1 1.623-1.622l5.04 4.063 11.24-12.93c.45-.453 1.078-.62 1.53-.17l.017.02c.452.45.358 1.183-.094 1.635L20.83 24.684zm-.867-16.65c-6.622 0-11.99 5.37-11.99 11.99s5.368 11.99 11.99 11.99 11.99-5.367 11.99-11.99a11.98 11.98 0 0 0-.55-3.597l1.535-1.85c.702 1.668 1.09 3.5 1.09 5.424 0 7.744-6.283 14.02-14.035 14.02S5.96 27.745 5.96 20c0-7.742 6.283-14.02 14.035-14.02 3.108 0 5.97 1.022 8.296 2.73l-1.4 1.54a11.913 11.913 0 0 0-6.925-2.215z"/>
    </symbol>
    <symbol id="icon-switch-calendar" viewBox="0 0 39.991 40">
      <path fill-rule="evenodd" clip-rule="evenodd" d="M27.958 28.03H13.98c-2.21 0-2.965-.848-2.965-3.056V16l1.993.003v7.934c0 1.937.135 2.102 2.092 2.102h10.936c1.957 0 1.987-.166 1.987-2.103v-7.92l1.993.002v8.954c0 2.21.15 3.057-2.058 3.057zm-7.963-4.983v-4.014h-.978v-1.985h2.978v5.998h-2zm-8.948-13.042h2.97v2.062h4v-2.062h4.968v2.062h4.032l-.003-2.062h2.972v4h-18.94v-4zm12.982-.988h1.973v2.013H24.03V9.017zm-9 0h1.973v2.013H15.03V9.017z"/>
    </symbol>
    <symbol id="icon-switch-cards" viewBox="0 0 40 40">
      <path fill-rule="evenodd" clip-rule="evenodd" d="M27.984 28.03h-1.97a1 1 0 0 1-1-1v-1.968a1 1 0 0 1 1-1h1.97a1 1 0 0 1 1 1v1.97a1 1 0 0 1-1 1zm0-7h-1.97a1 1 0 0 1-1-1v-1.968a1 1 0 0 1 1-1h1.97a1 1 0 0 1 1 1v1.97a1 1 0 0 1-1 1zm0-7h-1.97a1 1 0 0 1-1-1v-1.968a1 1 0 0 1 1-1h1.97a1 1 0 0 1 1 1v1.97a1 1 0 0 1-1 1zm-7 14h-1.97a1 1 0 0 1-1-1v-1.968a1 1 0 0 1 1-1h1.97a1 1 0 0 1 1 1v1.97a1 1 0 0 1-1 1zm0-7h-1.97a1 1 0 0 1-1-1v-1.968a1 1 0 0 1 1-1h1.97a1 1 0 0 1 1 1v1.97a1 1 0 0 1-1 1zm0-7h-1.97a1 1 0 0 1-1-1v-1.968a1 1 0 0 1 1-1h1.97a1 1 0 0 1 1 1v1.97a1 1 0 0 1-1 1zm-7 14h-1.97a1 1 0 0 1-1-1v-1.968a1 1 0 0 1 1-1h1.97a1 1 0 0 1 1 1v1.97a1 1 0 0 1-1 1zm0-7h-1.97a1 1 0 0 1-1-1v-1.968a1 1 0 0 1 1-1h1.97a1 1 0 0 1 1 1v1.97a1 1 0 0 1-1 1zm0-7h-1.97a1 1 0 0 1-1-1v-1.968a1 1 0 0 1 1-1h1.97a1 1 0 0 1 1 1v1.97a1 1 0 0 1-1 1z"/>
    </symbol>
    <symbol id="icon-switch-map" viewBox="0 0 39.991 40">
      <path fill-rule="evenodd" clip-rule="evenodd" d="M20.517 28.018s-7.495-6.685-7.495-11.493a7.496 7.496 0 0 1 14.99 0c0 4.81-7.495 11.493-7.495 11.493zm.036-17.045c-3.044 0-5.512 2.624-5.512 5.862 0 3.164 5.513 8.44 5.513 8.44s5.512-5.272 5.512-8.44c0-3.237-2.468-5.862-5.512-5.862zm.052 7.128a1.516 1.516 0 1 1 0-3.032 1.516 1.516 0 0 1 0 3.033z"/>
    </symbol>
    <symbol id="icon-thunder" viewBox="0 0 11.8 17.6">
      <path d="M0 17.6L3.8 10 .5 9.4 10.7 0 8.3 7.3l3.5.6L0 17.6zm2.7-8.8l2.7.5-2.3 4.5 6.5-5.3L7 8l1.5-4.7-5.8 5.5z"/>
    </symbol>
    <symbol id="icon-total-similarity" viewBox="0 0 40 40">
      <path fill-rule="evenodd" clip-rule="evenodd" fill="#BCC7CD" d="M20 33.977C12.272 33.977 6.006 27.72 6.006 20 6.006 12.28 12.27 6.024 20 6.024S33.994 12.28 33.994 20c0 7.72-6.266 13.977-13.994 13.977zm.013-26.08c-6.67 0-12.08 5.402-12.08 12.065 0 6.663 5.408 12.065 12.08 12.065 6.67 0 12.08-5.402 12.08-12.065 0-6.663-5.41-12.065-12.08-12.065zm-5.786 20.18l3.513-6.93-3.428-.656 9.233-8.552-2.275 6.855 3.467.624-10.51 8.66z"/>
    </symbol>
    <symbol id="icon-twitter-2" viewBox="-948.3 -188 595.3 595.3">
      <circle fill="#4099FF" cx="-650.7" cy="109.7" r="297.6"/><path fill="#FFF" d="M-540.4 42.8c-4.7 5.9-27.2 9.5-27.2 9.5-18.9-22.5-47.3-9.5-47.3-9.5-37.9 13.1-24.8 48.5-24.8 48.5-56.8-1.2-88.7-50.9-88.7-50.9-17.7 36.7 10.7 61.5 10.7 61.5-5.9 0-17.7-4.7-17.7-4.7 0 33.1 33.1 43.7 33.1 43.7H-720c8.3 27.2 36.7 32 36.7 32-32 23.6-61.5 18.9-61.5 18.9 29.6 23.6 61.5 22.5 81.6 18.9 50.9-8.3 80.4-46.1 80.4-46.1 36.7-46.1 22.5-85.2 28.4-86.4 5.9-3.6 18.9-20.1 18.9-20.1-9.5 4.7-23.6 4.7-23.6 4.7 16.3-5.8 18.7-20 18.7-20z"/>
    </symbol>
    <symbol id="icon-twitter-share" viewBox="0 0 30.026 30">
      <path fill-rule="evenodd" clip-rule="evenodd" d="M5.67 5.278S8.95 10.55 15 10.644c0 0-1.348-3.882 2.59-5.154 0 0 2.955-1.27 4.924 1.027 0 0 2.298-.375 2.814-1.08 0 0-.14 1.413-1.735 2.442 0 0 1.454-.003 2.485-.566 0 0-1.45 1.815-2.08 2.098-.01.005-.02.01-.03.013-.61.234.813 4.315-2.986 9.145 0 0-3.035 4.048-8.41 4.8-2.186.305-5.393.406-8.63-2.033 0 0 3.284.37 6.566-2.07 0 0-3.012-.436-3.81-3.25 0 0 1.55 0 1.877-.047 0 0-3.61-1.272-3.564-4.72 0 0 1.22.54 1.9.47 0 0-3.05-2.69-1.244-6.442z"/>
    </symbol>
    <symbol id="icon-twitter" viewBox="139.9 193.8 32 32">
      <circle fill="#FFF" cx="155.9" cy="206.7" r="12.9"/><path fill="#4099FF" d="M155.9 225.8c-8.8 0-16-7.2-16-16s7.2-16 16-16 16 7.2 16 16-7.2 16-16 16zm8.3-22.5c-.4.5-2.3.8-2.3.8-1.6-1.9-4-.8-4-.8-3.2 1.1-2.1 4.1-2.1 4.1-4.8-.1-7.5-4.3-7.5-4.3-1.5 3.1.9 5.2.9 5.2-.5 0-1.5-.4-1.5-.4 0 2.8 2.8 3.7 2.8 3.7H149c.7 2.3 3.1 2.7 3.1 2.7-2.7 2-5.2 1.6-5.2 1.6 2.5 2 5.2 1.9 6.9 1.6 4.3-.7 6.8-3.9 6.8-3.9 3.1-3.9 1.9-7.2 2.4-7.3.5-.3 1.6-1.7 1.6-1.7-.8.4-2 .4-2 .4 1.4-.5 1.6-1.7 1.6-1.7z"/>
    </symbol>
    <symbol id="icon-twitter_middle" viewBox="0 0 46 46.001">
      <path fill-rule="evenodd" clip-rule="evenodd" fill="#4099FF" d="M23.006 1h-.012c-12.15 0-22 9.85-22 22s9.85 22 22 22h.012c12.15 0 22-9.85 22-22s-9.85-22-22-22zm9.036 18.125c-.01.005-.02.01-.03.013-.61.234.812 4.315-2.987 9.145 0 0-3.035 4.048-8.41 4.8-2.186.305-5.393.406-8.63-2.033 0 0 3.283.37 6.566-2.07 0 0-3.01-.437-3.808-3.25 0 0 1.547 0 1.876-.047 0 0-3.61-1.272-3.564-4.72 0 0 1.22.54 1.9.47 0 0-3.05-2.69-1.244-6.443 0 0 3.283 5.272 9.333 5.366 0 0-1.348-3.882 2.59-5.154 0 0 2.954-1.27 4.924 1.026 0 0 2.298-.375 2.814-1.08 0 0-.14 1.413-1.734 2.442 0 0 1.454-.002 2.485-.565 0 .003-1.45 1.817-2.078 2.1z"/>
    </symbol>
    <symbol id="icon-user" viewBox="0 0 40 40">
      <path fill-rule="evenodd" clip-rule="evenodd" d="M33.667 31.836c-1.384 1.816-8.904 2.197-14.78 2.197-5.876 0-13.17-.38-14.555-2.197-.37-.487-.453-1.08-.224-1.628 1.348-3.218 3.63-3.97 5.468-4.268 1.532-.248 3.026-.766 3.707-1.1.01-.125.015-.696.015-1.31a10.33 10.33 0 0 0 1.84 1.426l-.024.967-.914.45c-.923.452-2.493 1.06-4.103 1.31-1.363.21-2.903.63-3.928 2.98.05.052 1.577 1.373 12.72 1.373 11.144 0 12.893-1.32 12.952-1.377-1.035-2.344-2.574-2.766-3.937-2.978-1.63-.254-3.43-.863-4.342-1.317l-.916-.457-.016-.844a10.075 10.075 0 0 0 1.854-1.344c.003.296.006.642.006 1.117.677.337 2.4.854 3.934 1.103 1.838.297 4.12 1.05 5.47 4.27a1.61 1.61 0 0 1-.227 1.626zm-14.66-8.79c-3.866 0-7-4.94-7-9.046 0-4.994 2.342-9.044 7-9.044 4.66 0 6.997 4.05 6.997 9.044 0 4.085-3.133 9.045-6.998 9.045zm.02-16.038c-3.35 0-5.035 3.13-5.035 6.992 0 3.174 2.254 6.993 5.034 6.993S24.06 17.157 24.06 14c0-3.862-1.682-6.992-5.034-6.992z"/>
    </symbol>
    <symbol id="linkedin_big" viewBox="0 0 75.982 76">
      <path fill-rule="evenodd" clip-rule="evenodd" fill="#007BB6" d="M37.99 2c19.883 0 36 16.118 36 36s-16.117 36-36 36c-19.88 0-36-16.118-36-36s16.12-36 36-36z"/><path fill-rule="evenodd" clip-rule="evenodd" fill="#FFF" d="M44.196 48.027v-8.605c0-2.425-.953-3.45-2.732-3.45-.88 0-1.648.318-2.303.953-.654.636-.953 1.32-.953 2.55v8.55h-3.994v-16.03h3.965v1.886c1.33-1.348 2.826-1.867 4.488-1.867 1.662 0 2.712.618 3.836 1.79 1.124 1.175 1.687 2.552 1.687 4.507v9.717h-3.994zM30.4 30.09c-.633 0-1.167-.2-1.603-.6a1.92 1.92 0 0 1-.654-1.472c0-.58.218-1.07.654-1.47.436-.4.97-.6 1.603-.6s.785.2 1.22.6c.437.4.655.89.655 1.47s-.218 1.07-.654 1.47c-.436.4-.588.6-1.22.6zm1.808 17.937h-3.994v-16.03h3.994v16.03z"/>
    </symbol>
    <symbol id="no-goals" viewBox="0 0 92 92">
      <path fill-rule="evenodd" clip-rule="evenodd" fill="#39C9F5" d="M2.132 82.99l-.197.1 18.597-25.497 5.66 2.8 19.926-28.14L90.19 83.08l-88.058-.09z"/><path fill-rule="evenodd" clip-rule="evenodd" fill="#32B2D9" d="M46.038 32.845L90.19 83.09l-44.54-.036 5.088-6.654-4.668-12.333 3.883-3.888-3.907-6.89-.008-20.445zM19.88 79.705l3.334-2.65-2.13-5.1v-13.84l20.97 24.914-20.404-.016-1.77-3.308z"/><path fill-rule="evenodd" clip-rule="evenodd" fill="#C2E8F4" d="M49.618 42.336l-3.528 7.6v-15.88L58.852 48.58l-9.234-6.244zm-28.525 28.62V59.06l9.56 10.88-6.917-4.677-2.643 5.693z"/><path fill-rule="evenodd" clip-rule="evenodd" fill="#F16861" d="M61.055 16.96H47.983V9.002h13.072l-5.133 3.936 5.133 4.02zM46 29.972a.994.994 0 0 1-.995-.995V8.988a.994.994 0 0 1 1.99 0v19.99c0 .55-.445.995-.995.995z"/>
    </symbol>
    <symbol id="no-offers" viewBox="0 0 92 92">
      <path fill-rule="evenodd" clip-rule="evenodd" fill="#5D696E" d="M72.387 21.287c-3.473 3.152-8.28 2.725-8.28 2.725h-7.32V20.7s7.628 1.16 11.38-1.657c2.684-2.015 2.884-5.076 2.884-5.076h4.863s-.053 4.167-3.526 7.32zm-53.785 0c-3.473-3.152-3.526-7.32-3.526-7.32h4.862s.2 3.06 2.885 5.076c3.752 2.816 11.38 1.656 11.38 1.656v3.312h-7.32s-4.808.427-8.28-2.725z"/><path fill-rule="evenodd" clip-rule="evenodd" fill="#6B7A80" d="M62.69 21.447c-4.376 4.487-14.758 3.32-17.55 2.91-2.724.41-12.85 1.577-17.227-2.91-4.234-4.342-4.284-11.088.058-15.322S39.265 1.98 43.5 6.32c.677.695 1.21 1.535 1.63 2.462.423-.927.955-1.767 1.632-2.462 4.234-4.342 11.392-4.43 15.734-.195s4.43 10.98.196 15.322zM39.936 9.77a5.992 5.992 0 0 0-8.473-.107c-2.37 2.31-2.348 6.035-.038 8.404 2.77 2.842 10.168 1.915 10.168 1.915s1.063-7.423-1.657-10.212zm19.066-.107a5.908 5.908 0 0 0-8.404.107c-2.72 2.79-1.657 10.213-1.657 10.213s7.397.927 10.17-1.915A5.91 5.91 0 0 0 59 9.663z"/><path fill-rule="evenodd" clip-rule="evenodd" fill="#A6E16C" d="M83.06 41.972v45.046a3 3 0 0 1-3 3H11.04a3 3 0 0 1-3-3V41.974a2.998 2.998 0 0 1-2.967-2.997V27.03a3 3 0 0 1 3-3H83.01a3 3 0 0 1 3 3V38.98a2.996 2.996 0 0 1-2.95 2.994z"/><path fill-rule="evenodd" clip-rule="evenodd" fill="#76868C" d="M51.967 24.03v17.962H38.974v-17.96h12.993z"/><path fill-rule="evenodd" clip-rule="evenodd" fill="#6B7A80" d="M51.967 41.992v47.96H38.974v-47.96h12.993z"/><path opacity=".2" fill-rule="evenodd" clip-rule="evenodd" fill="#4B5E38" d="M8.068 41.992l-.01 5.853s26.46-2.262 44.045-.91c9.778.753 30.913 3.153 30.913 3.153l.007-8.083-74.955-.013z"/>
    </symbol>
    <symbol id="start_conversation" viewBox="0 0 94 94">
      <path fill-rule="evenodd" clip-rule="evenodd" fill="#EDD77F" d="M49.572 7.913l40.5 26.2c.847.844.806.79.912 2.474l.024 1.19s-.142 2.165-2.286 2.165c-11.252 0-70.164.027-82.174.027-2.18 0-2.435-2.317-2.435-2.317v-.924c-.033-1.597.262-1.773 1.108-2.618l41.29-26.2a2.163 2.163 0 0 1 3.062 0z"/><path fill-rule="evenodd" clip-rule="evenodd" fill="#E2A130" d="M6.497 34.875H88.61c.77 0 1.396.625 1.396 1.397v2.3c0 .77-.626 1.397-1.397 1.397H6.496A1.396 1.396 0 0 1 5.1 38.57v-2.3c0-.77.626-1.397 1.397-1.397z"/><path fill-rule="evenodd" clip-rule="evenodd" fill="#DBDBDB" d="M11.017 2.03H84.09v69.247H11.016V2.03z"/><path fill-rule="evenodd" clip-rule="evenodd" fill="#FFF" d="M12.184 3.03h70.962v69.247H12.184V3.03z"/><path fill-rule="evenodd" clip-rule="evenodd" fill="#E4E6E9" d="M18.01 63.99v-2h59v2h-59zm0-12h59v2h-59v-2zm0-10h59v2h-59v-2zm0-10h59v2h-59v-2zm0-10h59v2h-59v-2zm0-10h42v2h-42v-2z"/><path fill-rule="evenodd" clip-rule="evenodd" fill="#F4E29A" d="M5.388 35.427l40.78 28.81h3.703l39.85-28.81c1.106 0 1.298 1.432 1.298 2.536v51a2 2 0 0 1-2 2H6.088a2 2 0 0 1-2-2v-51c0-1.104.195-2.536 1.3-2.536z"/><path fill-rule="evenodd" clip-rule="evenodd" fill="#F0CC5D" d="M49.684 53.908l40.5 31.2c.846.844.846.844.834 2.574v.86s.216 2.394-2.184 2.394c-11.252 0-70.31.027-82.32.027-2.57 0-2.426-2.18-2.426-2.18v-.857c-.033-1.596.4-1.975 1.244-2.82l41.29-31.2a2.166 2.166 0 0 1 3.062.002z"/>
    </symbol>
    <symbol id="twitter_big" viewBox="0 0 75.982 76">
      <path fill-rule="evenodd" clip-rule="evenodd" fill="#4099FF" d="M37.99 1.94c19.883 0 36 16.117 36 36 0 19.88-16.117 36-36 36-19.88 0-36-16.12-36-36 0-19.884 16.12-36 36-36z"/><path fill-rule="evenodd" clip-rule="evenodd" fill="#FFF" d="M26.807 27s3.943 6.334 11.21 6.446c0 0-1.62-4.663 3.11-6.19 0 0 3.55-1.527 5.916 1.233 0 0 2.76-.452 3.38-1.296 0 0-.17 1.696-2.084 2.932 0 0 1.745-.003 2.984-.68 0 0-1.743 2.18-2.497 2.52l-.037.016c-.733.28.976 5.183-3.587 10.984 0 0-3.645 4.862-10.102 5.764-2.625.367-6.477.49-10.363-2.44 0 0 3.943.444 7.886-2.485 0 0-3.618-.526-4.576-3.905 0 0 1.86 0 2.253-.056 0 0-4.337-1.528-4.28-5.668 0 0 1.464.648 2.28.563 0 0-3.662-3.234-1.493-7.74z"/>
    </symbol></svg>