<svg xmlns="http://www.w3.org/2000/svg" width="40" height="40" viewBox="0 0 40 40"><path fill-rule="evenodd" clip-rule="evenodd" fill="#fff" d="M22.142 18.25c-.086.085-.188.145-.292.193l5.882 5.895c.39.39.39 1.024 0 1.414-.39.39-1.024.39-1.414 0l-5.832-5.845-5.738 5.783c-.39.39-1.024.39-1.414 0-.39-.39-.39-1.024 0-1.414l5.74-5.785-5.77-5.78c-.39-.39-.39-1.025 0-1.415.39-.39 1.023-.39 1.413 0l5.818 5.83c.048-.104.107-.205.193-.29L26.31 11.3c.39-.39 1.024-.39 1.414 0 .39.39.39 1.024 0 1.414l-5.582 5.535z"/></svg>