<svg style="display: none;" xmlns="http://www.w3.org/2000/svg">
  <symbol id="crowd" viewBox="0 0 451.846 451.847">
    <title>crowd icon</title>
    <path
      d="M345.44 248.292l-194.286 194.28c-12.36 12.366-32.397 12.366-44.75 0-12.354-12.353-12.354-32.39 0-44.743l171.914-171.91-171.91-171.904c-12.353-12.36-12.353-32.394 0-44.748 12.355-12.36 32.392-12.36 44.75 0L345.446 203.55c6.177 6.18 9.262 14.27 9.262 22.367 0 8.098-3.09 16.195-9.267 22.372z"/>
  </symbol>
  <symbol id="icon-arrow_down" viewBox="0 0 40 40">
    <title>icon-arrow_down icon</title>
    <path clip-rule="evenodd" d="M28.748 16.645l-6.97 7.024c-.1.1-.22.173-.348.22-.362.15-.794.08-1.088-.216l-7.04-7.014c-.39-.39-.39-1.023 0-1.413.392-.39 1.025-.39 1.415 0l6.336 6.314 6.28-6.327c.392-.39 1.025-.39 1.415 0 .39.39.39 1.023 0 1.413z"
      fill-rule="evenodd"/>
  </symbol>
  <symbol id="icon-checker" viewBox="0 0 13 13">
    <title>icon-checker icon</title>
    <path clip-rule="evenodd" d="M10.726 3.698l-4.904 7.037c-.313.312-.776.363-1.15.175-.127-.05-.246-.12-.348-.223L1.36 7.69c-.39-.39-.39-1.024 0-1.415.39-.39 1.024-.39 1.414 0l2.204 2.228 4.334-6.22c.39-.39 1.024-.39 1.414 0 .39.39.39 1.025 0 1.415z"
      fill-rule="evenodd"/>
  </symbol>
  <symbol id="icon-close" viewBox="0 0 40 40">
    <title>icon-close icon</title>
    <path clip-rule="evenodd"
      d="M22.142 18.25c-.086.085-.188.145-.292.193l5.882 5.895c.39.39.39 1.024 0 1.414-.39.39-1.024.39-1.414 0l-5.832-5.845-5.738 5.783c-.39.39-1.024.39-1.414 0-.39-.39-.39-1.024 0-1.414l5.74-5.785-5.77-5.78c-.39-.39-.39-1.024 0-1.414.39-.39 1.023-.39 1.413 0l5.818 5.83c.048-.104.107-.205.193-.29L26.31 11.3c.39-.39 1.024-.39 1.414 0 .39.39.39 1.024 0 1.414l-5.582 5.535z"
      fill-rule="evenodd" fill="#030202"/>
  </symbol>
  <symbol id="icon-connections" viewBox="0 0 40 40">
    <title>icon-connections icon</title>
    <path clip-rule="evenodd"
      d="M32.022 29.987c-1.657 0-3-1.343-3-3s1.343-3 3-3 3 1.344 3 3c0 1.657-1.343 3-3 3zm0-4.04c-.577 0-1.045.47-1.045 1.047 0 .578.468 1.046 1.046 1.046.578 0 1.046-.468 1.046-1.046 0-.577-.47-1.046-1.048-1.046zm-.998-3.9c.033-.345.053-.693.053-1.047 0-4.624-2.852-8.577-6.893-10.216.358-.585.58-1.226.672-1.886 4.818 1.916 8.227 6.607 8.227 12.102 0 .347-.025.688-.052 1.028-.66-.132-1.343-.12-2.005.02zm-11.05-11.012c-1.658 0-3-1.343-3-3 0-1.656 1.342-3 3-3 1.656 0 3 1.344 3 3 0 1.657-1.344 3-3 3zm0-4.05c-.578 0-1.046.468-1.046 1.045 0 .578.468 1.046 1.046 1.046.578 0 1.046-.468 1.046-1.046 0-.577-.468-1.046-1.046-1.046zM8.994 21c0 .4.025.796.067 1.187-.66-.166-1.344-.2-2.014-.09-.03-.362-.056-.726-.056-1.097 0-5.432 3.33-10.084 8.06-12.04.106.656.338 1.293.707 1.872-3.973 1.67-6.762 5.594-6.762 10.168zm1.984 5.994c0 1.656-1.343 3-3 3s-3-1.344-3-3c0-1.657 1.343-3 3-3s3 1.343 3 3zm-4.045-.004c0 .577.468 1.046 1.046 1.046.576 0 1.044-.47 1.044-1.046 0-.578-.468-1.046-1.046-1.046-.58 0-1.047.468-1.047 1.046zm5.494 1.99c1.98 1.884 4.656 3.05 7.608 3.05 2.927 0 5.58-1.147 7.556-3.003.24.5.545.973.958 1.386.08.08.176.14.26.214-2.317 2.11-5.39 3.406-8.772 3.406-3.382 0-6.453-1.296-8.77-3.404.04-.04.086-.066.126-.106.46-.458.798-.985 1.037-1.546z"
      fill-rule="evenodd"/>
  </symbol>
  <symbol id="icon-crowd" viewBox="0 0 40 40">
    <title>icon-crowd icon</title>
    <path clip-rule="evenodd"
      d="M28 21.985c-1.657 0-3-1.343-3-3s1.343-3 3-3 3 1.343 3 3-1.343 3-3 3zm-.004-4.046c-.578 0-1.046.466-1.046 1.044 0 .577.468 1.046 1.046 1.046.578 0 1.046-.468 1.046-1.045 0-.578-.468-1.046-1.046-1.046zm-8.027-1.957c-1.66 0-3-1.343-3-3s1.34-3 3-3 3 1.343 3 3c0 1.658-1.345 3-3 3zm-.01-4.045c-.578 0-1.046.467-1.046 1.045 0 .578.47 1.046 1.046 1.046.58 0 1.047-.47 1.047-1.046s-.468-1.046-1.046-1.046zM12 21.984c-1.657 0-3-1.343-3-3s1.343-3 3-3 3 1.343 3 3-1.343 3-3 3zm-.004-4.046c-.578 0-1.046.467-1.046 1.045 0 .577.468 1.046 1.046 1.046.578 0 1.046-.47 1.046-1.046 0-.578-.468-1.046-1.046-1.046zm-.043 6.044c1.06 0 1.068.86 1.068 1.922v2.187c0 1.06-.005 1.923-1.066 1.923-1.06 0-.954-.86-.954-1.922v-2.186c0-1.06-.108-1.922.953-1.922zm8.035-6c1.062 0 1.034.862 1.034 1.923v8.187c0 1.06.028 1.922-1.034 1.922-1.06 0-1.006-.86-1.006-1.922v-8.187c0-1.062-.056-1.922 1.006-1.922zm7.965 6c1.06 0 1.068.86 1.068 1.922v2.187c0 1.06-.005 1.923-1.066 1.923-1.06 0-.954-.86-.954-1.922v-2.186c0-1.06-.108-1.922.953-1.922z"
      fill-rule="evenodd"/>
  </symbol>
  <symbol id="icon-distance" viewBox="0 0 40 40">
    <title>icon-distance icon</title>
    <path clip-rule="evenodd"
      d="M24.984 27.024h-9.97c-1.104 0-2-.895-2-2v-13c0-1.104.896-2 2-2h9.97c1.105 0 2 .896 2 2v13c0 1.105-.895 2-2 2zm.032-13.97c0-.55-.448-1-1-1h-8c-.54 0-.976.433-.994.97h3.93c.553 0 1 .448 1 1v.03c0 .554-.447 1-1 1h-3.936v1h3.937c.552 0 1 .45 1 1v.032c0 .552-.448 1-1 1h-3.937v.97h3.937c.552 0 1 .447 1 1v.03c0 .552-.448 1-1 1h-3.937v.97h3.937c.552 0 1 .447 1 1v.03c0 .552-.448 1-1 1h-3.93c.016.537.45.97.993.97h8c.552 0 1-.448 1-1v-11z"
      fill-rule="evenodd" fill="#030202"/>
  </symbol>
  <symbol id="icon-events" viewBox="0 0 40 40">
    <title>icon-events icon</title>
    <path clip-rule="evenodd"
      d="M27.998 10.985V8.968h5.025v2.017h-5.025zM24.01 6.98h1.974v6.014H24.01V6.98zm-6.012 1.99h4v2.017h-4v-2.02zM14.01 6.98h1.974v6.014H14.01V6.98zM6.977 8.97h5.02v2.017h-5.02v-2.02zM17.997 19v-1.99h3.028v8.998h-2v-7.013h-1.027zm-9.004 8.9c0 1.937.135 2.102 2.092 2.102H28.02c1.957 0 2.985-.165 2.985-2.1v-14.89h1.993v15.924c0 2.21-.848 3.057-3.057 3.057H9.965c-2.21 0-2.965-.848-2.965-3.057v-15.94h1.99V27.9z"
      fill-rule="evenodd"/>
  </symbol>
  <symbol id="icon-facebook" viewBox="0 0 40 40">
    <title>icon-facebook icon</title>
    <circle cx="20" cy="20" fill="#FFF" r="9.1"/><path d="M20 32c-6.6 0-12-5.4-12-12S13.4 8 20 8s12 5.4 12 12-5.4 12-12 12zm1-14.5c0-.5 0-.5.6-.5h1.2v-2H21c-1.2 0-1.9.9-1.9 1.9V19h-1v2h1v5h2v-5h1.5l.2-2H21v-1.5z" fill="#3B5998"/>
  </symbol>
  <symbol id="icon-linkedin" viewBox="0 0 40 40">
    <title>icon-linkedin icon</title>
    <circle cx="20" cy="20" fill="#FFF" r="9.4"/><path
      d="M20 32c-6.6 0-12-5.4-12-12S13.4 8 20 8s12 5.4 12 12-5.4 12-12 12zm-4-7h2v-8h-2v8zm1.7-10.7c-.2-.2-.3-.3-.6-.3s-.6.1-.8.3-.3.4-.3.7c0 .3.1.5.3.7.2.2.5.3.8.3.3 0 .4-.1.6-.3.2-.2.3-.4.3-.7 0-.3-.1-.5-.3-.7zm8.3 5.8c0-1-.3-1.7-.8-2.3-.6-.6-1.1-.9-1.9-.9-.8 0-1.6.2-2.2.9V17h-2v8h2v-4.3c0-.6.2-1 .5-1.3.3-.3.7-.5 1.2-.5.9 0 1.3.5 1.3 1.7V25h2l-.1-4.9z"
      fill="#007BB6"/>
  </symbol>
  <symbol id="icon-map" viewBox="0 0 40 40">
    <title>icon-map icon</title>
    <path clip-rule="evenodd"
      d="M20 34S8 24.912 8 17c0-6.627 5.372-12 12-12 6.627 0 12 5.373 12 12 0 7.77-12 17-12 17zm0-27c-5.523 0-10 4.534-10 10.125 0 6.61 10 14.263 10 14.263s10-7.72 10-14.263C30 11.535 25.523 7 20 7zm0 14c-2.21 0-4-1.79-4-4s1.79-4 4-4 4 1.79 4 4-1.79 4-4 4zm0-6c-1.105 0-2 .896-2 2 0 1.105.895 2 2 2 1.104 0 2-.895 2-2 0-1.104-.896-2-2-2z"
      fill-rule="evenodd" fill="#010101"/>
  </symbol>
  <symbol id="icon-messages" viewBox="0 0 40 40">
    <title>icon-messages icon</title>
    <path clip-rule="evenodd"
      d="M29.952 29.995H9.974c-2.21 0-2.965-.85-2.965-3.057V15.836L9 17.71v8.19c0 1.937.135 2.102 2.093 2.102H28.03c1.958 0 2.986-.165 2.986-2.102v-7.913l1.993-1.862v10.812c0 2.21-.85 3.058-3.06 3.058zm-4.786-12.06S20.973 21 20.004 21c-1.2 0-4.627-2.332-4.627-2.332-.06.03-2.42-1.496-5.574-4.084-.903-.742-2.563-2.08-2.813-2.81 0-1.48.538-2.768 2.942-2.768 6.77 0 14.655-.03 20.057-.03 2.063 0 2.982 1.382 2.982 2.616-.022 1.417-6.45 5.326-7.807 6.344zm4.863-6.93H10.04s-1.358-.416.343 1.184c.984.924 4.685 3.85 4.685 3.85s4.12 2.952 4.945 2.952c.612 0 4.548-3.068 4.548-3.068s3.85-2.73 5.11-3.663c1.84-1.362.356-1.256.356-1.256z"
      fill-rule="evenodd"/>
  </symbol>
  <symbol id="icon-persice" viewBox="0 0 40 40">
    <title>icon-persice icon</title>
    <circle cx="20" cy="20" fill="#FFF" r="11.5"/><path d="M20 32c-6.6 0-12-5.4-12-12S13.4 8 20 8s12 5.4 12 12-5.4 12-12 12zm.1-23C14 9 9 13.9 9 20s4.9 11 11 11 11-4.9 11-11S26.1 9 20.1 9zM16 27l3.1-6-3-.6 8-7.4-2 6 3 .5L16 27z" fill="#8498A3"/>
  </symbol>
  <symbol id="icon-picture" viewBox="0 0 40 40">
    <title>icon-picture icon</title>
    <path
      d="M15.06 17.977c2.21 0 4-1.79 4-4s-1.79-4-4-4-4 1.79-4 4 1.79 4 4 4zm0-5.984c1.096 0 1.984.89 1.984 1.984 0 1.096-.89 1.985-1.984 1.985s-1.984-.89-1.984-1.985c0-1.096.888-1.984 1.984-1.984zM32.083 5h-23c-1.657 0-3 1.344-3 3v23c0 1.657 1.343 3 3 3h23c1.657 0 3-1.343 3-3V8c0-1.656-1.343-3-3-3zm1 25c0 1.105-.895 2-2 2h-21c-1.104 0-2-.895-2-2V9c0-1.104.896-2 2-2h21c1.105 0 2 .896 2 2v21zm-14.105-3.363c.373-.373.373-.978 0-1.35l-2.79-2.79c-.046-.115-.116-.225-.21-.32-.29-.29-.72-.348-1.074-.186-.13.048-.252.116-.355.22-.04.037-.056.085-.086.127L10.34 26.36c-.375.375-.375.98 0 1.356.373.375.98.375 1.355 0l3.556-3.454 2.378 2.376c.374.372.98.372 1.35 0zm8.983-5.017c-.045-.115-.115-.224-.21-.317-.29-.29-.72-.35-1.074-.187-.13.046-.25.115-.354.218-.036.037-.052.084-.082.125l-6.9 6.9c-.375.373-.375.98 0 1.354.375.374.982.374 1.356 0l6.327-6.327 2.455 2.454c.374.374.98.374 1.352 0 .373-.373.373-.98 0-1.35l-2.866-2.87z"
      fill="#010101"/>
  </symbol>
  <symbol id="icon-search" viewBox="0 0 40 40">
    <title>icon-search icon</title>
    <path clip-rule="evenodd"
      d="M30.045 28.684l-1.536 1.28-5.957-6.722c-1.417 1.06-3.17 1.695-5.074 1.695-4.69 0-8.49-3.8-8.49-8.49 0-4.688 3.8-8.49 8.49-8.49 4.687 0 8.49 3.802 8.49 8.49 0 2.063-.738 3.952-1.96 5.423l6.034 6.814zM17.478 9.96c-3.582 0-6.486 2.904-6.486 6.487s2.904 6.487 6.486 6.487 6.486-2.905 6.486-6.487S21.06 9.96 17.478 9.96z"
      fill-rule="evenodd"/>
  </symbol>
  <symbol id="icon-similarity" viewBox="0 0 40 40">
    <title>icon-similarity icon</title>
    <path clip-rule="evenodd"
      d="M35.667 31.835c-1.24 1.625-7.206 2.1-12.658 2.182v-8.25c1.35-.407 2.602-1.194 3.69-2.236 0 .615.004 1.186.016 1.31.68.335 2.175.853 3.707 1.1 1.837.298 4.12 1.05 5.468 4.27.23.546.147 1.14-.224 1.626zM23.01 22.587V5.254C26.32 6.262 27.99 9.79 27.99 14c0 3.36-2.1 7.276-4.983 8.587zM20.024 38.03c-.544 0-.984-.44-.984-.983V1.953c0-.543.442-.984.985-.984.544 0 .984.44.984.982v35.094c0 .544-.44.984-.986.984zM4.11 30.21c1.348-3.22 3.63-3.973 5.468-4.27 1.533-.25 3.258-.766 3.934-1.103 0-.475.003-.82.006-1.117.577.527 1.2.976 1.853 1.344l-.014.844-.917.457c-.913.454-2.713 1.063-4.343 1.317-1.363.212-2.902.633-3.937 2.977.055.05 1.588 1.203 10.85 1.357v1.997c-5.438-.09-11.453-.575-12.677-2.18-.372-.486-.452-1.08-.224-1.626zM11.994 14c0-4.224 1.68-7.76 5.014-8.755v2.218c-2.036.987-3.07 3.53-3.07 6.537 0 2.366 1.265 5.112 3.07 6.34v2.258c-2.898-1.302-5.015-5.243-5.015-8.598z"
      fill-rule="evenodd" fill="#010101"/>
  </symbol>
  <symbol id="icon-switch_calendar" viewBox="0 0 40 40">
    <title>icon-switch_calendar icon</title>
    <path clip-rule="evenodd"
      d="M27.958 28.03H13.98c-2.21 0-2.965-.848-2.965-3.056V16l1.993.003v7.934c0 1.937.135 2.102 2.092 2.102h10.936c1.957 0 1.987-.167 1.987-2.104v-7.92l1.993.002v8.954c0 2.21.15 3.057-2.058 3.057zm-7.963-4.983v-4.014h-.978v-1.985h2.978v5.998h-2zm-8.948-13.042h2.97v2.062h4v-2.062h4.968v2.062h4.032l-.003-2.062h2.972v4h-18.94v-4zm12.982-.988H26v2.013H24.03V9.017zm-9 0H17v2.013H15.03V9.017z"
      fill-rule="evenodd"/>
  </symbol>
  <symbol id="icon-switch_cards" viewBox="0 0 40 40">
    <title>icon-switch_cards icon</title>
    <path clip-rule="evenodd"
      d="M27.984 28.03h-1.97c-.55 0-1-.447-1-1v-1.968c0-.552.45-1 1-1h1.97c.552 0 1 .448 1 1v1.97c0 .552-.447 1-1 1zm0-7h-1.97c-.55 0-1-.447-1-1v-1.968c0-.552.45-1 1-1h1.97c.552 0 1 .448 1 1v1.97c0 .552-.447 1-1 1zm0-7h-1.97c-.55 0-1-.447-1-1v-1.968c0-.552.45-1 1-1h1.97c.552 0 1 .448 1 1v1.97c0 .55-.447 1-1 1zm-7 14h-1.97c-.55 0-1-.447-1-1v-1.968c0-.552.45-1 1-1h1.97c.552 0 1 .448 1 1v1.97c0 .552-.447 1-1 1zm0-7h-1.97c-.55 0-1-.447-1-1v-1.968c0-.552.45-1 1-1h1.97c.552 0 1 .448 1 1v1.97c0 .552-.447 1-1 1zm0-7h-1.97c-.55 0-1-.447-1-1v-1.968c0-.552.45-1 1-1h1.97c.552 0 1 .448 1 1v1.97c0 .55-.447 1-1 1zm-7 14h-1.97c-.55 0-1-.447-1-1v-1.968c0-.552.45-1 1-1h1.97c.552 0 1 .448 1 1v1.97c0 .552-.447 1-1 1zm0-7h-1.97c-.55 0-1-.447-1-1v-1.968c0-.552.45-1 1-1h1.97c.552 0 1 .448 1 1v1.97c0 .552-.447 1-1 1zm0-7h-1.97c-.55 0-1-.447-1-1v-1.968c0-.552.45-1 1-1h1.97c.552 0 1 .448 1 1v1.97c0 .55-.447 1-1 1z"
      fill-rule="evenodd"/>
  </symbol>
  <symbol id="icon-switch_map" viewBox="0 0 40 40">
    <title>icon-switch_map icon</title>
    <path clip-rule="evenodd"
      d="M20.517 28.018s-7.495-6.685-7.495-11.493c0-4.14 3.356-7.496 7.495-7.496 4.14 0 7.495 3.354 7.495 7.494 0 4.81-7.495 11.493-7.495 11.493zm.036-17.045c-3.044 0-5.512 2.624-5.512 5.862 0 3.164 5.514 8.44 5.514 8.44s5.512-5.272 5.512-8.44c0-3.237-2.468-5.862-5.512-5.862zm.052 7.128c-.837 0-1.516-.677-1.516-1.514s.677-1.516 1.514-1.516 1.516.678 1.516 1.515c0 .838-.678 1.516-1.515 1.516z"
      fill-rule="evenodd"/>
  </symbol>
  <symbol id="icon-thunder" viewBox="0 0 11.8 17.6">
    <title>icon-thunder icon</title>
    <path d="M0 17.6L3.8 10 .5 9.4 10.7 0 8.3 7.3l3.5.6L0 17.6zm2.7-8.8l2.7.5-2.3 4.5 6.5-5.3L7 8l1.5-4.7-5.8 5.5z"/>
  </symbol>
  <symbol id="icon-twitter" viewBox="0 0 40 40">
    <title>icon-twitter icon</title>
    <circle cx="20" cy="20" fill="#FFF" r="9.7"/><path
      d="M20 32c-6.6 0-12-5.4-12-12S13.4 8 20 8s12 5.4 12 12-5.4 12-12 12zm6.2-16.9c-.3.4-1.7.6-1.7.6-1.2-1.4-3-.6-3-.6-2.4.8-1.6 3.1-1.6 3.1-3.6-.1-5.6-3.2-5.6-3.2-1.1 2.3.7 3.9.7 3.9-.4 0-1.1-.3-1.1-.3 0 2.1 2.1 2.8 2.1 2.8h-1.1c.5 1.7 2.3 2 2.3 2-2 1.5-3.9 1.2-3.9 1.2 1.9 1.5 3.9 1.4 5.2 1.2 3.2-.5 5.1-2.9 5.1-2.9 2.3-2.9 1.4-5.4 1.8-5.5.4-.2 1.2-1.3 1.2-1.3-.6.3-1.5.3-1.5.3 1-.4 1.1-1.3 1.1-1.3z"
      fill="#4099FF"/>
    <text transform="translate(297.64 420.945)">
      <tspan font-family="'MyriadPro-Regular'" font-size="12" letter-spacing="30" x="2.5" y="0"></tspan>
      <tspan font-family="'MyriadPro-Regular'" font-size="12" x="0" y="14.4">Sigma 18-50</tspan>
    </text>
  </symbol>
  <symbol id="icon-user" viewBox="0 0 40 40">
    <title>icon-user icon</title>
    <path clip-rule="evenodd"
      d="M33.667 31.836c-1.384 1.816-8.904 2.197-14.78 2.197-5.876 0-13.17-.38-14.555-2.197-.37-.487-.453-1.08-.224-1.628 1.348-3.218 3.63-3.97 5.468-4.268 1.532-.248 3.026-.766 3.707-1.1.01-.125.015-.696.015-1.31.573.55 1.186 1.036 1.84 1.426l-.024.967-.914.45c-.923.452-2.493 1.06-4.103 1.31-1.363.21-2.903.63-3.928 2.98.05.052 1.576 1.373 12.72 1.373 11.143 0 12.892-1.32 12.95-1.377-1.034-2.345-2.573-2.767-3.936-2.98-1.63-.253-3.43-.862-4.342-1.316l-.916-.457-.016-.844c.655-.368 1.277-.817 1.854-1.344.003.295.006.64.006 1.116.677.337 2.4.854 3.934 1.103 1.838.296 4.12 1.05 5.47 4.27.225.545.145 1.14-.227 1.625zm-14.66-8.79c-3.866 0-7-4.94-7-9.046 0-4.994 2.342-9.044 7-9.044 4.66 0 6.997 4.05 6.997 9.044 0 4.085-3.133 9.045-6.998 9.045zm.02-16.038c-3.35 0-5.035 3.13-5.035 6.992 0 3.174 2.254 6.993 5.034 6.993S24.06 17.157 24.06 14c0-3.862-1.682-6.992-5.034-6.992z"
      fill-rule="evenodd" fill="#010101"/>
  </symbol>
</svg>
