<svg xmlns="http://www.w3.org/2000/svg" style="width:0; height:0; visibility:hidden;">
    <symbol id="crowd" viewBox="0 0 451.846 451.847">
      <path d="M345.44 248.292l-194.286 194.28c-12.36 12.366-32.397 12.366-44.75 0-12.354-12.353-12.354-32.39 0-44.743l171.914-171.91-171.91-171.903c-12.353-12.36-12.353-32.394 0-44.748 12.355-12.36 32.392-12.36 44.75 0l194.288 194.283c6.177 6.18 9.262 14.27 9.262 22.366 0 8.098-3.09 16.195-9.267 22.372z"/>
    </symbol>
    <symbol id="icon-arrow_down" viewBox="0 0 40 40">
      <path fill-rule="evenodd" clip-rule="evenodd" d="M28.748 16.645l-6.97 7.024c-.1.1-.22.174-.348.222-.362.15-.794.078-1.088-.217l-7.04-7.014c-.39-.39-.39-1.023 0-1.413.392-.39 1.025-.39 1.415 0l6.336 6.314 6.28-6.328c.392-.39 1.025-.39 1.415 0 .39.39.39 1.023 0 1.413z"/>
    </symbol>
    <symbol id="icon-checker" viewBox="0 0 13 13">
      <path fill-rule="evenodd" clip-rule="evenodd" d="M10.726 3.698l-4.904 7.037c-.313.312-.776.363-1.15.175-.127-.05-.246-.12-.348-.223L1.36 7.69c-.39-.39-.39-1.024 0-1.415.39-.39 1.024-.39 1.414 0l2.204 2.228 4.334-6.22c.39-.39 1.024-.39 1.414 0 .39.39.39 1.025 0 1.415z"/>
    </symbol>
    <symbol id="icon-clock" viewBox="0 0 20 20">
      <path d="M10 .2C4.6.2.2 4.6.2 10s4.4 9.8 9.8 9.8 9.8-4.4 9.8-9.8S15.4.2 10 .2zm0 17.6c-4.3 0-7.8-3.5-7.8-7.8S5.7 2.2 10 2.2s7.8 3.5 7.8 7.8-3.5 7.8-7.8 7.8zM13.2 9H11V5.1c0-.5-.4-1-1-1-.5 0-1 .4-1 1v4.8c0 .5.3 1 .7 1h3.5c.4 0 .7-.4.7-1-.1-.5-.4-.9-.7-.9z"/>
    </symbol>
    <symbol id="icon-close" viewBox="0 0 40 40">
      <path fill-rule="evenodd" clip-rule="evenodd" d="M22.142 18.25c-.086.085-.188.145-.292.193l5.882 5.895c.39.39.39 1.024 0 1.414-.39.39-1.024.39-1.414 0l-5.832-5.845-5.738 5.783c-.39.39-1.024.39-1.414 0-.39-.39-.39-1.024 0-1.414l5.74-5.785-5.77-5.78c-.39-.39-.39-1.025 0-1.415.39-.39 1.023-.39 1.413 0l5.818 5.83c.048-.104.107-.205.193-.29L26.31 11.3c.39-.39 1.024-.39 1.414 0 .39.39.39 1.024 0 1.414l-5.582 5.535z"/>
    </symbol>
    <symbol id="icon-connections" viewBox="0 0 40 40">
      <path fill-rule="evenodd" clip-rule="evenodd" d="M32.022 29.987c-1.657 0-3-1.343-3-3s1.343-3 3-3 3 1.344 3 3c0 1.657-1.343 3-3 3zm0-4.04c-.577 0-1.045.47-1.045 1.047 0 .578.468 1.046 1.046 1.046.578 0 1.046-.468 1.046-1.046 0-.577-.47-1.046-1.047-1.046zm-.998-3.9c.033-.345.053-.693.053-1.047 0-4.624-2.852-8.577-6.893-10.216.358-.585.58-1.226.672-1.886 4.818 1.916 8.227 6.607 8.227 12.102 0 .347-.025.688-.052 1.028-.662-.132-1.344-.12-2.006.02zm-11.05-11.012c-1.658 0-3-1.343-3-3 0-1.656 1.342-3 3-3 1.656 0 3 1.344 3 3 0 1.657-1.344 3-3 3zm0-4.05c-.578 0-1.046.468-1.046 1.045 0 .578.468 1.046 1.046 1.046.578 0 1.046-.468 1.046-1.046 0-.577-.468-1.046-1.046-1.046zM8.994 21c0 .4.025.796.067 1.187-.66-.166-1.345-.2-2.015-.09-.03-.362-.056-.726-.056-1.097 0-5.432 3.33-10.084 8.06-12.04.106.656.338 1.293.707 1.872-3.973 1.67-6.762 5.594-6.762 10.168zm1.984 5.994c0 1.656-1.343 3-3 3s-3-1.344-3-3c0-1.657 1.343-3 3-3s3 1.343 3 3zm-4.045-.004c0 .577.468 1.046 1.046 1.046.577 0 1.045-.47 1.045-1.046 0-.578-.468-1.046-1.046-1.046-.58 0-1.047.468-1.047 1.046zm5.494 1.99c1.98 1.884 4.656 3.05 7.608 3.05 2.927 0 5.58-1.147 7.556-3.003.238.5.544.973.957 1.386.08.08.176.14.26.214-2.317 2.11-5.39 3.406-8.772 3.406-3.382 0-6.453-1.296-8.77-3.404.04-.04.086-.065.126-.105.46-.458.798-.985 1.037-1.546z"/>
    </symbol>
    <symbol id="icon-crowd" viewBox="0 0 39.991 40">
      <path fill-rule="evenodd" clip-rule="evenodd" d="M28 19.026c-1.657 0-3-1.343-3-3 0-1.656 1.343-3 3-3s3 1.344 3 3c0 1.657-1.343 3-3 3zm-.004-4.045c-.578 0-1.046.47-1.046 1.047s.468 1.046 1.046 1.046c.578 0 1.046-.47 1.046-1.046 0-.578-.468-1.046-1.046-1.046zm-8.027-1.954c-1.658 0-3-1.343-3-3s1.342-3 3-3 3 1.343 3 3-1.344 3-3 3zm-.01-4.045c-.577 0-1.045.47-1.045 1.047 0 .578.47 1.046 1.046 1.046.58 0 1.047-.47 1.047-1.046 0-.578-.468-1.046-1.046-1.046zM12 19.027c-1.657 0-3-1.343-3-3 0-1.656 1.343-3 3-3s3 1.344 3 3c0 1.657-1.343 3-3 3zm-.004-4.045c-.578 0-1.046.47-1.046 1.047s.468 1.046 1.046 1.046c.578 0 1.046-.47 1.046-1.046 0-.578-.468-1.046-1.046-1.046zm-.043 6.046c1.06 0 1.068.86 1.068 1.922v2.187c0 1.062-.006 1.922-1.067 1.922-1.06 0-.954-.86-.954-1.922v-2.187c0-1.06-.108-1.922.953-1.922zm8.035-6c1.062 0 1.034.86 1.034 1.922v8.187c0 1.062.028 1.922-1.034 1.922-1.06 0-1.006-.86-1.006-1.922v-8.187c0-1.06-.056-1.922 1.006-1.922zm7.965 6c1.06 0 1.068.86 1.068 1.922v2.187c0 1.062-.006 1.922-1.067 1.922-1.06 0-.954-.86-.954-1.922v-2.187c0-1.06-.108-1.922.953-1.922z"/>
    </symbol>
    <symbol id="icon-distance" viewBox="0 0 40 40">
      <path d="M30.8 37H9.2c-2.4 0-4.3-1.9-4.3-4.3V4.4C4.9 2 6.8.1 9.2.1h21.6c2.4 0 4.3 1.9 4.3 4.3v28.2c.1 2.4-1.9 4.4-4.3 4.4zm.1-30.3c0-1.2-1-2.2-2.2-2.2H11.4c-1.2 0-2.1.9-2.2 2.1h8.5c1.2 0 2.2 1 2.2 2.2v.1c0 1.2-1 2.2-2.2 2.2H9.2v2.2h8.5c1.2 0 2.2 1 2.2 2.2v.1c0 1.2-1 2.2-2.2 2.2H9.2v2.1h8.5c1.2 0 2.2 1 2.2 2.2v.1c0 1.2-1 2.2-2.2 2.2H9.2v2.1h8.5c1.2 0 2.2 1 2.2 2.2v.1c0 1.2-1 2.2-2.2 2.2H9.2c0 1.2 1 2.1 2.2 2.1h17.4c1.2 0 2.2-1 2.2-2.2V6.7z"/>
    </symbol>
    <symbol id="icon-events" viewBox="0 0 40 40">
      <path fill-rule="evenodd" clip-rule="evenodd" d="M27.998 10.985V8.968h5.025v2.017h-5.025zM24.01 6.98h1.974v6.014H24.01V6.98zM17.998 8.97h4v2.017h-4V8.968zM14.01 6.98h1.974v6.014H14.01V6.98zM6.977 8.97h5.02v2.017h-5.02V8.968zm11.02 10.03V17.01h3.028v8.998h-2v-7.013h-1.027zM8.993 27.9c0 1.937.135 2.102 2.092 2.102H28.02c1.957 0 2.985-.165 2.985-2.1V13.013h1.993v15.923c0 2.21-.848 3.057-3.057 3.057H9.964c-2.21 0-2.965-.848-2.965-3.057v-15.94H8.99V27.9z"/>
    </symbol>
    <symbol id="icon-facebook" viewBox="139.9 193.8 32 32">
      <circle fill="#FFF" cx="155.9" cy="209.8" r="12"/><path fill="#3B5998" d="M155.9 225.6c-8.7 0-15.9-7.1-15.9-15.9s7.1-15.9 15.9-15.9 15.9 7.1 15.9 15.9-7.2 15.9-15.9 15.9zm1.3-19.1c0-.7 0-.7.8-.7h1.6v-2.6h-2.4c-1.6 0-2.5 1.2-2.5 2.5v2.8h-1.3v2.6h1.3v6.6h2.6v-6.6h2l.3-2.6h-2.4v-2z"/>
    </symbol>
    <symbol id="icon-linkedin-2" viewBox="-948.3 -311.4 498 498">
      <circle fill="#007BB6" cx="-699.3" cy="-62.3" r="249"/><g fill="#FFF"><path d="M-631.9-105.4c-8.9-8.9-16.7-13.4-27.9-13.4s-23.4 3.3-32.4 13.4v-12.3h-30.1V.6h30.1V-63c0-8.9 3.3-14.5 7.8-19s10-7.8 17.9-7.8c13.4 0 19 7.8 19 25.7V1.8h30.1l-2.2-72.6c0-14.5-4.5-25.7-12.3-34.6zM-769.2-116.6h30.1V1.7h-30.1zM-752.4-162.3c-4.5 0-8.9 1.1-12.3 4.5-3.3 3.3-4.5 5.6-4.5 10 0 4.5 1.1 7.8 4.5 10 3.3 3.3 7.8 4.5 12.3 4.5s5.6-1.1 8.9-4.5c3.3-3.3 4.5-5.6 4.5-10 0-3.3-1.1-6.7-4.5-10-3.4-3.4-4.5-4.5-8.9-4.5z"/></g>
    </symbol>
    <symbol id="icon-linkedin" viewBox="139.9 193.8 32 32">
      <circle fill="#FFF" cx="155.9" cy="209.7" r="12.5"/><path fill="#007BB6" d="M155.9 225.7c-8.8 0-16-7.2-16-16s7.2-16 16-16 16 7.2 16 16-7.3 16-16 16zm-5.4-9.3h2.7v-10.6h-2.7v10.6zm2.3-14.3c-.3-.3-.4-.4-.8-.4s-.8.1-1.1.4c-.3.3-.4.5-.4.9s.1.7.4.9c.3.3.7.4 1.1.4s.5-.1.8-.4.4-.5.4-.9c0-.3-.1-.6-.4-.9zm11.1 7.8c0-1.3-.4-2.3-1.1-3.1-.8-.8-1.5-1.2-2.5-1.2s-2.1.3-2.9 1.2v-1.1h-2.7v10.6h2.7v-5.7c0-.8.3-1.3.7-1.7.4-.4.9-.7 1.6-.7 1.2 0 1.7.7 1.7 2.3v5.9h2.7l-.2-6.5z"/>
    </symbol>
    <symbol id="icon-lock" viewBox="0 0 36 36">
      <path fill="#B1B8BB" d="M29.6 35.8H6.4c-1.6 0-3.1-1.5-3.1-3.1V18.2c0-1.6 1.4-3 3-3.1V9c0-4.9 4-8.8 8.8-8.8h6c4.9 0 8.8 4 8.8 8.8v6.1c1.6.1 3 1.5 3 3.1v14.4c-.1 1.7-1.6 3.2-3.3 3.2zM16 26.6c.6 1 1.3 3.3 1.9 3.3.8 0 1.6-2.5 2.2-3.6.4-.7 1-1.4 1-2.3 0-1.7-1.4-3.1-3.1-3.1-1.7 0-3.1 1.4-3.1 3.1 0 1.1.6 1.7 1.1 2.6zm7.9-17.7c0-1.6-2.5-2.8-5.8-2.8s-6 1.1-6 2.8v6.2H24V8.9z"/>
    </symbol>
    <symbol id="icon-map" viewBox="0 0 40 40">
      <path fill-rule="evenodd" clip-rule="evenodd" d="M20 34S8 24.912 8 17c0-6.627 5.372-12 12-12 6.627 0 12 5.373 12 12 0 7.77-12 17-12 17zm0-27c-5.523 0-10 4.534-10 10.125 0 6.61 10 14.263 10 14.263s10-7.72 10-14.263C30 11.535 25.523 7 20 7zm0 14c-2.21 0-4-1.79-4-4s1.79-4 4-4 4 1.79 4 4-1.79 4-4 4zm0-6c-1.105 0-2 .896-2 2 0 1.105.895 2 2 2 1.104 0 2-.895 2-2 0-1.104-.896-2-2-2z"/>
    </symbol>
    <symbol id="icon-messages" viewBox="0 0 40 40">
      <path fill-rule="evenodd" clip-rule="evenodd" d="M29.952 29.995H9.974c-2.21 0-2.965-.85-2.965-3.057V15.836L9 17.71v8.19c0 1.937.135 2.102 2.093 2.102H28.03c1.958 0 2.986-.165 2.986-2.102v-7.913l1.993-1.862v10.812c0 2.21-.85 3.058-3.058 3.058zm-4.786-12.06S20.973 21 20.004 21c-1.2 0-4.627-2.332-4.627-2.332-.06.03-2.42-1.496-5.574-4.084-.903-.742-2.563-2.08-2.813-2.81 0-1.48.538-2.768 2.942-2.768 6.77 0 14.655-.03 20.057-.03 2.064 0 2.983 1.382 2.983 2.616-.022 1.417-6.45 5.326-7.807 6.344zm4.863-6.93H10.042s-1.358-.416.343 1.184c.984.925 4.685 3.85 4.685 3.85s4.12 2.953 4.945 2.953c.612 0 4.548-3.068 4.548-3.068s3.85-2.73 5.11-3.663c1.84-1.363.356-1.257.356-1.257z"/>
    </symbol>
    <symbol id="icon-persice-2" viewBox="0 0 39.991 40">
      <path fill-rule="evenodd" clip-rule="evenodd" fill="#FFF" d="M19.565 6.03c5.982 0 11.64 3.872 13.446 9.246.457 1.358-1.935-.272-1.935 5.302 0 6.356-5.153 11.51-11.51 11.51S8.058 26.933 8.058 20.577c.29-5.414-2.562-3.977-2.095-5.35C7.78 9.88 13.6 6.032 19.565 6.032z"/><path fill-rule="evenodd" clip-rule="evenodd" fill="#8498A3" d="M19.49 33.083c-6.896 0-12.485-5.59-12.485-12.484 0-6.896 5.59-12.485 12.484-12.485s12.483 5.59 12.483 12.484-5.59 12.483-12.484 12.483zm.057-23.016c-5.817 0-10.532 4.715-10.532 10.532 0 5.816 4.715 10.53 10.532 10.53 5.816 0 10.532-4.714 10.532-10.53 0-5.818-4.717-10.533-10.533-10.533z"/><path fill-rule="evenodd" clip-rule="evenodd" fill="#8498A3" d="M23.003 14.09l-8.03 7.44 2.98.572L14.9 28.13l9.14-7.533-3.016-.543 1.98-5.963z"/>
    </symbol>
    <symbol id="icon-persice" viewBox="139.9 193.8 32 32">
      <circle fill="#FFF" cx="155.9" cy="209.8" r="15.3"/><path fill="#8498A3" d="M155.9 225.7c-8.8 0-15.9-7.2-15.9-15.9s7.2-15.9 15.9-15.9 15.9 7.2 15.9 15.9-7.1 15.9-15.9 15.9zm.1-30.5c-8.1 0-14.7 6.5-14.7 14.6s6.5 14.6 14.6 14.6 14.6-6.5 14.6-14.6-6.5-14.6-14.5-14.6zm-5.4 23.8l4.1-8-4-.8 10.6-9.8-2.7 8 4 .7-12 9.9z"/>
    </symbol>
    <symbol id="icon-picture" viewBox="0 0 40 40">
      <path d="M15.06 17.977c2.21 0 4-1.79 4-4s-1.79-4-4-4-4 1.79-4 4 1.79 4 4 4zm0-5.984c1.096 0 1.984.89 1.984 1.984 0 1.096-.89 1.985-1.984 1.985s-1.984-.89-1.984-1.985c0-1.096.888-1.984 1.984-1.984zM32.083 5h-23c-1.657 0-3 1.344-3 3v23c0 1.657 1.343 3 3 3h23c1.657 0 3-1.343 3-3V8c0-1.656-1.343-3-3-3zm1 25c0 1.105-.895 2-2 2h-21c-1.104 0-2-.895-2-2V9c0-1.104.896-2 2-2h21c1.105 0 2 .896 2 2v21zm-14.105-3.363c.373-.373.373-.978 0-1.35l-2.79-2.79c-.046-.115-.116-.225-.21-.32-.29-.29-.72-.348-1.074-.186-.13.047-.252.115-.355.218-.04.038-.055.086-.085.128L10.34 26.36c-.375.375-.375.98 0 1.356.373.375.98.375 1.355 0l3.556-3.454 2.377 2.376c.374.372.98.372 1.35 0zm8.983-5.017c-.046-.115-.116-.224-.21-.317-.29-.29-.72-.35-1.075-.187-.13.046-.25.115-.354.218-.036.037-.052.084-.082.125l-6.9 6.9c-.375.374-.375.98 0 1.355.375.374.982.374 1.356 0l6.327-6.327 2.455 2.454c.374.373.98.373 1.352 0 .373-.374.373-.98 0-1.352l-2.866-2.87z"/>
    </symbol>
    <symbol id="icon-plus" viewBox="0 0 40 40">
      <path d="M29.2 19h-7.9c-.1 0-.2 0-.3.1v-8.2c0-.6-.4-1-1-1s-1 .4-1 1v8.2h-8.1c-.6 0-1 .4-1 1s.4 1 1 1H19v8.3c0 .6.4 1 1 1s1-.4 1-1v-8.3c.1 0 .2.1.3.1h7.9c.6 0 1-.4 1-1 0-.8-.5-1.2-1-1.2z"/>
    </symbol>
    <symbol id="icon-search" viewBox="0 0 40 40">
      <path fill-rule="evenodd" clip-rule="evenodd" d="M30.045 28.684l-1.536 1.28-5.956-6.722c-1.417 1.06-3.17 1.695-5.074 1.695-4.69 0-8.49-3.8-8.49-8.49 0-4.688 3.8-8.49 8.49-8.49 4.688 0 8.49 3.802 8.49 8.49 0 2.063-.737 3.952-1.96 5.423l6.035 6.814zM17.478 9.96c-3.582 0-6.486 2.904-6.486 6.487s2.904 6.487 6.486 6.487 6.486-2.905 6.486-6.487S21.06 9.96 17.478 9.96z"/>
    </symbol>
    <symbol id="icon-similarity" viewBox="0 0 40 40">
      <path fill-rule="evenodd" clip-rule="evenodd" d="M35.667 31.835c-1.24 1.625-7.206 2.1-12.658 2.182v-8.25c1.35-.407 2.603-1.194 3.692-2.236 0 .614.003 1.185.015 1.31.68.334 2.175.852 3.707 1.1 1.837.297 4.12 1.05 5.468 4.268.228.547.146 1.14-.225 1.627zM23.01 22.587V5.254C26.32 6.262 27.99 9.79 27.99 14c0 3.36-2.1 7.276-4.983 8.587zM20.024 38.03c-.544 0-.984-.44-.984-.983V1.953c0-.543.442-.984.985-.984.544 0 .984.44.984.983v35.094c0 .544-.44.984-.985.984zM4.11 30.21c1.348-3.22 3.63-3.973 5.468-4.27 1.533-.25 3.258-.766 3.934-1.103 0-.475.003-.82.006-1.117.577.527 1.2.976 1.853 1.344l-.015.844-.917.457c-.912.454-2.712 1.063-4.342 1.317-1.363.212-2.902.633-3.937 2.977.055.05 1.588 1.204 10.85 1.358v1.997c-5.438-.09-11.453-.575-12.677-2.18-.372-.486-.452-1.08-.224-1.626zM11.994 14c0-4.224 1.68-7.76 5.014-8.755v2.218c-2.036.987-3.07 3.53-3.07 6.537 0 2.366 1.265 5.112 3.07 6.34v2.258c-2.898-1.302-5.015-5.243-5.015-8.598z"/>
    </symbol>
    <symbol id="icon-switch_calendar" viewBox="0 0 20 20">
      <path d="M17.7 19.9H3.2C.9 19.9.1 19 .1 16.7V7.4h2.1v8.2c0 2 .1 2.2 2.2 2.2h11.3c2 0 2.1-.2 2.1-2.2V7.4h2.1v9.3c-.1 2.3.1 3.2-2.2 3.2zm-8.2-5.2v-4.2h-1v-2h3.1v6.2H9.5zM.2 1.2h3.1v2.1h4.1V1.2h5.1v2.1h4.2V1.2h3.1v4.1H.2V1.2zM13.6.1h2v2.1h-2V.1zM4.3.1h2v2.1h-2V.1z"/>
    </symbol>
    <symbol id="icon-switch_cards" viewBox="0 0 40 40">
      <path fill-rule="evenodd" clip-rule="evenodd" d="M27.984 28.03h-1.97c-.55 0-1-.447-1-1v-1.968c0-.552.45-1 1-1h1.97c.552 0 1 .448 1 1v1.97c0 .552-.447 1-1 1zm0-7h-1.97c-.55 0-1-.447-1-1v-1.968c0-.552.45-1 1-1h1.97c.552 0 1 .448 1 1v1.97c0 .552-.447 1-1 1zm0-7h-1.97c-.55 0-1-.447-1-1v-1.968c0-.552.45-1 1-1h1.97c.552 0 1 .448 1 1v1.97c0 .55-.447 1-1 1zm-7 14h-1.97c-.55 0-1-.447-1-1v-1.968c0-.552.45-1 1-1h1.97c.552 0 1 .448 1 1v1.97c0 .552-.447 1-1 1zm0-7h-1.97c-.55 0-1-.447-1-1v-1.968c0-.552.45-1 1-1h1.97c.552 0 1 .448 1 1v1.97c0 .552-.447 1-1 1zm0-7h-1.97c-.55 0-1-.447-1-1v-1.968c0-.552.45-1 1-1h1.97c.552 0 1 .448 1 1v1.97c0 .55-.447 1-1 1zm-7 14h-1.97c-.55 0-1-.447-1-1v-1.968c0-.552.45-1 1-1h1.97c.552 0 1 .448 1 1v1.97c0 .552-.447 1-1 1zm0-7h-1.97c-.55 0-1-.447-1-1v-1.968c0-.552.45-1 1-1h1.97c.552 0 1 .448 1 1v1.97c0 .552-.447 1-1 1zm0-7h-1.97c-.55 0-1-.447-1-1v-1.968c0-.552.45-1 1-1h1.97c.552 0 1 .448 1 1v1.97c0 .55-.447 1-1 1z"/>
    </symbol>
    <symbol id="icon-switch_map" viewBox="0 0 20 20">
      <path d="M10.3 18.2s-7.2-6.4-7.2-11c0-4 3.2-7.2 7.2-7.2s7.2 3.2 7.2 7.2c-.1 4.6-7.2 11-7.2 11zm0-16.3C7.4 1.9 5 4.4 5 7.5c0 3 5.3 8.1 5.3 8.1s5.3-5 5.3-8.1c0-3.1-2.4-5.6-5.3-5.6zm0 6.8c-.8 0-1.4-.7-1.4-1.5s.6-1.4 1.4-1.4c.8 0 1.4.6 1.4 1.4.1.8-.6 1.5-1.4 1.5z"/>
    </symbol>
    <symbol id="icon-thunder" viewBox="0 0 11.8 17.6">
      <path d="M0 17.6L3.8 10 .5 9.4 10.7 0 8.3 7.3l3.5.6L0 17.6zm2.7-8.8l2.7.5-2.3 4.5 6.5-5.3L7 8l1.5-4.7-5.8 5.5z"/>
    </symbol>
    <symbol id="icon-twitter-2" viewBox="-948.3 -188 595.3 595.3">
      <circle fill="#4099FF" cx="-650.7" cy="109.7" r="297.6"/><path fill="#FFF" d="M-540.4 42.8c-4.7 5.9-27.2 9.5-27.2 9.5-18.9-22.5-47.3-9.5-47.3-9.5-37.9 13.1-24.8 48.5-24.8 48.5-56.8-1.2-88.7-50.9-88.7-50.9-17.7 36.7 10.7 61.5 10.7 61.5-5.9 0-17.7-4.7-17.7-4.7 0 33.1 33.1 43.7 33.1 43.7H-720c8.3 27.2 36.7 32 36.7 32-32 23.6-61.5 18.9-61.5 18.9 29.6 23.6 61.5 22.5 81.6 18.9 50.9-8.3 80.4-46.1 80.4-46.1 36.7-46.1 22.5-85.2 28.4-86.4 5.9-3.6 18.9-20.1 18.9-20.1-9.5 4.7-23.6 4.7-23.6 4.7 16.3-5.8 18.7-20 18.7-20z"/>
    </symbol>
    <symbol id="icon-twitter" viewBox="139.9 193.8 32 32">
      <circle fill="#FFF" cx="155.9" cy="206.7" r="12.9"/><path fill="#4099FF" d="M155.9 225.8c-8.8 0-16-7.2-16-16s7.2-16 16-16 16 7.2 16 16-7.2 16-16 16zm8.3-22.5c-.4.5-2.3.8-2.3.8-1.6-1.9-4-.8-4-.8-3.2 1.1-2.1 4.1-2.1 4.1-4.8-.1-7.5-4.3-7.5-4.3-1.5 3.1.9 5.2.9 5.2-.5 0-1.5-.4-1.5-.4 0 2.8 2.8 3.7 2.8 3.7H149c.7 2.3 3.1 2.7 3.1 2.7-2.7 2-5.2 1.6-5.2 1.6 2.5 2 5.2 1.9 6.9 1.6 4.3-.7 6.8-3.9 6.8-3.9 3.1-3.9 1.9-7.2 2.4-7.3.5-.3 1.6-1.7 1.6-1.7-.8.4-2 .4-2 .4 1.4-.5 1.6-1.7 1.6-1.7z"/>
    </symbol>
    <symbol id="icon-user" viewBox="0 0 40 40">
      <path fill-rule="evenodd" clip-rule="evenodd" d="M33.667 31.836c-1.384 1.816-8.904 2.197-14.78 2.197-5.876 0-13.17-.38-14.555-2.197-.37-.487-.453-1.08-.224-1.628 1.348-3.218 3.63-3.97 5.468-4.268 1.532-.248 3.026-.766 3.707-1.1.01-.125.015-.696.015-1.31.573.55 1.186 1.036 1.84 1.426l-.024.967-.914.45c-.923.452-2.493 1.06-4.103 1.31-1.363.21-2.903.63-3.928 2.98.05.052 1.577 1.373 12.72 1.373 11.144 0 12.893-1.32 12.952-1.377-1.035-2.344-2.574-2.766-3.937-2.978-1.63-.254-3.43-.863-4.342-1.317l-.916-.457-.016-.844c.655-.368 1.277-.817 1.854-1.344.003.296.006.642.006 1.117.677.337 2.4.854 3.934 1.103 1.838.297 4.12 1.05 5.47 4.27.225.546.145 1.14-.227 1.626zm-14.66-8.79c-3.866 0-7-4.94-7-9.046 0-4.994 2.342-9.044 7-9.044 4.66 0 6.997 4.05 6.997 9.044 0 4.085-3.133 9.045-6.998 9.045zm.02-16.038c-3.35 0-5.035 3.13-5.035 6.992 0 3.174 2.254 6.993 5.034 6.993S24.06 17.157 24.06 14c0-3.862-1.682-6.992-5.034-6.992z"/>
    </symbol></svg>