<svg xmlns="http://www.w3.org/2000/svg" style="width:0; height:0; visibility:hidden;">
    <symbol id="icon-accepted" viewBox="0 0 27.036 27.013">
      <path fill-rule="evenodd" clip-rule="evenodd" fill="#FFF" d="M25.782 3.734l-13.806 19.68c-.052.137-.125.265-.23.37l-.007.007c-.1.1-.218.17-.342.217-.35.15-.77.084-1.058-.202l-.007-.007c-.06-.06-.098-.137-.14-.21l-8.937-9.853c-.376-.376-.376-.986 0-1.363l.007-.007c.376-.376 1.04-.43 1.416-.054l8.268 9.118L24.358 2.31c.376-.375 1.04-.322 1.416.055l.007.007c.378.376.378.986.002 1.362z"/>
    </symbol>
    <symbol id="icon-arrow_down" viewBox="0 0 40 40">
      <path fill-rule="evenodd" clip-rule="evenodd" d="M28.748 16.645l-6.97 7.024c-.1.1-.22.174-.348.222-.362.15-.794.078-1.088-.217l-7.04-7.014c-.39-.39-.39-1.023 0-1.413.392-.39 1.025-.39 1.415 0l6.336 6.314 6.28-6.328c.392-.39 1.025-.39 1.415 0 .39.39.39 1.023 0 1.413z"/>
    </symbol>
    <symbol id="icon-checker" viewBox="0 0 13 13">
      <path fill-rule="evenodd" clip-rule="evenodd" d="M10.726 3.698l-4.904 7.037c-.313.312-.776.363-1.15.175-.127-.05-.246-.12-.348-.223L1.36 7.69c-.39-.39-.39-1.024 0-1.415.39-.39 1.024-.39 1.414 0l2.204 2.228 4.334-6.22c.39-.39 1.024-.39 1.414 0 .39.39.39 1.025 0 1.415z"/>
    </symbol>
    <symbol id="icon-clock" viewBox="0 0 39.991 40">
      <path fill-rule="evenodd" clip-rule="evenodd" d="M19.995 30.037c-5.543 0-10.037-4.494-10.037-10.037 0-5.543 4.494-10.037 10.037-10.037S30.032 14.457 30.032 20c0 5.543-4.494 10.037-10.037 10.037zm0-18.046c-4.422 0-8.006 3.585-8.006 8.006 0 4.42 3.583 8.005 8.004 8.005C24.414 28 28 24.418 28 19.997c0-4.42-3.585-8.005-8.006-8.005zm3.268 9.026h-3.63c-.37 0-.67-.45-.67-1.008v-.015c0-.04.013-.077.017-.117v-4.868c0-.557.45-1.008 1.008-1.008h.015c.557 0 1.008.45 1.008 1.008v3.976h2.253c.37 0 .668.45.668 1.008v.015c.002.557-.298 1.01-.667 1.01z"/>
    </symbol>
    <symbol id="icon-close-small" viewBox="0 0 11.045 11.048">
      <path fill-rule="evenodd" clip-rule="evenodd" d="M6.962 5.546L9.765 8.34c.39.39.39 1.024 0 1.414-.39.39-1.024.39-1.414 0l-2.8-2.792L2.774 9.74c-.39.39-1.024.39-1.414 0-.39-.39-.39-1.024 0-1.414l2.758-2.76-2.764-2.787c-.39-.392-.39-1.025 0-1.415.39-.39 1.024-.39 1.414 0L5.53 4.15l2.807-2.812c.39-.39 1.024-.39 1.414 0 .392.39.392 1.024 0 1.414L6.963 5.546z"/>
    </symbol>
    <symbol id="icon-close" viewBox="0 0 40 40">
      <path fill-rule="evenodd" clip-rule="evenodd" d="M22.142 18.25c-.086.085-.188.145-.292.193l5.882 5.895c.39.39.39 1.024 0 1.414-.39.39-1.024.39-1.414 0l-5.832-5.845-5.738 5.783c-.39.39-1.024.39-1.414 0-.39-.39-.39-1.024 0-1.414l5.74-5.785-5.77-5.78c-.39-.39-.39-1.025 0-1.415.39-.39 1.023-.39 1.413 0l5.818 5.83c.048-.104.107-.205.193-.29L26.31 11.3c.39-.39 1.024-.39 1.414 0 .39.39.39 1.024 0 1.414l-5.582 5.535z"/>
    </symbol>
    <symbol id="icon-delete" viewBox="0 0 17.032 17.017">
      <path fill-rule="evenodd" clip-rule="evenodd" fill="#C6CACC" d="M8.563 16.002c-4.15 0-7.516-3.36-7.516-7.502 0-4.143 3.365-7.502 7.516-7.502S16.08 4.358 16.08 8.5c0 4.144-3.366 7.502-7.517 7.502zM11.778 5.3c-.39-.39-1.024-.39-1.414 0L8.56 7.11 6.755 5.29c-.39-.39-1.023-.39-1.414 0-.39.392-.39 1.025 0 1.415L7.142 8.52l-1.776 1.754c-.39.39-.39 1.024 0 1.414.39.39 1.024.39 1.414 0l1.77-1.75 1.754 1.765c.39.39 1.024.39 1.414 0 .39-.39.39-1.024 0-1.414L9.97 8.527l1.808-1.814c.39-.39.39-1.024 0-1.414z"/>
    </symbol>
    <symbol id="icon-facebook-share" viewBox="0 0 30.026 30">
      <path fill-rule="evenodd" clip-rule="evenodd" d="M17.007 26.004H12.99v-10.04h-2.987v-4h2.99l.017-4c0-2.05 1.094-3.968 3.74-3.968h3.272l-.07 3.946h-1.776c-1.155 0-1.17.013-1.17.99l.014 3.03h2.89l-.417 4h-2.486v10.042z"/>
    </symbol>
    <symbol id="icon-facebook" viewBox="139.9 193.8 32 32">
      <circle fill="#FFF" cx="155.9" cy="209.8" r="12"/><path fill="#3B5998" d="M155.9 225.6c-8.7 0-15.9-7.1-15.9-15.9s7.1-15.9 15.9-15.9 15.9 7.1 15.9 15.9-7.2 15.9-15.9 15.9zm1.3-19.1c0-.7 0-.7.8-.7h1.6v-2.6h-2.4c-1.6 0-2.5 1.2-2.5 2.5v2.8h-1.3v2.6h1.3v6.6h2.6v-6.6h2l.3-2.6h-2.4v-2z"/>
    </symbol>
    <symbol id="icon-facebook_middle" viewBox="0 0 46 46.001">
      <path fill-rule="evenodd" clip-rule="evenodd" fill="#3B5998" d="M23.042 45h-.012c-12.15 0-22-9.85-22-22s9.85-22 22-22h.012c12.15 0 22 9.85 22 22s-9.85 22-22 22zm.98-27.044c0-.84.02-.96 1.013-.96h1.99V13.01H24.01c-2.274 0-3.954 1.646-3.954 3.41v3.56H18.05v4.01h1.98v9.005h3.982V23.99h2.782l.42-4.01h-3.198l.006-2.024z"/>
    </symbol>
    <symbol id="icon-instagram_middle" viewBox="0 0 46 46.001">
      <path fill-rule="evenodd" clip-rule="evenodd" fill="#125688" d="M22.964 44.964h-.012c-12.15 0-22-9.85-22-22s9.85-22 22-22h.012c12.15 0 22 9.85 22 22s-9.85 22-22 22zm11-30c0-1.657-1.343-3-3-3h-16c-1.657 0-3 1.343-3 3v16c0 1.657 1.343 3 3 3h16c1.657 0 3-1.343 3-3v-16zm-4.61 17.012h-12.83c-1.658 0-2.57-1.126-2.57-2.783V20.99h2.278c-.185.63-.315 1.284-.315 1.974 0 3.892 3.155 7.048 7.048 7.048s7.048-3.156 7.048-7.048c0-.69-.13-1.344-.315-1.974h2.28v8.308c0 1.657-.968 2.678-2.625 2.678zm1.61-14.028H28.98c-.552 0-1-.448-1-1v-1.984c0-.552.448-1 1-1h1.984c.552 0 1 .448 1 1v1.984c0 .553-.447 1-1 1zm-8 10.01c-2.758 0-4.994-2.236-4.994-4.994 0-2.758 2.236-4.994 4.994-4.994s4.994 2.236 4.994 4.994c0 2.758-2.235 4.994-4.994 4.994z"/>
    </symbol>
    <symbol id="icon-linkedin-2" viewBox="-948.3 -311.4 498 498">
      <circle fill="#007BB6" cx="-699.3" cy="-62.3" r="249"/><g fill="#FFF"><path d="M-631.9-105.4c-8.9-8.9-16.7-13.4-27.9-13.4s-23.4 3.3-32.4 13.4v-12.3h-30.1V.6h30.1V-63c0-8.9 3.3-14.5 7.8-19s10-7.8 17.9-7.8c13.4 0 19 7.8 19 25.7V1.8h30.1l-2.2-72.6c0-14.5-4.5-25.7-12.3-34.6zM-769.2-116.6h30.1V1.7h-30.1zM-752.4-162.3c-4.5 0-8.9 1.1-12.3 4.5-3.3 3.3-4.5 5.6-4.5 10 0 4.5 1.1 7.8 4.5 10 3.3 3.3 7.8 4.5 12.3 4.5s5.6-1.1 8.9-4.5c3.3-3.3 4.5-5.6 4.5-10 0-3.3-1.1-6.7-4.5-10-3.4-3.4-4.5-4.5-8.9-4.5z"/></g>
    </symbol>
    <symbol id="icon-linkedin-share" viewBox="0 0 30.026 30">
      <path fill-rule="evenodd" clip-rule="evenodd" d="M20.174 25.056v-7.744c0-2.182-.748-3.265-2.35-3.265-.79 0-1.16.286-1.75.858-.59.572-.885 1.348-.885 2.456v7.696h-4.05V11.04h4.05v1.552c1.196-1.214 2.22-1.59 3.718-1.59 1.496 0 2.733.465 3.745 1.52 1.012 1.057 1.518 2.03 1.518 3.79v8.745h-3.996zM7.342 9.078c-.632 0-1.165-.2-1.6-.6-.436-.398-.654-.888-.654-1.468s.218-1.07.653-1.468c.436-.4.97-.6 1.6-.6s.784.2 1.22.6c.436.4.653.89.653 1.468 0 .58-.218 1.07-.653 1.468-.435.4-.587.6-1.218.6zm1.803 15.978H5.15V11.04h3.995v14.016z"/>
    </symbol>
    <symbol id="icon-linkedin" viewBox="139.9 193.8 32 32">
      <circle fill="#FFF" cx="155.9" cy="209.7" r="12.5"/><path fill="#007BB6" d="M155.9 225.7c-8.8 0-16-7.2-16-16s7.2-16 16-16 16 7.2 16 16-7.3 16-16 16zm-5.4-9.3h2.7v-10.6h-2.7v10.6zm2.3-14.3c-.3-.3-.4-.4-.8-.4s-.8.1-1.1.4c-.3.3-.4.5-.4.9s.1.7.4.9c.3.3.7.4 1.1.4s.5-.1.8-.4.4-.5.4-.9c0-.3-.1-.6-.4-.9zm11.1 7.8c0-1.3-.4-2.3-1.1-3.1-.8-.8-1.5-1.2-2.5-1.2s-2.1.3-2.9 1.2v-1.1h-2.7v10.6h2.7v-5.7c0-.8.3-1.3.7-1.7.4-.4.9-.7 1.6-.7 1.2 0 1.7.7 1.7 2.3v5.9h2.7l-.2-6.5z"/>
    </symbol>
    <symbol id="icon-linkedin_middle" viewBox="0 0 46 46.001">
      <path fill-rule="evenodd" clip-rule="evenodd" fill="#007BB6" d="M23.006 45h-.012c-12.15 0-22-9.85-22-22s9.85-22 22-22h.012c12.15 0 22 9.85 22 22s-9.85 22-22 22zM13.99 33.013h3.995V18.995H13.99v14.018zM17.4 13.5c-.435-.4-.587-.6-1.22-.6-.63 0-1.164.2-1.6.6-.434.398-.652.888-.652 1.467 0 .58.218 1.07.653 1.468.436.4.97.6 1.6.6.633 0 .784-.2 1.22-.6.435-.4.653-.89.653-1.468 0-.58-.218-1.07-.653-1.468zm15.61 10.767c0-1.76-.506-2.732-1.518-3.788-1.012-1.057-2.25-1.522-3.745-1.522-1.496 0-2.522.376-3.72 1.59v-1.553h-4.05v14.017h4.05v-7.695c0-1.11.296-1.884.885-2.457.59-.572.96-.858 1.752-.858 1.6 0 2.35 1.083 2.35 3.265v7.744h3.996v-8.743z"/>
    </symbol>
    <symbol id="icon-lock" viewBox="0 0 39.991 40">
      <path fill-rule="evenodd" clip-rule="evenodd" d="M23.933 25h-7.875c-.552 0-1.062-.51-1.062-1.062v-4.875c0-.53.473-1.01 1-1.05v-2.06c0-1.648 1.336-2.984 2.984-2.984h2.03c1.65 0 2.985 1.335 2.985 2.983v2.06c.527.04 1 .52 1 1.05v4.875c0 .552-.51 1.062-1.062 1.062zm-4.61-3.123c.2.336.436 1.124.657 1.124.275 0 .557-.856.744-1.218.13-.25.334-.464.334-.767 0-.578-.47-1.047-1.047-1.047s-1.046.47-1.046 1.047c0 .358.188.577.358.862zm2.66-5.968c0-.554-.848-.94-1.972-.94-1.123 0-2.034.386-2.034.94V18h4.007v-2.09z"/>
    </symbol>
    <symbol id="icon-lock_slim" viewBox="0 0 12.01 12">
      <path fill-rule="evenodd" clip-rule="evenodd" fill="#B1B8BB" d="M10.036 10.932H2.972c-.503 0-.967-.464-.967-.967V5.53c0-.483.533-.563 1.012-.597V3.7c0-1.5 1.03-2.757 2.53-2.757h1.847C8.894.943 9.99 2.2 9.99 3.7v1.233c.48.034 1.012.114 1.012.597v4.436c0 .502-.464.966-.966.966zm-4.204-3.21c.182.305.397 1.023.598 1.023.25 0 .507-.78.677-1.11.117-.226.304-.42.304-.697 0-.526-.425-.952-.952-.952-.526 0-.952.426-.952.952 0 .325.17.524.326.784zM9.01 3.708c0-1.602-1.408-1.816-2.43-1.816-1.022 0-2.61.213-2.61 1.816V4.92h5.04V3.708z"/>
    </symbol>
    <symbol id="icon-map" viewBox="0 0 40 40">
      <path fill-rule="evenodd" clip-rule="evenodd" d="M20 34S8 24.912 8 17c0-6.627 5.372-12 12-12 6.627 0 12 5.373 12 12 0 7.77-12 17-12 17zm0-27c-5.523 0-10 4.534-10 10.125 0 6.61 10 14.263 10 14.263s10-7.72 10-14.263C30 11.535 25.523 7 20 7zm0 14c-2.21 0-4-1.79-4-4s1.79-4 4-4 4 1.79 4 4-1.79 4-4 4zm0-6c-1.105 0-2 .896-2 2 0 1.105.895 2 2 2 1.104 0 2-.895 2-2 0-1.104-.896-2-2-2z"/>
    </symbol>
    <symbol id="icon-menu-connections" viewBox="0 0 40 40">
      <path fill-rule="evenodd" clip-rule="evenodd" d="M32.022 29.987c-1.657 0-3-1.343-3-3s1.343-3 3-3 3 1.344 3 3c0 1.657-1.343 3-3 3zm0-4.04c-.577 0-1.045.47-1.045 1.047 0 .578.468 1.046 1.046 1.046.578 0 1.046-.468 1.046-1.046 0-.577-.47-1.046-1.047-1.046zm-.998-3.9c.033-.345.053-.693.053-1.047 0-4.624-2.852-8.577-6.893-10.216.358-.585.58-1.226.672-1.886 4.818 1.916 8.227 6.607 8.227 12.102 0 .347-.025.688-.052 1.028-.662-.132-1.344-.12-2.006.02zm-11.05-11.012c-1.658 0-3-1.343-3-3 0-1.656 1.342-3 3-3 1.656 0 3 1.344 3 3 0 1.657-1.344 3-3 3zm0-4.05c-.578 0-1.046.468-1.046 1.045 0 .578.468 1.046 1.046 1.046.578 0 1.046-.468 1.046-1.046 0-.577-.468-1.046-1.046-1.046zM8.994 21c0 .4.025.796.067 1.187-.66-.166-1.345-.2-2.015-.09-.03-.362-.056-.726-.056-1.097 0-5.432 3.33-10.084 8.06-12.04.106.656.338 1.293.707 1.872-3.973 1.67-6.762 5.594-6.762 10.168zm1.984 5.994c0 1.656-1.343 3-3 3s-3-1.344-3-3c0-1.657 1.343-3 3-3s3 1.343 3 3zm-4.045-.004c0 .577.468 1.046 1.046 1.046.577 0 1.045-.47 1.045-1.046 0-.578-.468-1.046-1.046-1.046-.58 0-1.047.468-1.047 1.046zm5.494 1.99c1.98 1.884 4.656 3.05 7.608 3.05 2.927 0 5.58-1.147 7.556-3.003.238.5.544.973.957 1.386.08.08.176.14.26.214-2.317 2.11-5.39 3.406-8.772 3.406-3.382 0-6.453-1.296-8.77-3.404.04-.04.086-.065.126-.105.46-.458.798-.985 1.037-1.546z"/>
    </symbol>
    <symbol id="icon-menu-crowd" viewBox="0 0 39.991 40">
      <path fill-rule="evenodd" clip-rule="evenodd" d="M28 19.026c-1.657 0-3-1.343-3-3 0-1.656 1.343-3 3-3s3 1.344 3 3c0 1.657-1.343 3-3 3zm-.004-4.045c-.578 0-1.046.47-1.046 1.047s.468 1.046 1.046 1.046c.578 0 1.046-.47 1.046-1.046 0-.578-.468-1.046-1.046-1.046zm-8.027-1.954c-1.658 0-3-1.343-3-3s1.342-3 3-3 3 1.343 3 3-1.344 3-3 3zm-.01-4.045c-.577 0-1.045.47-1.045 1.047 0 .578.47 1.046 1.046 1.046.58 0 1.047-.47 1.047-1.046 0-.578-.468-1.046-1.046-1.046zM12 19.027c-1.657 0-3-1.343-3-3 0-1.656 1.343-3 3-3s3 1.344 3 3c0 1.657-1.343 3-3 3zm-.004-4.045c-.578 0-1.046.47-1.046 1.047s.468 1.046 1.046 1.046c.578 0 1.046-.47 1.046-1.046 0-.578-.468-1.046-1.046-1.046zm-.043 6.046c1.06 0 1.068.86 1.068 1.922v2.187c0 1.062-.006 1.922-1.067 1.922-1.06 0-.954-.86-.954-1.922v-2.187c0-1.06-.108-1.922.953-1.922zm8.035-6c1.062 0 1.034.86 1.034 1.922v8.187c0 1.062.028 1.922-1.034 1.922-1.06 0-1.006-.86-1.006-1.922v-8.187c0-1.06-.056-1.922 1.006-1.922zm7.965 6c1.06 0 1.068.86 1.068 1.922v2.187c0 1.062-.006 1.922-1.067 1.922-1.06 0-.954-.86-.954-1.922v-2.187c0-1.06-.108-1.922.953-1.922z"/>
    </symbol>
    <symbol id="icon-menu-events" viewBox="0 0 40 40">
      <path fill-rule="evenodd" clip-rule="evenodd" d="M27.998 10.985V8.968h5.025v2.017h-5.025zM24.01 6.98h1.974v6.014H24.01V6.98zM17.998 8.97h4v2.017h-4V8.968zM14.01 6.98h1.974v6.014H14.01V6.98zM6.977 8.97h5.02v2.017h-5.02V8.968zm11.02 10.03V17.01h3.028v8.998h-2v-7.013h-1.027zM8.993 27.9c0 1.937.135 2.102 2.092 2.102H28.02c1.957 0 2.985-.165 2.985-2.1V13.013h1.993v15.923c0 2.21-.848 3.057-3.057 3.057H9.964c-2.21 0-2.965-.848-2.965-3.057v-15.94H8.99V27.9z"/>
    </symbol>
    <symbol id="icon-menu-messages" viewBox="0 0 40 40">
      <path fill-rule="evenodd" clip-rule="evenodd" d="M29.952 29.995H9.974c-2.21 0-2.965-.85-2.965-3.057V15.836L9 17.71v8.19c0 1.937.135 2.102 2.093 2.102H28.03c1.958 0 2.986-.165 2.986-2.102v-7.913l1.993-1.862v10.812c0 2.21-.85 3.058-3.058 3.058zm-4.786-12.06S20.973 21 20.004 21c-1.2 0-4.627-2.332-4.627-2.332-.06.03-2.42-1.496-5.574-4.084-.903-.742-2.563-2.08-2.813-2.81 0-1.48.538-2.768 2.942-2.768 6.77 0 14.655-.03 20.057-.03 2.064 0 2.983 1.382 2.983 2.616-.022 1.417-6.45 5.326-7.807 6.344zm4.863-6.93H10.042s-1.358-.416.343 1.184c.984.925 4.685 3.85 4.685 3.85s4.12 2.953 4.945 2.953c.612 0 4.548-3.068 4.548-3.068s3.85-2.73 5.11-3.663c1.84-1.363.356-1.257.356-1.257z"/>
    </symbol>
    <symbol id="icon-more" viewBox="0 0 39.991 40">
      <path fill-rule="evenodd" clip-rule="evenodd" d="M30.604 21.99c-1.398 0-2.53-1.133-2.53-2.53 0-1.4 1.132-2.532 2.53-2.532s2.53 1.133 2.53 2.53c0 1.398-1.132 2.532-2.53 2.532zm-10 0c-1.398 0-2.53-1.133-2.53-2.53 0-1.4 1.132-2.532 2.53-2.532s2.53 1.133 2.53 2.53c0 1.398-1.132 2.532-2.53 2.532zm-10-.01c-1.393 0-2.523-1.13-2.523-2.522 0-1.393 1.13-2.523 2.524-2.523 1.393 0 2.523 1.13 2.523 2.523 0 1.394-1.13 2.523-2.523 2.523z"/>
    </symbol>
    <symbol id="icon-persice-match-percent" viewBox="0 0 39.991 40">
      <path fill-rule="evenodd" clip-rule="evenodd" fill="#FFF" d="M19.565 6.03c5.982 0 11.64 3.872 13.446 9.246.457 1.358-1.935-.272-1.935 5.302 0 6.356-5.153 11.51-11.51 11.51S8.058 26.933 8.058 20.577c.29-5.414-2.562-3.977-2.095-5.35C7.78 9.88 13.6 6.032 19.565 6.032z"/><path fill-rule="evenodd" clip-rule="evenodd" fill="#8498A3" d="M19.49 33.083c-6.896 0-12.485-5.59-12.485-12.484 0-6.896 5.59-12.485 12.484-12.485s12.483 5.59 12.483 12.484-5.59 12.483-12.484 12.483zm.057-23.016c-5.817 0-10.532 4.715-10.532 10.532 0 5.816 4.715 10.53 10.532 10.53 5.816 0 10.532-4.714 10.532-10.53 0-5.818-4.717-10.533-10.533-10.533z"/><path fill-rule="evenodd" clip-rule="evenodd" fill="#8498A3" d="M23.003 14.09l-8.03 7.44 2.98.572L14.9 28.13l9.14-7.533-3.016-.543 1.98-5.963z"/>
    </symbol>
    <symbol id="icon-persice" viewBox="139.9 193.8 32 32">
      <circle fill="#FFF" cx="155.9" cy="209.8" r="15.3"/><path fill="#8498A3" d="M155.9 225.7c-8.8 0-15.9-7.2-15.9-15.9s7.2-15.9 15.9-15.9 15.9 7.2 15.9 15.9-7.1 15.9-15.9 15.9zm.1-30.5c-8.1 0-14.7 6.5-14.7 14.6s6.5 14.6 14.6 14.6 14.6-6.5 14.6-14.6-6.5-14.6-14.5-14.6zm-5.4 23.8l4.1-8-4-.8 10.6-9.8-2.7 8 4 .7-12 9.9z"/>
    </symbol>
    <symbol id="icon-picture" viewBox="0 0 40 40">
      <path d="M15.06 17.977c2.21 0 4-1.79 4-4s-1.79-4-4-4-4 1.79-4 4 1.79 4 4 4zm0-5.984c1.096 0 1.984.89 1.984 1.984 0 1.096-.89 1.985-1.984 1.985s-1.984-.89-1.984-1.985c0-1.096.888-1.984 1.984-1.984zM32.083 5h-23c-1.657 0-3 1.344-3 3v23c0 1.657 1.343 3 3 3h23c1.657 0 3-1.343 3-3V8c0-1.656-1.343-3-3-3zm1 25c0 1.105-.895 2-2 2h-21c-1.104 0-2-.895-2-2V9c0-1.104.896-2 2-2h21c1.105 0 2 .896 2 2v21zm-14.105-3.363c.373-.373.373-.978 0-1.35l-2.79-2.79c-.046-.115-.116-.225-.21-.32-.29-.29-.72-.348-1.074-.186-.13.047-.252.115-.355.218-.04.038-.055.086-.085.128L10.34 26.36c-.375.375-.375.98 0 1.356.373.375.98.375 1.355 0l3.556-3.454 2.377 2.376c.374.372.98.372 1.35 0zm8.983-5.017c-.046-.115-.116-.224-.21-.317-.29-.29-.72-.35-1.075-.187-.13.046-.25.115-.354.218-.036.037-.052.084-.082.125l-6.9 6.9c-.375.374-.375.98 0 1.355.375.374.982.374 1.356 0l6.327-6.327 2.455 2.454c.374.373.98.373 1.352 0 .373-.374.373-.98 0-1.352l-2.866-2.87z"/>
    </symbol>
    <symbol id="icon-plus-big" viewBox="0 0 39.991 40">
      <path fill-rule="evenodd" clip-rule="evenodd" d="M28.03 20.026l-7.022.005-.01 6.975c0 .552-.448 1-1 1s-1-.448-1-1l.01-6.98-7.047-.016c-.55 0-1-.45-1-1 0-.553.45-1 1-1l7.05.015.01-7.05c0-.553.45-1 1-1 .553 0 1 .447 1 1l-.01 7.056 7.02-.004c.55 0 1 .448 1 1 0 .553-.45 1-1 1z"/>
    </symbol>
    <symbol id="icon-plus" viewBox="0 0 39.991 40">
      <path fill-rule="evenodd" clip-rule="evenodd" d="M24.935 21.005l-3.955.006.003 3.927c0 .552-.448 1-1 1s-1-.448-1-1l-.003-3.902-3.924-.015c-.552 0-1-.448-1-1s.448-1 1-1l3.923.015-.004-3.972c0-.552.448-1 1-1s1 .448 1 1l.003 3.947 3.956-.006c.552 0 1 .448 1 1 0 .553-.45 1-1 1z"/>
    </symbol>
    <symbol id="icon-search" viewBox="0 0 40 40">
      <path fill-rule="evenodd" clip-rule="evenodd" d="M30.045 28.684l-1.536 1.28-5.956-6.722c-1.417 1.06-3.17 1.695-5.074 1.695-4.69 0-8.49-3.8-8.49-8.49 0-4.688 3.8-8.49 8.49-8.49 4.688 0 8.49 3.802 8.49 8.49 0 2.063-.737 3.952-1.96 5.423l6.035 6.814zM17.478 9.96c-3.582 0-6.486 2.904-6.486 6.487s2.904 6.487 6.486 6.487 6.486-2.905 6.486-6.487S21.06 9.96 17.478 9.96z"/>
    </symbol>
    <symbol id="icon-searching_cards" viewBox="0 0 44 44.01">
      <path fill-rule="evenodd" clip-rule="evenodd" fill="#39C9F5" d="M43.8 41.692l-2.1 2.1-9.36-9.36c-3.32 2.837-7.62 4.56-12.328 4.56-10.49 0-18.99-8.503-18.99-18.992 0-10.488 8.502-18.992 18.99-18.992 10.488 0 18.99 8.504 18.99 18.992 0 4.71-1.724 9.012-4.564 12.33l9.36 9.362zM19.996 4.024c-8.857 0-16.037 7.18-16.037 16.038 0 8.857 7.18 16.037 16.037 16.037s16.037-7.18 16.037-16.038c0-8.857-7.18-16.038-16.037-16.038z"/>
    </symbol>
    <symbol id="icon-similarity" viewBox="0 0 40 40">
      <path fill-rule="evenodd" clip-rule="evenodd" d="M35.667 31.835c-1.24 1.625-7.206 2.1-12.658 2.182v-8.25c1.35-.407 2.603-1.194 3.692-2.236 0 .614.003 1.185.015 1.31.68.334 2.175.852 3.707 1.1 1.837.297 4.12 1.05 5.468 4.268.228.547.146 1.14-.225 1.627zM23.01 22.587V5.254C26.32 6.262 27.99 9.79 27.99 14c0 3.36-2.1 7.276-4.983 8.587zM20.024 38.03c-.544 0-.984-.44-.984-.983V1.953c0-.543.442-.984.985-.984.544 0 .984.44.984.983v35.094c0 .544-.44.984-.985.984zM4.11 30.21c1.348-3.22 3.63-3.973 5.468-4.27 1.533-.25 3.258-.766 3.934-1.103 0-.475.003-.82.006-1.117.577.527 1.2.976 1.853 1.344l-.015.844-.917.457c-.912.454-2.712 1.063-4.342 1.317-1.363.212-2.902.633-3.937 2.977.055.05 1.588 1.204 10.85 1.358v1.997c-5.438-.09-11.453-.575-12.677-2.18-.372-.486-.452-1.08-.224-1.626zM11.994 14c0-4.224 1.68-7.76 5.014-8.755v2.218c-2.036.987-3.07 3.53-3.07 6.537 0 2.366 1.265 5.112 3.07 6.34v2.258c-2.898-1.302-5.015-5.243-5.015-8.598z"/>
    </symbol>
    <symbol id="icon-success" viewBox="0 0 39.991 40">
      <path fill-rule="evenodd" clip-rule="evenodd" d="M20.832 24.684c-.232.23-.536.34-.84.335-.308.01-.618-.094-.853-.33l-5.877-4.736c-.448-.448-.448-1.174 0-1.622.448-.448 1.175-.448 1.623 0l5.04 4.063 11.24-12.93c.45-.453 1.078-.62 1.53-.17l.017.02c.452.45.358 1.183-.094 1.635L20.83 24.684zm-.867-16.65c-6.622 0-11.99 5.37-11.99 11.99s5.368 11.99 11.99 11.99 11.99-5.367 11.99-11.99c0-1.253-.194-2.46-.55-3.597l1.535-1.85c.702 1.668 1.09 3.5 1.09 5.424 0 7.744-6.283 14.02-14.035 14.02S5.96 27.745 5.96 20c0-7.742 6.283-14.02 14.035-14.02 3.108 0 5.97 1.022 8.296 2.73l-1.4 1.54c-1.957-1.39-4.342-2.215-6.925-2.215z"/>
    </symbol>
    <symbol id="icon-switch-calendar" viewBox="0 0 39.991 40">
      <path fill-rule="evenodd" clip-rule="evenodd" d="M27.958 28.03H13.98c-2.21 0-2.965-.848-2.965-3.056V16l1.993.003v7.934c0 1.937.135 2.102 2.092 2.102h10.936c1.957 0 1.987-.166 1.987-2.103v-7.92l1.993.002v8.954c0 2.21.15 3.057-2.058 3.057zm-7.963-4.983v-4.014h-.978v-1.985h2.978v5.998h-2zm-8.948-13.042h2.97v2.062h4v-2.062h4.968v2.062h4.032l-.003-2.062h2.972v4h-18.94v-4zm12.982-.988h1.973v2.013H24.03V9.017zm-9 0h1.973v2.013H15.03V9.017z"/>
    </symbol>
    <symbol id="icon-switch-cards" viewBox="0 0 40 40">
      <path fill-rule="evenodd" clip-rule="evenodd" d="M27.984 28.03h-1.97c-.55 0-1-.447-1-1v-1.968c0-.552.45-1 1-1h1.97c.552 0 1 .448 1 1v1.97c0 .552-.447 1-1 1zm0-7h-1.97c-.55 0-1-.447-1-1v-1.968c0-.552.45-1 1-1h1.97c.552 0 1 .448 1 1v1.97c0 .552-.447 1-1 1zm0-7h-1.97c-.55 0-1-.447-1-1v-1.968c0-.552.45-1 1-1h1.97c.552 0 1 .448 1 1v1.97c0 .55-.447 1-1 1zm-7 14h-1.97c-.55 0-1-.447-1-1v-1.968c0-.552.45-1 1-1h1.97c.552 0 1 .448 1 1v1.97c0 .552-.447 1-1 1zm0-7h-1.97c-.55 0-1-.447-1-1v-1.968c0-.552.45-1 1-1h1.97c.552 0 1 .448 1 1v1.97c0 .552-.447 1-1 1zm0-7h-1.97c-.55 0-1-.447-1-1v-1.968c0-.552.45-1 1-1h1.97c.552 0 1 .448 1 1v1.97c0 .55-.447 1-1 1zm-7 14h-1.97c-.55 0-1-.447-1-1v-1.968c0-.552.45-1 1-1h1.97c.552 0 1 .448 1 1v1.97c0 .552-.447 1-1 1zm0-7h-1.97c-.55 0-1-.447-1-1v-1.968c0-.552.45-1 1-1h1.97c.552 0 1 .448 1 1v1.97c0 .552-.447 1-1 1zm0-7h-1.97c-.55 0-1-.447-1-1v-1.968c0-.552.45-1 1-1h1.97c.552 0 1 .448 1 1v1.97c0 .55-.447 1-1 1z"/>
    </symbol>
    <symbol id="icon-switch-map" viewBox="0 0 39.991 40">
      <path fill-rule="evenodd" clip-rule="evenodd" d="M20.517 28.018s-7.495-6.685-7.495-11.493c0-4.14 3.356-7.496 7.495-7.496 4.14 0 7.495 3.355 7.495 7.495 0 4.81-7.495 11.493-7.495 11.493zm.036-17.045c-3.044 0-5.512 2.624-5.512 5.862 0 3.164 5.513 8.44 5.513 8.44s5.512-5.272 5.512-8.44c0-3.237-2.468-5.862-5.512-5.862zm.052 7.128c-.837 0-1.516-.678-1.516-1.515 0-.837.678-1.516 1.515-1.516.837 0 1.516.678 1.516 1.515 0 .838-.678 1.516-1.515 1.516z"/>
    </symbol>
    <symbol id="icon-thunder" viewBox="0 0 11.8 17.6">
      <path d="M0 17.6L3.8 10 .5 9.4 10.7 0 8.3 7.3l3.5.6L0 17.6zm2.7-8.8l2.7.5-2.3 4.5 6.5-5.3L7 8l1.5-4.7-5.8 5.5z"/>
    </symbol>
    <symbol id="icon-twitter-2" viewBox="-948.3 -188 595.3 595.3">
      <circle fill="#4099FF" cx="-650.7" cy="109.7" r="297.6"/><path fill="#FFF" d="M-540.4 42.8c-4.7 5.9-27.2 9.5-27.2 9.5-18.9-22.5-47.3-9.5-47.3-9.5-37.9 13.1-24.8 48.5-24.8 48.5-56.8-1.2-88.7-50.9-88.7-50.9-17.7 36.7 10.7 61.5 10.7 61.5-5.9 0-17.7-4.7-17.7-4.7 0 33.1 33.1 43.7 33.1 43.7H-720c8.3 27.2 36.7 32 36.7 32-32 23.6-61.5 18.9-61.5 18.9 29.6 23.6 61.5 22.5 81.6 18.9 50.9-8.3 80.4-46.1 80.4-46.1 36.7-46.1 22.5-85.2 28.4-86.4 5.9-3.6 18.9-20.1 18.9-20.1-9.5 4.7-23.6 4.7-23.6 4.7 16.3-5.8 18.7-20 18.7-20z"/>
    </symbol>
    <symbol id="icon-twitter-share" viewBox="0 0 30.026 30">
      <path fill-rule="evenodd" clip-rule="evenodd" d="M5.67 5.278S8.95 10.55 15 10.644c0 0-1.348-3.882 2.59-5.154 0 0 2.955-1.27 4.924 1.027 0 0 2.298-.375 2.814-1.08 0 0-.14 1.413-1.735 2.442 0 0 1.454-.003 2.485-.566 0 0-1.45 1.815-2.08 2.098-.01.005-.02.01-.03.013-.61.234.813 4.315-2.986 9.145 0 0-3.035 4.048-8.41 4.8-2.186.305-5.393.406-8.63-2.033 0 0 3.284.37 6.566-2.07 0 0-3.012-.436-3.81-3.25 0 0 1.55 0 1.877-.047 0 0-3.61-1.272-3.564-4.72 0 0 1.22.54 1.9.47 0 0-3.05-2.69-1.244-6.442z"/>
    </symbol>
    <symbol id="icon-twitter" viewBox="139.9 193.8 32 32">
      <circle fill="#FFF" cx="155.9" cy="206.7" r="12.9"/><path fill="#4099FF" d="M155.9 225.8c-8.8 0-16-7.2-16-16s7.2-16 16-16 16 7.2 16 16-7.2 16-16 16zm8.3-22.5c-.4.5-2.3.8-2.3.8-1.6-1.9-4-.8-4-.8-3.2 1.1-2.1 4.1-2.1 4.1-4.8-.1-7.5-4.3-7.5-4.3-1.5 3.1.9 5.2.9 5.2-.5 0-1.5-.4-1.5-.4 0 2.8 2.8 3.7 2.8 3.7H149c.7 2.3 3.1 2.7 3.1 2.7-2.7 2-5.2 1.6-5.2 1.6 2.5 2 5.2 1.9 6.9 1.6 4.3-.7 6.8-3.9 6.8-3.9 3.1-3.9 1.9-7.2 2.4-7.3.5-.3 1.6-1.7 1.6-1.7-.8.4-2 .4-2 .4 1.4-.5 1.6-1.7 1.6-1.7z"/>
    </symbol>
    <symbol id="icon-twitter_middle" viewBox="0 0 46 46.001">
      <path fill-rule="evenodd" clip-rule="evenodd" fill="#4099FF" d="M23.006 1h-.012c-12.15 0-22 9.85-22 22s9.85 22 22 22h.012c12.15 0 22-9.85 22-22s-9.85-22-22-22zm9.036 18.125c-.01.005-.02.01-.03.013-.61.234.812 4.315-2.987 9.145 0 0-3.035 4.048-8.41 4.8-2.186.305-5.393.406-8.63-2.033 0 0 3.283.37 6.566-2.07 0 0-3.01-.437-3.808-3.25 0 0 1.547 0 1.876-.047 0 0-3.61-1.272-3.564-4.72 0 0 1.22.54 1.9.47 0 0-3.05-2.69-1.244-6.443 0 0 3.283 5.272 9.333 5.366 0 0-1.348-3.882 2.59-5.154 0 0 2.954-1.27 4.924 1.026 0 0 2.298-.375 2.814-1.08 0 0-.14 1.413-1.734 2.442 0 0 1.454-.002 2.485-.565 0 .003-1.45 1.817-2.078 2.1z"/>
    </symbol>
    <symbol id="icon-user" viewBox="0 0 40 40">
      <path fill-rule="evenodd" clip-rule="evenodd" d="M33.667 31.836c-1.384 1.816-8.904 2.197-14.78 2.197-5.876 0-13.17-.38-14.555-2.197-.37-.487-.453-1.08-.224-1.628 1.348-3.218 3.63-3.97 5.468-4.268 1.532-.248 3.026-.766 3.707-1.1.01-.125.015-.696.015-1.31.573.55 1.186 1.036 1.84 1.426l-.024.967-.914.45c-.923.452-2.493 1.06-4.103 1.31-1.363.21-2.903.63-3.928 2.98.05.052 1.577 1.373 12.72 1.373 11.144 0 12.893-1.32 12.952-1.377-1.035-2.344-2.574-2.766-3.937-2.978-1.63-.254-3.43-.863-4.342-1.317l-.916-.457-.016-.844c.655-.368 1.277-.817 1.854-1.344.003.296.006.642.006 1.117.677.337 2.4.854 3.934 1.103 1.838.297 4.12 1.05 5.47 4.27.225.546.145 1.14-.227 1.626zm-14.66-8.79c-3.866 0-7-4.94-7-9.046 0-4.994 2.342-9.044 7-9.044 4.66 0 6.997 4.05 6.997 9.044 0 4.085-3.133 9.045-6.998 9.045zm.02-16.038c-3.35 0-5.035 3.13-5.035 6.992 0 3.174 2.254 6.993 5.034 6.993S24.06 17.157 24.06 14c0-3.862-1.682-6.992-5.034-6.992z"/>
    </symbol>
    <symbol id="linkedin_big" viewBox="0 0 75.982 76">
      <path fill-rule="evenodd" clip-rule="evenodd" fill="#007BB6" d="M37.99 2c19.883 0 36 16.118 36 36s-16.117 36-36 36c-19.88 0-36-16.118-36-36s16.12-36 36-36z"/><path fill-rule="evenodd" clip-rule="evenodd" fill="#FFF" d="M44.196 48.027v-8.605c0-2.425-.953-3.45-2.732-3.45-.88 0-1.648.318-2.303.953-.654.636-.953 1.32-.953 2.55v8.55h-3.994v-16.03h3.965v1.886c1.33-1.348 2.826-1.867 4.488-1.867 1.662 0 2.712.618 3.836 1.79 1.124 1.175 1.687 2.552 1.687 4.507v9.717h-3.994zM30.4 30.09c-.633 0-1.167-.2-1.603-.6-.436-.4-.654-.89-.654-1.472 0-.58.218-1.07.654-1.47.436-.4.97-.6 1.603-.6s.785.2 1.22.6c.437.4.655.89.655 1.47s-.218 1.07-.654 1.47c-.436.4-.588.6-1.22.6zm1.808 17.937h-3.994v-16.03h3.994v16.03z"/>
    </symbol>
    <symbol id="twitter_big" viewBox="0 0 75.982 76">
      <path fill-rule="evenodd" clip-rule="evenodd" fill="#4099FF" d="M37.99 1.94c19.883 0 36 16.117 36 36 0 19.88-16.117 36-36 36-19.88 0-36-16.12-36-36 0-19.884 16.12-36 36-36z"/><path fill-rule="evenodd" clip-rule="evenodd" fill="#FFF" d="M26.807 27s3.943 6.334 11.21 6.446c0 0-1.62-4.663 3.11-6.19 0 0 3.55-1.527 5.916 1.233 0 0 2.76-.452 3.38-1.296 0 0-.17 1.696-2.084 2.932 0 0 1.745-.003 2.984-.68 0 0-1.743 2.18-2.497 2.52l-.037.016c-.733.28.976 5.183-3.587 10.984 0 0-3.645 4.862-10.102 5.764-2.625.367-6.477.49-10.363-2.44 0 0 3.943.444 7.886-2.485 0 0-3.618-.526-4.576-3.905 0 0 1.86 0 2.253-.056 0 0-4.337-1.528-4.28-5.668 0 0 1.464.648 2.28.563 0 0-3.662-3.234-1.493-7.74z"/>
    </symbol></svg>